<?xml version="1.0" encoding="UTF-8" standalone="no"?>
<svg
   xmlns:dc="http://purl.org/dc/elements/1.1/"
   xmlns:cc="http://creativecommons.org/ns#"
   xmlns:rdf="http://www.w3.org/1999/02/22-rdf-syntax-ns#"
   xmlns:svg="http://www.w3.org/2000/svg"
   xmlns="http://www.w3.org/2000/svg"
   xmlns:sodipodi="http://sodipodi.sourceforge.net/DTD/sodipodi-0.dtd"
   xmlns:inkscape="http://www.inkscape.org/namespaces/inkscape"
   width="800"
   height="800"
   viewBox="0 0 211.66666 211.66667"
   version="1.1"
   id="svg16"
   inkscape:version="1.0.2 (e86c870879, 2021-01-15)"
   sodipodi:docname="thumbnail.svg">
  <defs
     id="defs10" />
  <sodipodi:namedview
     id="base"
     pagecolor="#ffffff"
     bordercolor="#666666"
     borderopacity="1.0"
     inkscape:pageopacity="0.0"
     inkscape:pageshadow="2"
     inkscape:zoom="0.7"
     inkscape:cx="-154.9154"
     inkscape:cy="439.51305"
     inkscape:document-units="px"
     inkscape:current-layer="g3721"
     inkscape:document-rotation="0"
     showgrid="true"
     showguides="true"
     inkscape:guide-bbox="true"
     inkscape:snap-page="false"
     units="px"
     showborder="true"
     inkscape:showpageshadow="true"
     inkscape:pagecheckerboard="false"
     inkscape:snap-grids="true"
     inkscape:snap-to-guides="true"
     inkscape:lockguides="false"
     inkscape:window-width="2560"
     inkscape:window-height="1387"
     inkscape:window-x="2552"
     inkscape:window-y="-8"
     inkscape:window-maximized="1">
    <inkscape:grid
       type="xygrid"
       id="grid18"
       originx="0"
       originy="0"
       enabled="true"
       spacingx="5.2916666"
       spacingy="5.2916666"
       empspacing="2"
       color="#3f3fff"
       opacity="0.05098039"
       empcolor="#3f3fff"
       empopacity="0.2" />
    <sodipodi:guide
       position="10.583333,105.83333"
       orientation="1,0"
       id="guide185"
       inkscape:locked="false" />
    <sodipodi:guide
       position="105.83333,201.08333"
       orientation="0,-1"
       id="guide187"
       inkscape:locked="false" />
    <sodipodi:guide
       position="201.08333,105.83333"
       orientation="1,0"
       id="guide189"
       inkscape:locked="false" />
    <sodipodi:guide
       position="105.83333,10.583336"
       orientation="0,-1"
       id="guide191"
       inkscape:locked="false" />
    <sodipodi:guide
       position="107.17508,106.0952"
       orientation="0,-1"
       id="guide193"
       inkscape:locked="false" />
  </sodipodi:namedview>
  <metadata
     id="metadata13">
    <rdf:RDF>
      <cc:Work
         rdf:about="">
        <dc:format>image/svg+xml</dc:format>
        <dc:type
           rdf:resource="http://purl.org/dc/dcmitype/StillImage" />
        <dc:title></dc:title>
      </cc:Work>
    </rdf:RDF>
  </metadata>
  <g
     inkscape:label="Layer 1"
     inkscape:groupmode="layer"
     id="layer1"
     style="display:inline">
    <g
       id="surface379488"
       transform="matrix(2.5352148,0,0,2.5352148,-1386.8811,-1632.8547)"
       style="display:inline">
      <g
         id="g21381"
         transform="matrix(0.19396527,0,0,0.19396527,538.93721,648.12322)"
         style="display:inline">
        <g
           id="g21559"
           transform="matrix(0.76750787,0,0,0.76750787,30.946021,-26.044358)"
           style="display:inline">
          <g
             id="g3721"
             transform="rotate(20,599.13867,245.52763)"
             style="display:inline">
            <g
               id="g22437"
               transform="matrix(0.8244685,0.00438513,-0.00438513,0.8244685,7.9734171,174.79381)"
               style="display:inline">
              <g
                 id="g22489"
                 transform="matrix(0.90051286,0,0,0.90051286,60.939169,38.553095)"
                 style="display:inline">
                <g
                   id="g29984"
                   transform="matrix(1.0080702,-0.11247099,0.11247099,1.0080702,-0.54730953,57.839828)"
                   style="display:inline;stroke-width:0;stroke-miterlimit:4;stroke-dasharray:none">
                  <g
                     id="g30057"
                     transform="rotate(5.2210276,256.77989,33.043212)"
                     style="display:inline">
                    <path
                       style="display:inline;fill:#cccccc;fill-opacity:1;stroke:none;stroke-width:0;stroke-linecap:butt;stroke-linejoin:round;stroke-miterlimit:4;stroke-dasharray:none;stroke-dashoffset:0;stroke-opacity:1;paint-order:markers fill stroke"
                       d="m 170.7232,605.77833 c 1.50283,-1.33227 3.47422,-2.92024 4.38088,-3.52883 1.90246,-1.27699 2.35673,-2.75782 2.23401,-7.28231 -0.0829,-3.0551 1.03491,-6.30325 2.33153,-6.77518 0.5346,-0.19458 0.73134,-0.81917 0.63707,-2.02255 -0.29694,-3.79049 -1.30628,-4.9363 -7.24625,-8.22598 -5.38269,-2.98103 -7.27499,-4.68573 -10.02105,-9.02759 -2.48095,-3.92265 -4.20152,-5.71951 -6.88381,-7.18903 -2.30077,-1.2605 -5.26953,-1.40462 -11.25454,-0.54637 l -4.83393,0.69318 -2.1924,3.73636 c -1.20582,2.05499 -2.24924,4.34736 -2.31871,5.09414 -0.17877,1.92189 1.58509,7.64915 2.84945,9.25214 0.57345,0.72705 1.85736,1.82166 2.85312,2.43249 1.56486,0.95991 1.93969,1.46556 2.7628,3.72704 1.2732,3.49809 0.89433,6.31899 -1.23103,9.16568 -2.20115,2.94821 -2.52802,4.12159 -1.7464,6.26908 0.48812,1.34108 1.07232,2.05461 2.22564,2.71837 0.86009,0.495 1.78056,0.82111 2.04549,0.72468 0.26492,-0.0964 3.11418,0.0776 6.33169,0.38669 6.43407,0.61811 7.18742,0.3796 7.86206,-2.48916 0.49164,-2.09054 -0.33109,-3.70747 -3.56925,-7.01477 -4.70323,-4.80366 -5.13164,-7.57352 -1.70381,-11.01592 4.67218,-4.69202 8.09338,-6.2817 9.17471,-4.26305 0.58771,1.09712 -0.43525,2.29638 -2.18718,2.56416 -1.67949,0.2567 -1.98555,1.11967 -1.52848,4.30972 0.35191,2.45614 0.38503,2.50892 2.32327,3.70227 5.48603,3.37771 6.46105,7.23061 2.98821,11.80827 -3.1995,4.21735 -3.61801,5.62792 -1.90656,6.42598 1.2576,0.58642 4.73577,-1.06952 7.62347,-3.62951 z"
                       id="path4554" />
                    <path
                       style="display:inline;fill:#cccccc;fill-opacity:1;stroke:none;stroke-width:0;stroke-linecap:butt;stroke-linejoin:round;stroke-miterlimit:4;stroke-dasharray:none;stroke-dashoffset:0;stroke-opacity:1;paint-order:markers fill stroke"
                       d="m 189.48782,588.94363 c 1.1856,-2.71766 1.34935,-7.59277 0.5213,-15.51949 -1.3409,-12.83585 -1.19676,-17.19714 0.72666,-21.98851 1.20199,-2.99421 1.51317,-4.71067 1.38659,-7.64831 -0.13738,-3.1884 0.50953,-7.74726 1.38184,-9.73791 0.4573,-1.04357 1.80374,-3.18955 2.9921,-4.76885 1.82422,-2.42433 2.21747,-3.34903 2.52555,-5.93856 0.20069,-1.68691 0.28699,-3.09488 0.19178,-3.12884 -0.0952,-0.034 -0.99472,0.12398 -1.99891,0.35096 -1.25658,0.28402 -2.29026,0.86309 -3.3156,1.85735 -1.88853,1.83131 -3.60836,2.45762 -5.64338,2.05497 -0.88241,-0.17452 -2.77139,-0.23396 -4.19773,-0.13209 -1.69299,0.12093 -3.32809,-0.1444 -4.70973,-0.76425 l -2.11641,-0.94949 -2.68872,4.05233 c -1.47879,2.22877 -3.37281,4.86537 -4.20893,5.8591 -0.83611,0.99373 -1.78761,2.43034 -2.11445,3.19246 -0.64639,1.50728 -0.47497,1.97882 2.55329,7.02428 1.46102,2.43409 1.55625,2.79437 1.72713,6.53406 0.20474,4.48051 -0.64232,7.52928 -2.47434,8.90575 -0.66775,0.5017 -2.76557,1.61116 -4.66182,2.46545 -3.93929,1.77472 -4.24815,2.03588 -3.35438,2.83627 0.3564,0.31915 1.51029,1.97807 2.56422,3.68648 2.64826,4.29283 4.01967,5.5904 8.74552,8.27469 2.25442,1.28052 4.79961,2.84506 5.65599,3.47678 2.02605,1.49455 3.48833,4.46593 3.62993,7.37616 0.10173,2.09079 0.21777,2.36743 1.5936,3.79902 2.32404,2.41823 3.87279,2.07563 5.28869,-1.16992 z"
                       id="path4552"
                       inkscape:connector-curvature="0" />
                    <path
                       style="display:inline;fill:#cccccc;fill-opacity:1;stroke:none;stroke-width:0;stroke-linecap:butt;stroke-linejoin:round;stroke-miterlimit:4;stroke-dasharray:none;stroke-dashoffset:0;stroke-opacity:1;paint-order:markers fill stroke"
                       d="m 164.96025,558.36798 c 1.68785,-0.7745 3.49406,-1.86027 4.01383,-2.41282 1.16766,-1.24132 1.65307,-4.89494 1.1267,-8.48046 -0.33721,-2.29694 -0.6238,-3.00321 -1.95685,-4.82243 -2.42126,-3.30431 -2.94439,-5.20706 -2.05751,-7.48372 0.41297,-1.0601 1.45468,-2.77345 2.31492,-3.80745 1.33713,-1.60719 7.0303,-9.83185 6.94892,-10.03877 -0.0152,-0.0391 -0.98089,-1.22833 -2.14562,-2.64282 -2.28111,-2.77028 -3.43101,-5.3283 -3.64966,-8.11889 -0.36181,-4.61782 -3.56678,-4.11013 -6.19847,0.98187 -1.70753,3.30388 -3.05992,3.71015 -5.9203,1.7785 l -2.17823,-1.47098 -4.51835,1.78037 c -5.01429,1.97579 -8.2374,3.76119 -9.09182,5.03629 -0.53884,0.80415 -0.44816,0.97733 2.03857,3.89294 3.53974,4.15023 3.84963,4.72782 4.01641,7.48608 0.14136,2.33791 -1.13957,6.2672 -2.35712,7.23051 -0.47816,0.37832 -0.4102,0.51908 0.48485,1.00413 0.57254,0.31027 1.19016,0.97399 1.37248,1.47494 0.54768,1.50474 0.96174,7.9874 0.6196,9.70076 -0.17561,0.8794 -1.60451,3.42765 -3.17534,5.66279 l -2.85606,4.06389 4.75297,-0.48158 c 6.06119,-0.61413 7.99442,-0.40226 10.75305,1.17847 1.94302,1.11337 2.38547,1.18958 3.41331,0.58788 0.64951,-0.38022 2.56188,-1.325 4.24972,-2.0995 z"
                       id="path4548" />
                    <path
                       style="display:inline;fill:#cccccc;fill-opacity:1;stroke:none;stroke-width:0;stroke-linecap:butt;stroke-linejoin:round;stroke-miterlimit:4;stroke-dasharray:none;stroke-dashoffset:0;stroke-opacity:1;paint-order:markers fill stroke"
                       d="m 192.42649,520.69884 c 0.80809,-0.87709 1.82521,-1.37888 4.12931,-2.03718 1.68142,-0.48039 3.42258,-0.85688 3.86925,-0.83663 1.14487,0.0519 1.93356,-1.87997 1.73019,-4.23801 -0.14295,-1.65754 -0.42086,-2.25034 -1.87463,-3.99861 -0.93873,-1.12892 -2.90079,-3.7529 -4.36011,-5.83107 -1.45933,-2.07817 -2.99824,-4.05146 -3.41979,-4.3851 -0.42155,-0.33363 -1.80634,-0.59559 -3.0773,-0.58214 -2.95551,0.0313 -4.88416,-0.76922 -5.42352,-2.25111 -0.3145,-0.86407 0.0223,-2.06473 1.34554,-4.79639 0.97077,-2.00408 1.70967,-4.17869 1.64198,-4.83245 -0.19914,-1.92358 -1.60709,-3.99034 -3.27972,-4.81435 -2.23592,-1.10152 -3.81701,-0.7544 -6.10101,1.33945 -2.18032,1.99879 -4.59909,2.729 -7.75391,2.34087 l -1.84042,-0.22642 -2.35494,3.4468 c -1.45236,2.12575 -3.17434,4.03085 -4.49288,4.97066 -4.6412,3.30809 -5.47257,4.77477 -4.98621,8.79657 0.16149,1.33539 0.24259,3.45635 0.18023,4.71322 l -0.11339,2.28523 1.82065,1.26141 c 1.00136,0.69378 1.99066,1.20413 2.19844,1.13411 0.20776,-0.07 0.91631,-1.16931 1.57452,-2.44287 1.51705,-2.93532 3.63293,-4.51079 5.9148,-4.40412 2.39997,0.11219 3.59517,1.58763 4.08127,5.03822 0.47455,3.36864 1.43153,5.22698 4.11338,7.98775 2.63004,2.70743 6.16357,4.27121 8.62813,3.81841 0.97737,-0.17957 2.46084,-0.17389 3.29661,0.0126 1.91017,0.42625 3.18697,0.0144 4.55353,-1.46885 z"
                       id="path4544" />
                    <path
                       style="fill:#cccccc;fill-opacity:1;stroke:none;stroke-width:0;stroke-linecap:butt;stroke-linejoin:round;stroke-miterlimit:4;stroke-dasharray:none;stroke-dashoffset:0;stroke-opacity:1;paint-order:markers fill stroke"
                       d="m 134.40192,537.79682 c 1.90916,-1.6188 4.98898,-6.28642 5.04857,-7.65136 0.11731,-2.68665 -3.01787,-3.56415 -7.25182,-2.02972 -0.9397,0.34059 -2.01912,0.47438 -2.39871,0.29738 -0.88292,-0.41172 -1.56076,-2.28035 -1.70049,-4.68781 -0.0886,-1.52656 -0.22843,-1.8885 -0.72439,-1.87494 -0.33803,0.009 -2.80844,-0.8771 -5.48981,-1.96963 -7.32126,-2.98306 -11.25632,-6.81744 -11.19796,-10.91144 0.0154,-1.08256 -0.19347,-1.33899 -1.51052,-1.85421 -3.33105,-1.30307 -6.93711,-0.16863 -7.7986,2.45337 -0.58376,1.7767 -0.3248,2.47213 1.54498,4.14906 0.82517,0.74006 2.31656,2.12288 3.31419,3.07293 2.25008,2.14277 3.82786,2.98103 6.16236,3.274 4.55928,0.57217 9.49386,5.59807 8.98472,9.151 -0.22317,1.55734 -2.98022,2.33502 -5.0922,1.43638 -1.44584,-0.61521 -1.90046,-1.13524 -3.05936,-3.49953 -1.14646,-2.33893 -1.65903,-2.93198 -3.24959,-3.75986 -2.16177,-1.1252 -2.6797,-0.77713 -2.48788,1.67196 0.23219,2.96404 1.00166,4.32529 3.96556,7.01524 1.56872,1.42372 3.03279,3.0847 3.25349,3.69106 0.22069,0.60636 0.2124,2.13434 -0.0184,3.39553 l -0.4197,2.29306 1.788,-0.88878 c 1.02796,-0.51097 3.45971,-2.64324 5.72067,-5.01614 5.281,-5.54248 7.69994,-6.43243 8.85536,-3.25795 0.26781,0.73582 0.41724,2.37028 0.33205,3.63213 -0.1223,1.8117 -0.002,2.38344 0.57031,2.7182 0.8617,0.50373 1.47925,0.32017 2.85921,-0.84991 z"
                       id="path4542" />
                    <path
                       style="fill:#cccccc;fill-opacity:1;stroke:none;stroke-width:0;stroke-linecap:butt;stroke-linejoin:round;stroke-miterlimit:4;stroke-dasharray:none;stroke-dashoffset:0;stroke-opacity:1;paint-order:markers fill stroke"
                       d="m 142.70199,514.92526 c 1.13974,-0.8133 3.45419,-1.87356 5.80574,-2.65964 3.39831,-1.13598 4.02385,-1.47917 4.77641,-2.62036 0.84252,-1.27763 1.03228,-3.74399 0.60858,-7.91005 -0.3671,-3.60954 1.41314,-6.58973 5.56003,-9.30768 1.2436,-0.81508 2.85871,-2.52885 4.21747,-4.47509 l 2.20206,-3.15415 -2.49472,-1.82753 c -3.31088,-2.42542 -4.20763,-3.49381 -7.25201,-8.64015 -2.97428,-5.02782 -3.10957,-5.07843 -6.14254,-2.29797 -1.78104,1.63276 -2.12922,1.80072 -3.73983,1.80409 -2.56229,0.005 -4.31799,0.86611 -6.7589,3.31364 -2.75447,2.76193 -4.17724,5.38053 -4.46747,8.22233 -0.41405,4.05428 -3.31736,6.27244 -6.99285,5.34262 -1.06423,-0.26923 -2.24482,-0.37673 -2.62354,-0.23889 -0.89351,0.32521 -2.33222,2.6483 -2.07603,3.35219 0.35382,0.9721 -0.71602,3.39417 -1.64925,3.73384 -0.8927,0.32492 -0.88387,0.34181 0.50643,0.96819 1.04293,0.46989 3.6736,0.46143 10.00518,-0.0322 4.72463,-0.36834 9.11828,-0.54725 9.76367,-0.39758 1.43643,0.3331 2.23527,2.20602 1.62808,3.81714 -0.42479,1.12716 -4.69587,7.08099 -6.62768,9.23892 l -1.02268,1.14239 1.8993,2.48488 c 1.45856,1.90827 2.0246,2.36987 2.43927,1.9892 0.29699,-0.27262 1.39286,-1.10429 2.43528,-1.84815 z"
                       id="path4538" />
                    <path
                       style="fill:#cccccc;fill-opacity:1;stroke:none;stroke-width:0;stroke-linecap:butt;stroke-linejoin:round;stroke-miterlimit:4;stroke-dasharray:none;stroke-dashoffset:0;stroke-opacity:1;paint-order:markers fill stroke"
                       d="m 127.80743,517.31014 c -0.10739,-3.78258 1.98038,-6.4285 4.75832,-6.03042 0.73604,0.10547 1.311,-0.23034 2.40497,-1.40468 2.51235,-2.69689 6.7668,-8.75123 6.55619,-9.32986 -0.21094,-0.57957 -0.68824,-0.56567 -11.72921,0.34147 -6.93405,0.56972 -9.25638,0.17662 -10.58895,-1.79237 -0.45323,-0.66969 -1.1179,-0.78336 -3.08764,-0.52804 -1.72532,0.22364 -2.67893,0.53807 -3.05017,1.00573 -0.63934,0.8054 -0.52031,8.97216 0.16054,11.0139 0.63615,1.90771 4.86906,5.51799 7.49106,6.38918 1.1258,0.37407 3.09352,1.16816 4.3727,1.76465 1.27919,0.5965 2.42774,1.04743 2.55234,1.00208 0.1246,-0.0453 0.19653,-1.13959 0.15985,-2.43164 z"
                       id="path4532" />
                    <path
                       style="fill:#d16eff;fill-opacity:1;stroke:#000000;stroke-width:0;stroke-linecap:butt;stroke-linejoin:round;stroke-miterlimit:4;stroke-dasharray:none;stroke-dashoffset:0;stroke-opacity:1;paint-order:normal"
                       d="m 233.67095,515.96584 c 1.8938,-1.6819 4.07802,-2.52265 7.57176,-2.91452 l 1.28054,-0.14364 -1.31885,-3.24149 -1.31884,-3.2415 1.28216,-1.93783 c 0.70518,-1.0658 1.87854,-2.67228 2.60745,-3.56995 2.39229,-2.94614 4.3764,-7.83411 4.78939,-11.79891 0.43244,-4.15152 1.09414,-5.38101 3.88354,-7.21592 1.05949,-0.69695 2.57888,-1.69604 3.37641,-2.22019 0.79754,-0.52415 1.88768,-1.75176 2.42253,-2.72802 1.52409,-2.7819 2.69235,-3.5211 6.07745,-3.84542 1.60034,-0.15332 3.73946,-0.17647 4.7536,-0.0514 2.31377,0.28528 6.35939,2.46152 8.5745,4.61243 1.60663,1.56007 5.23567,4.0696 6.30103,4.35726 0.80276,0.21675 1.2566,-0.43631 1.74253,-2.50758 0.25158,-1.07232 1.06932,-3.7249 1.8172,-5.89461 1.57892,-4.58069 2.01906,-3.78758 -4.86161,-8.76047 -5.63992,-4.07616 -8.93942,-5.70833 -10.97364,-5.42835 -2.14904,0.29579 -4.18882,-0.004 -6.59665,-0.97059 -3.00236,-1.20484 -4.48793,-0.94527 -9.84487,1.72014 -2.53329,1.26048 -5.10632,2.68826 -5.71784,3.17283 -0.61153,0.48458 -2.00153,1.5538 -3.08889,2.37603 -1.6734,1.26539 -2.37416,2.36235 -4.56292,7.14279 -1.45161,3.17046 -3.26832,6.3625 -4.14167,7.27713 -2.26346,2.37043 -2.82449,3.73343 -2.64596,6.42815 0.20136,3.03932 -0.39922,4.19612 -4.54622,8.75659 -3.80378,4.18304 -3.86798,4.56106 -1.4248,8.389 1.78673,2.79943 1.42887,3.94889 -2.8043,9.00769 -0.26006,0.31078 3.58135,4.51167 4.3325,4.73793 1.10564,0.33304 0.77954,0.49505 3.03447,-1.50756 z"
                       id="path4524"
                       inkscape:connector-curvature="0" />
                    <path
                       style="fill:#d16eff;fill-opacity:1;stroke:#000000;stroke-width:0;stroke-linecap:butt;stroke-linejoin:round;stroke-miterlimit:4;stroke-dasharray:none;stroke-dashoffset:0;stroke-opacity:1;paint-order:normal"
                       d="m 227.45037,507.52405 c 0.72341,-1.18364 0.70366,-1.36819 -0.29634,-2.76931 -1.5146,-2.12213 -2.36543,-4.69768 -2.00095,-6.05714 0.17124,-0.6387 1.68954,-2.65561 3.37399,-4.48203 4.09201,-4.43687 4.54263,-5.25394 4.28428,-7.76833 -0.32213,-3.135 0.15561,-4.46256 2.49159,-6.92367 1.50696,-1.58771 2.81867,-3.80664 4.62944,-7.83132 1.69438,-3.76602 2.99981,-6.01352 3.96303,-6.82301 3.66913,-3.08352 6.33938,-4.74749 11.25973,-7.01651 l 5.31548,-2.45123 -0.58076,-1.93743 c -0.80959,-2.70076 -1.45356,-3.10565 -2.73221,-1.71784 -1.72843,1.876 -3.68,2.763 -6.78843,3.08539 -2.95992,0.30698 -4.00256,0.80102 -6.09133,2.88631 -1.84017,1.8371 -2.98974,1.47131 -6.63353,-2.11075 -3.79865,-3.73431 -4.83177,-4.12312 -6.88745,-2.59206 -2.33979,1.74267 -3.92158,4.64085 -4.21056,7.71468 -0.14571,1.54987 -0.82623,3.9892 -1.51227,5.42074 -0.68603,1.43154 -1.42881,3.65362 -1.65061,4.93797 -0.337,1.95139 -0.75061,2.64771 -2.51672,4.23696 -1.1624,1.04599 -3.31404,3.32624 -4.78143,5.06721 -3.83964,4.55553 -5.3224,5.74818 -8.78012,7.06227 -3.29498,1.25223 -2.78122,1.38016 2.25559,0.56163 4.7181,-0.76673 6.49702,0.13444 10.02049,5.07621 2.16401,3.03508 2.28951,3.72598 1.02386,5.63648 -0.507,0.76532 -1.08639,2.77483 -1.28755,4.46558 -0.20114,1.69076 -1.02081,4.60387 -1.82148,6.47359 l -1.45577,3.39949 1.3841,-2.03148 c 0.76125,-1.11731 1.83982,-2.19735 2.39682,-2.40008 1.09559,-0.39876 4.26284,0.94852 4.63526,1.97174 0.18334,0.50373 0.39885,0.39744 1.22072,-0.60209 0.54894,-0.6676 1.34685,-1.78449 1.77313,-2.48197 z"
                       id="path4522" />
                    <path
                       style="fill:#d16eff;fill-opacity:1;stroke:#000000;stroke-width:0;stroke-linecap:butt;stroke-linejoin:round;stroke-miterlimit:4;stroke-dasharray:none;stroke-dashoffset:0;stroke-opacity:1;paint-order:normal"
                       d="m 291.7651,464.96418 c 0.95938,-1.30007 3.8213,-4.47892 6.35983,-7.06411 5.14836,-5.243 5.59073,-6.16366 4.68784,-9.75624 -0.49788,-1.98107 -0.81514,-2.47168 -2.31733,-3.58343 -2.11461,-1.56499 -3.15224,-3.3398 -3.48002,-5.95235 -0.27569,-2.19749 0.0425,-2.06388 -4.49098,-1.88586 -2.00476,0.0787 -2.27512,0.18983 -3.32308,1.36554 -3.01559,3.38321 -5.18263,4.57406 -13.11631,7.20779 -6.92847,2.30003 -7.69194,2.64054 -10.06519,4.48899 -1.41243,1.10009 -2.76116,2.50274 -2.9972,3.11701 -0.43061,1.12066 -0.12673,2.80583 0.46888,2.60019 0.17501,-0.0604 1.38483,0.34046 2.68853,0.89085 1.58654,0.66978 3.26346,0.93869 5.0711,0.81318 2.21732,-0.15396 3.25792,0.0942 5.81383,1.38654 2.9653,1.49933 12.00015,7.80642 12.27862,8.57152 0.22162,0.60889 0.60788,0.25802 2.42148,-2.19962 z"
                       id="path4520" />
                    <path
                       style="fill:#d16eff;fill-opacity:1;stroke:#000000;stroke-width:0;stroke-linecap:butt;stroke-linejoin:round;stroke-miterlimit:4;stroke-dasharray:none;stroke-dashoffset:0;stroke-opacity:1;paint-order:normal"
                       d="m 264.4277,448.20948 c 2.54897,-2.09309 2.9988,-2.30145 10.92297,-5.05951 7.96932,-2.77378 8.34127,-2.94679 10.41353,-4.84385 2.8223,-2.58368 2.70135,-3.79805 -0.41605,-4.17725 -1.18512,-0.14415 -2.76163,-0.57132 -3.50337,-0.94926 -1.18776,-0.60521 -1.56264,-0.57082 -3.14321,0.28838 -1.66429,0.90471 -1.95281,0.91132 -3.97309,0.0911 -3.33532,-1.35405 -4.65087,-0.93603 -8.60785,2.73519 -1.84476,1.71155 -3.95815,3.57942 -4.69642,4.15083 -2.64481,2.04707 -3.29324,6.27722 -1.35176,8.81842 0.5742,0.75158 1.19088,1.31304 1.3704,1.2477 0.17952,-0.0653 1.5227,-1.10114 2.98485,-2.30179 z"
                       id="path4510" />
                    <path
                       style="fill:#7272ff;fill-opacity:1;stroke:#000000;stroke-width:0;stroke-linecap:butt;stroke-linejoin:round;stroke-miterlimit:4;stroke-dasharray:none;stroke-dashoffset:0;stroke-opacity:1;paint-order:normal"
                       d="m 351.51251,460.46592 c 1.18125,-1.34915 2.73486,-2.6667 3.45248,-2.92789 1.63784,-0.59613 2.33706,-2.50672 1.86257,-5.08936 -0.25036,-1.36274 -0.51055,-1.86611 -0.95825,-1.85387 -1.29306,0.0353 -5.31563,-1.98334 -6.8503,-3.43772 -1.3332,-1.26346 -1.93871,-1.49707 -3.589,-1.3847 -2.27174,0.15468 -7.22572,-0.96943 -8.22804,-1.86703 -1.71208,-1.5332 -2.72644,-7.48034 -1.90307,-11.15663 0.23036,-1.02842 0.81933,-2.66027 1.30882,-3.62633 1.09893,-2.16881 1.33993,-3.81852 0.84427,-5.77907 -0.36613,-1.44818 -0.45324,-1.49685 -2.18722,-1.22211 -4.27725,0.6777 -8.31398,1.04302 -9.66029,0.87423 -1.32607,-0.16625 -1.55228,-0.062 -2.65816,1.22448 -0.66481,0.7734 -2.15196,2.21181 -3.30478,3.19645 -1.15283,0.98464 -2.15939,2.23227 -2.2368,2.77251 -0.0774,0.54024 0.26539,2.67173 0.7618,4.73664 0.49641,2.06492 0.9221,5.26429 0.94599,7.10969 0.0532,4.10898 0.57271,4.99108 3.89418,6.61203 1.8361,0.89606 2.82518,1.72001 3.59025,2.99087 0.58079,0.96475 2.18227,2.84831 3.55884,4.1857 1.96842,1.91239 3.06593,2.58355 5.1398,3.14314 1.45033,0.39134 3.95325,1.36427 5.56206,2.16208 3.11146,1.54297 6.5788,2.45228 7.77896,2.04002 0.40049,-0.13756 1.69464,-1.35398 2.87589,-2.70313 z"
                       id="path4502" />
                    <path
                       style="fill:#7272ff;fill-opacity:1;stroke:#000000;stroke-width:0;stroke-linecap:butt;stroke-linejoin:round;stroke-miterlimit:4;stroke-dasharray:none;stroke-dashoffset:0;stroke-opacity:1;paint-order:normal"
                       d="m 356.29577,445.91618 c -0.0905,-1.36533 0.0614,-2.90873 0.33746,-3.42979 0.27605,-0.52106 2.0579,-2.41315 3.95966,-4.20463 1.90175,-1.79149 3.76816,-3.8619 4.14759,-4.60092 0.38192,-0.74388 0.60975,-2.55277 0.5104,-4.05235 -0.23115,-3.48894 0.66572,-5.39585 3.35743,-7.13855 3.04591,-1.97201 11.18514,-5.40253 14.05677,-5.92465 2.932,-0.53309 4.89877,-2.07321 5.40693,-4.23403 0.54961,-2.33707 -1.62014,-4.28809 -8.52966,-7.66977 -9.26733,-4.53565 -12.03374,-6.12271 -12.39056,-7.10835 -0.47066,-1.2997 0.0887,-3.4596 2.02288,-7.81327 1.25755,-2.83056 2.10762,-4.09759 3.36152,-5.01032 0.92307,-0.67192 1.72298,-1.28468 1.77756,-1.36169 0.0546,-0.077 -0.87884,-1.01805 -2.07429,-2.0912 -1.19544,-1.07315 -2.25843,-2.18443 -2.3622,-2.46951 -0.10376,-0.28508 -1.16427,-0.44397 -2.35669,-0.35308 -1.19241,0.0909 -2.97445,-0.14889 -3.96008,-0.53285 l -1.79204,-0.69809 0.46928,4.24827 c 0.96846,8.76718 0.50077,9.73159 -6.10401,12.5866 -4.20565,1.81795 -5.03386,2.45089 -6.86962,5.24997 l -1.01156,1.54237 2.83601,2.48629 c 2.29529,2.01226 2.98928,2.90743 3.63996,4.69513 1.05228,2.89114 2.66031,19.60124 2.15421,22.38588 -0.52882,2.90969 -2.92217,7.16738 -5.70939,10.15685 -1.44762,1.55267 -2.22315,2.74765 -2.06506,3.18198 0.40849,1.12233 3.52435,3.47702 5.43379,4.10637 0.97008,0.31974 1.79852,0.57109 1.84098,0.55855 0.0425,-0.0126 0.003,-1.13989 -0.0873,-2.50521 z"
                       id="path4500" />
                    <path
                       style="fill:#7272ff;fill-opacity:1;stroke:#000000;stroke-width:0;stroke-linecap:butt;stroke-linejoin:round;stroke-miterlimit:4;stroke-dasharray:none;stroke-dashoffset:0;stroke-opacity:1;paint-order:normal"
                       d="m 347.01039,442.36446 c 0.11115,-0.52356 1.11989,-1.87914 2.24165,-3.0124 2.38199,-2.40642 4.89897,-6.64099 5.40902,-9.10013 0.45281,-2.18318 -1.03279,-18.73691 -1.91288,-21.31476 -0.46663,-1.3668 -1.12469,-2.28534 -2.24942,-3.13978 -0.87441,-0.66428 -2.01024,-1.65039 -2.52406,-2.19137 -0.76504,-0.80545 -1.10428,-0.86852 -1.87306,-0.34822 -1.21109,0.81964 -7.13722,0.68964 -8.54911,-0.18755 -1.24841,-0.77561 -1.21173,-1.22996 -0.54484,6.74889 0.31918,3.81881 0.93501,7.46479 1.70963,10.12176 1.42096,4.87395 1.4052,7.37386 -0.0641,10.16738 -0.57679,1.09664 -1.14762,2.79125 -1.26851,3.7658 -0.29413,2.37115 0.15433,6.86923 0.77428,7.76605 0.81413,1.17773 6.19972,2.35688 8.21155,1.79788 0.24077,-0.0669 0.5287,-0.54999 0.63984,-1.07355 z"
                       id="path4496" />
                    <path
                       style="fill:#8bffe8;fill-opacity:1;stroke:#000000;stroke-width:0;stroke-linecap:butt;stroke-linejoin:round;stroke-miterlimit:4;stroke-dasharray:none;stroke-dashoffset:0;stroke-opacity:1;paint-order:normal"
                       d="m 463.51785,381.44742 c 0.17361,-0.48515 0.37009,-1.36246 0.43661,-1.94958 0.0665,-0.58712 1.53528,-2.68621 3.26392,-4.66462 1.72863,-1.97842 3.29641,-3.94577 3.48394,-4.37188 0.18753,-0.42612 0.16685,-2.79227 -0.046,-5.25813 -0.38438,-4.45397 -0.39737,-4.4969 -1.97976,-6.54627 -1.18964,-1.54071 -1.91374,-2.07839 -2.86057,-2.1241 -0.69725,-0.0337 -1.94168,-0.5008 -2.7654,-1.03811 -1.32284,-0.86288 -1.661,-1.42486 -2.89678,-4.81422 -0.8937,-2.45147 -1.6735,-3.99771 -2.15889,-4.28145 -0.51415,-0.30057 -1.98462,-0.10144 -4.54848,0.61596 -2.08379,0.58307 -4.64467,1.24697 -5.69085,1.47533 -2.30924,0.50408 -3.02559,1.57881 -3.21026,4.81628 -0.15722,2.75637 -1.21125,5.21598 -2.42447,5.65756 -1.54231,0.56135 -4.0829,-1.26222 -8.95237,-6.42581 -2.53783,-2.6911 -4.79241,-4.75287 -5.0102,-4.58171 -0.21778,0.17115 -0.53526,1.10923 -0.70552,2.08462 -0.40519,2.32139 -4.75497,10.95349 -7.28118,14.44944 -1.09368,1.51352 -2.7719,4.28239 -3.72937,6.15304 -0.95748,1.87066 -2.89596,4.65543 -4.30775,6.1884 -4.34659,4.71967 -5.94682,9.48962 -5.14357,15.33192 0.19722,1.43438 0.24467,1.4631 1.60966,0.97406 1.82289,-0.65306 7.13431,-1.36871 17.44718,-2.35073 4.56902,-0.43508 8.95179,-1.08665 9.73951,-1.44793 1.28631,-0.58997 1.46516,-0.93642 1.75575,-3.40096 0.3628,-3.07712 0.95742,-4.72474 2.65839,-7.36612 0.798,-1.2392 1.25732,-2.90969 1.45895,-5.30614 0.40619,-4.82758 0.97785,-5.75156 5.44178,-8.79574 4.30678,-2.937 6.69625,-3.70859 8.37007,-2.70281 1.55322,0.93331 1.99979,2.59993 2.44627,9.12964 0.44675,6.53367 1.57313,10.01502 3.58417,11.07781 1.3151,0.69499 1.60475,0.61914 2.01518,-0.52775 z"
                       id="path4492" />
                    <path
                       style="fill:#ff9141;fill-opacity:1;stroke:#000000;stroke-width:0;stroke-linecap:butt;stroke-linejoin:round;stroke-miterlimit:4;stroke-dasharray:none;stroke-dashoffset:0;stroke-opacity:1;paint-order:normal"
                       d="m 199.94474,466.80129 c -0.13915,-4.39756 0.0872,-5.83087 1.32571,-8.39541 1.08806,-2.25296 1.61875,-5.66028 1.10823,-7.11538 -0.15428,-0.43974 -1.2853,-1.31882 -2.51336,-1.95351 -1.52336,-0.78732 -2.89809,-2.01086 -4.32649,-3.8507 -1.15151,-1.48319 -2.21278,-2.65335 -2.35839,-2.60035 -0.1456,0.053 -0.59481,0.86113 -0.99824,1.79587 -1.35429,3.13782 -4.33147,3.43567 -9.32922,0.93333 -4.61027,-2.30833 -6.43198,-4.91961 -6.79946,-9.74647 -0.0682,-0.89597 -0.24031,-0.98693 -1.20384,-0.63624 -1.68571,0.61355 -3.04524,2.31463 -5.09753,6.37818 -1.01837,2.01637 -2.19555,4.05024 -2.61595,4.51969 -0.8761,0.97832 -10.6646,4.74001 -13.91638,5.34803 -1.86052,0.34788 -2.09567,0.50827 -2.4022,1.63843 -0.18688,0.68904 -0.27621,2.5656 -0.19851,4.17012 0.0777,1.60452 0.0546,3.58991 -0.0514,4.41197 -0.26312,2.04142 0.0295,2.6301 1.40531,2.82725 0.64579,0.0926 1.6932,0.59504 2.32758,1.11666 0.92952,0.76431 1.50327,0.84945 2.95591,0.43863 l 1.80252,-0.50977 1.75288,2.63243 c 1.83641,2.75786 2.53912,3.18747 4.22798,2.58484 0.94153,-0.33596 4.20097,-3.00267 6.89146,-5.63822 2.29886,-2.25193 8.23403,-3.36184 13.15496,-2.46005 2.80814,0.51461 6.01867,2.04556 8.19023,3.90553 1.94996,1.67018 6.23145,4.06742 6.54803,3.6663 0.12146,-0.15388 0.17552,-1.71141 0.12015,-3.46116 z"
                       id="path4490" />
                    <path
                       style="fill:#7272ff;fill-opacity:1;stroke:#000000;stroke-width:0;stroke-linecap:butt;stroke-linejoin:round;stroke-miterlimit:4;stroke-dasharray:none;stroke-dashoffset:0;stroke-opacity:1;paint-order:normal"
                       d="m 335.95236,418.10655 c -0.55735,-1.53132 -1.37819,-9.18036 -1.53393,-14.29419 l -0.11037,-3.62365 -2.62328,-2.56115 c -2.73087,-2.66618 -3.96279,-3.3866 -5.63647,-3.29617 -0.9458,0.0511 -0.93994,0.24219 0.12493,4.07497 1.13599,4.08882 1.68856,10.22619 1.09468,12.15861 -0.1801,0.58602 -0.23096,1.35269 -0.11301,1.70371 0.63808,1.89906 0.40856,4.556 -0.563,6.51725 l -1.0733,2.16663 2.44411,-0.18543 c 3.1272,-0.23726 6.26437,-0.68362 7.49545,-1.06647 0.80121,-0.24916 0.88516,-0.51995 0.49419,-1.59411 z"
                       id="path4488" />
                    <path
                       style="fill:#8bffe8;fill-opacity:1;stroke:#000000;stroke-width:0;stroke-linecap:butt;stroke-linejoin:round;stroke-miterlimit:4;stroke-dasharray:none;stroke-dashoffset:0;stroke-opacity:1;paint-order:normal"
                       d="m 404.77626,392.01514 c -0.80167,-6.57889 1.03561,-11.82706 6.0662,-17.328 1.42227,-1.55526 3.03925,-3.83745 3.59328,-5.07156 l 1.00734,-2.24382 -2.18137,0.22413 c -1.19975,0.12328 -3.11841,0.0589 -4.26368,-0.14312 -1.14527,-0.20199 -5.39184,-0.0487 -9.43684,0.34073 -7.70153,0.74139 -7.84382,0.73195 -11.00495,-0.72956 -2.61895,-1.21084 -7.5668,-1.60538 -10.59349,-0.84471 -2.16897,0.54511 -2.52769,0.77421 -3.15678,2.01615 -0.39035,0.77064 -0.73957,2.1641 -0.77604,3.09658 -0.0365,0.93249 -0.61424,2.68091 -1.28393,3.88539 l -1.21764,2.18997 2.53502,2.4638 c 2.39055,2.32338 2.61524,2.4346 3.94259,1.95148 1.86856,-0.6801 2.39221,0.0125 2.70968,3.58413 0.32334,3.63761 1.12452,5.77886 2.74073,7.32491 1.07083,1.02434 1.45242,1.12337 2.47948,0.64355 0.66764,-0.31191 3.0075,-1.27099 5.19969,-2.13129 4.52423,-1.77548 6.50905,-1.74431 7.18499,0.11283 0.49362,1.35622 -0.64078,3.07386 -3.55697,5.38573 -1.31381,1.04155 -2.35984,1.97312 -2.32452,2.07017 0.0353,0.097 2.89146,-0.85258 6.34697,-2.11028 l 6.28275,-2.28674 z"
                       id="path4486" />
                    <path
                       style="fill:#79ff76;fill-opacity:1;stroke:#000000;stroke-width:0;stroke-linecap:butt;stroke-linejoin:round;stroke-miterlimit:4;stroke-dasharray:none;stroke-dashoffset:0;stroke-opacity:1;paint-order:normal"
                       d="m 502.09292,357.33145 c 0.31385,-0.58506 0.76859,-1.9622 1.01059,-3.06031 0.48917,-2.21955 2.76882,-4.7289 7.97448,-8.77807 3.31253,-2.57661 3.6666,-3.32115 3.39133,-7.13141 -0.62186,-8.60719 -0.71141,-16.16657 -0.20785,-17.5442 0.68093,-1.86285 1.52098,-2.64696 5.85651,-5.46646 1.80511,-1.1739 3.77168,-2.56014 4.37017,-3.08053 l 1.08816,-0.94616 -1.46368,-0.0856 c -1.85975,-0.10873 -3.87013,-1.14662 -6.14922,-3.17471 -2.66999,-2.37588 -5.26488,-2.58565 -9.68734,-0.7831 -3.12258,1.27275 -3.48456,1.5402 -4.61905,3.41284 -2.46481,4.06852 -5.42625,4.29574 -11.33233,0.8695 -2.08638,-1.21036 -4.71276,-2.34498 -5.83637,-2.52139 l -2.04298,-0.32073 1.2873,2.20518 c 1.20916,2.07147 3.26702,9.22115 3.47954,12.08928 0.0682,0.92088 0.19432,0.92355 2.04115,0.0431 2.5673,-1.2239 5.39792,-1.44148 7.28785,-0.56017 1.89589,0.88407 2.38598,2.17194 1.62194,4.2622 -0.59869,1.6379 -4.34567,6.52102 -5.91898,7.71371 -1.17289,0.88915 -1.29839,2.60306 -0.6915,9.44366 0.65611,7.3951 2.89448,15.43314 4.38168,15.73472 1.20193,0.24371 3.45834,-1.01584 4.1586,-2.32138 z"
                       id="path4484" />
                    <path
                       style="fill:#ff9141;fill-opacity:1;stroke:#000000;stroke-width:0;stroke-linecap:butt;stroke-linejoin:round;stroke-miterlimit:4;stroke-dasharray:none;stroke-dashoffset:0;stroke-opacity:1;paint-order:normal"
                       d="m 222.32007,446.00845 c 1.87369,-2.19697 2.04493,-2.29708 7.19945,-4.20917 3.9262,-1.45643 5.53753,-2.24362 6.28408,-3.0699 0.55219,-0.61118 1.60986,-1.78535 2.35037,-2.60927 1.95975,-2.18046 5.38036,-3.34295 7.70322,-2.61794 2.36484,0.73811 2.94084,0.43805 3.34677,-1.74338 l 0.34312,-1.84392 -3.1204,-4.60422 c -1.71621,-2.53232 -3.4486,-5.50595 -3.84974,-6.60807 -0.4105,-1.12786 -1.4448,-2.74832 -2.36598,-3.70683 -1.35807,-1.41311 -1.77664,-2.21802 -2.45923,-4.72902 -0.98372,-3.61875 -1.62025,-4.28792 -3.74508,-3.93712 -0.88471,0.14606 -3.83639,0.42152 -6.55928,0.61213 -6.01538,0.42108 -6.01813,0.42317 -9.44881,7.20606 -3.63355,7.18397 -5.76239,8.91518 -11.38058,9.25489 -2.3867,0.14432 -2.53528,0.21324 -5.48732,2.54521 -4.40191,3.47729 -7.07879,7.70596 -7.64142,12.07113 -0.19358,1.50185 -0.11596,1.67827 1.48752,3.38123 0.93047,0.98819 2.25505,2.55106 2.94352,3.47305 0.68847,0.922 1.81803,1.96224 2.51013,2.31167 l 1.25837,0.63532 1.12727,-1.56079 c 2.63282,-3.64534 7.98403,-3.35235 11.12071,0.60889 2.53175,3.19728 5.15235,2.92847 8.38331,-0.85995 z"
                       id="path4480" />
                    <path
                       style="fill:#7272ff;fill-opacity:1;stroke:#000000;stroke-width:0;stroke-linecap:butt;stroke-linejoin:round;stroke-miterlimit:4;stroke-dasharray:none;stroke-dashoffset:0;stroke-opacity:1;paint-order:normal"
                       d="m 345.5136,401.08138 c -0.0367,-0.10086 -0.443,-0.61902 -0.90287,-1.15147 -1.38369,-1.60207 -5.2471,-7.89223 -6.58354,-10.7189 -0.88569,-1.8733 -1.29646,-3.39083 -1.40386,-5.18647 -0.17678,-2.95539 -1.11483,-5.76579 -2.63891,-7.9062 -1.16142,-1.63109 -1.80949,-1.94892 -3.06535,-1.50331 -1.53235,0.54369 -5.32122,-0.23287 -7.147,-1.46487 -1.48757,-1.00378 -1.94888,-1.61115 -2.41517,-3.1798 -0.7129,-2.39831 -1.98202,-4.37278 -2.82,-4.38731 -0.86337,-0.015 -2.08556,1.39917 -3.1035,3.59092 -0.97156,2.09188 -1.64245,2.48011 -3.02406,1.74996 -1.87829,-0.99262 -2.92572,-3.84675 -3.05149,-8.315 l -0.11487,-4.08053 -1.28261,-0.44161 c -1.88326,-0.64842 -2.59223,-0.19934 -4.63252,2.93437 -1.01216,1.55458 -2.65915,3.61214 -3.65999,4.57235 l -1.8197,1.74584 1.76314,1.2513 c 5.58336,3.96249 6.06719,4.38572 6.55922,5.73754 0.42145,1.15792 0.27619,1.82268 -0.80608,3.68911 -0.72609,1.25217 -1.24323,2.48804 -1.14921,2.74637 0.27735,0.76201 2.53332,1.4812 4.79043,1.52715 4.40965,0.0898 7.42022,1.92254 10.78311,6.56454 1.87866,2.59323 3.58667,3.51974 6.0905,3.30379 2.57331,-0.22193 4.31269,0.82034 8.96608,5.37263 l 4.0912,4.00232 2.56524,0.0823 c 2.46046,0.079 4.15313,-0.14678 4.01181,-0.53504 z"
                       id="path4474" />
                    <path
                       style="fill:#79ff76;fill-opacity:1;stroke:#000000;stroke-width:0;stroke-linecap:butt;stroke-linejoin:round;stroke-miterlimit:4;stroke-dasharray:none;stroke-dashoffset:0;stroke-opacity:1;paint-order:normal"
                       d="m 488.9297,346.68908 c 0.92392,-1.8112 0.55911,-3.39221 -1.41945,-6.15124 -2.35421,-3.28284 -3.36379,-5.42965 -3.52952,-7.50526 -0.12946,-1.62171 -0.20929,-1.7197 -1.43319,-1.75811 -0.71282,-0.0224 -2.52075,0.43199 -4.01759,1.00971 -1.69281,0.65339 -4.68484,1.2728 -7.91569,1.63876 l -5.19418,0.58835 -0.37233,1.21574 c -0.6489,2.11885 -2.15333,3.73181 -4.17034,4.47119 -1.16646,0.42742 -2.32258,1.22891 -3.00491,2.08269 -1.10347,1.38074 -1.10336,1.38926 0.0212,1.69077 2.07713,0.5569 3.3601,2.14403 3.95604,4.89393 0.29599,1.36578 0.72462,2.84513 0.95252,3.28744 0.39134,0.75952 3.18478,2.44475 3.68236,2.2215 0.12709,-0.057 0.32998,-1.20596 0.45088,-2.55321 0.25101,-2.79718 2.08673,-5.43398 4.75634,-6.83196 3.16513,-1.65745 10.18145,-2.07507 11.39542,-0.67826 0.28165,0.3241 0.76889,1.29477 1.08274,2.15707 0.31385,0.86228 0.8812,1.71261 1.26078,1.88961 1.06036,0.49446 2.82468,-0.34699 3.4989,-1.66872 z"
                       id="path4472" />
                    <path
                       style="fill:#7272ff;fill-opacity:1;stroke:#000000;stroke-width:0;stroke-linecap:butt;stroke-linejoin:round;stroke-miterlimit:4;stroke-dasharray:none;stroke-dashoffset:0;stroke-opacity:1;paint-order:normal"
                       d="m 350.0804,394.60521 c 0.39181,-0.36664 2.61575,-1.48415 4.94209,-2.48335 5.84473,-2.51041 5.87137,-2.57875 4.77558,-12.25512 -0.91416,-8.07252 -1.61573,-10.631 -3.56517,-13.00143 -0.69331,-0.84303 -1.73631,-2.47807 -2.31779,-3.63342 -0.58147,-1.15535 -1.69865,-3.00387 -2.48263,-4.10784 l -1.4254,-2.0072 -0.85587,1.20452 c -1.30828,1.84124 -7.37318,8.51392 -7.919,8.71258 -0.26535,0.0966 -1.83319,1.47303 -3.48411,3.05878 -2.79732,2.68691 -2.95824,2.94865 -2.36388,3.84483 1.73282,2.61275 3.27585,6.77089 3.42379,9.2264 0.0841,1.39588 0.41551,3.25947 0.73648,4.14133 0.55148,1.51517 6.16197,10.85444 6.84418,11.39289 0.17518,0.13826 0.91719,-0.57611 1.64892,-1.58749 0.73173,-1.01137 1.65099,-2.13884 2.04281,-2.50548 z"
                       id="path4470" />
                    <path
                       style="fill:#ff9141;fill-opacity:1;stroke:#000000;stroke-width:0;stroke-linecap:butt;stroke-linejoin:round;stroke-miterlimit:4;stroke-dasharray:none;stroke-dashoffset:0;stroke-opacity:1;paint-order:normal"
                       d="m 269.68327,425.1534 c 1.02512,-2.39164 2.04332,-3.54157 4.78887,-5.40842 1.36844,-0.93047 3.61672,-2.84199 4.99619,-4.24781 l 2.50812,-2.55604 -1.26909,-1.54315 c -4.51041,-5.48444 -5.83761,-14.41533 -2.9125,-19.59857 l 1.10973,-1.96644 -1.7056,0.28749 c -0.93809,0.15812 -2.58782,0.23075 -3.66606,0.16141 -1.80461,-0.11606 -2.67784,-0.507 -6.79192,-3.04071 l -1.44308,-0.88874 -2.9896,1.96121 c -2.8791,1.88872 -3.09178,1.96684 -5.75454,2.11363 -4.28591,0.23624 -7.23864,2.05654 -11.21186,6.91191 -1.71344,2.09387 -4.03571,4.61258 -5.16058,5.59714 l -2.04524,1.7901 0.74224,2.15252 c 0.40826,1.18388 0.95043,2.82883 1.20488,3.65543 0.25444,0.8266 1.16513,2.21418 2.02376,3.0835 0.97996,0.99218 1.88714,2.46558 2.43686,3.95782 0.72306,1.96287 6.32148,10.8041 6.93634,10.95417 0.0996,0.0243 1.40681,-0.0216 2.90498,-0.102 2.5038,-0.13436 2.78698,-0.23056 3.50411,-1.19035 1.03962,-1.39139 2.7791,-1.53143 4.5233,-0.36415 1.64328,1.09973 2.75943,1.19917 4.95347,0.44127 1.26338,-0.43638 1.78741,-0.92516 2.31721,-2.1612 z"
                       id="path4468" />
                    <path
                       style="fill:#8bffe8;fill-opacity:1;stroke:#000000;stroke-width:0;stroke-linecap:butt;stroke-linejoin:round;stroke-miterlimit:4;stroke-dasharray:none;stroke-dashoffset:0;stroke-opacity:1;paint-order:normal"
                       d="m 442.40975,352.34888 c 0.4233,-4.38573 2.32805,-6.1604 7.10903,-6.62356 4.00554,-0.38804 4.90494,-0.7048 4.86286,-1.71265 -0.0577,-1.38264 2.41705,-4.07978 4.91329,-5.35473 2.57136,-1.31331 3.60634,-2.57007 3.68974,-4.4804 0.10624,-2.43309 -1.85584,-3.79877 -7.60025,-5.29005 -3.19512,-0.82947 -5.93795,-1.90734 -7.74378,-3.04314 l -2.79627,-1.75872 -1.13035,2.13451 c -1.06426,2.00968 -1.26137,2.16653 -3.37041,2.68204 -1.23203,0.30115 -4.19382,0.67834 -6.58175,0.8382 -2.48436,0.16631 -4.4312,0.50424 -4.55092,0.78994 -0.11508,0.27461 0.0728,2.49448 0.41747,4.93304 0.34469,2.43856 0.5305,5.75361 0.4129,7.36677 l -0.21381,2.93303 4.8112,5.05717 c 2.64615,2.78145 5.22855,5.28055 5.73867,5.55356 1.2618,0.67531 1.65359,-0.10062 2.03238,-4.02501 z"
                       id="path4460" />
                    <path
                       style="fill:#8bffe8;fill-opacity:1;stroke:#000000;stroke-width:0;stroke-linecap:butt;stroke-linejoin:round;stroke-miterlimit:4;stroke-dasharray:none;stroke-dashoffset:0;stroke-opacity:1;paint-order:normal"
                       d="m 419.45574,361.52432 c 1.09421,-1.68391 2.88312,-5.18013 3.97536,-7.76936 5.107,-12.10653 4.88513,-11.03238 3.87616,-18.76603 -0.90472,-6.93448 -0.84811,-6.99611 6.91144,-7.52648 5.72021,-0.39098 6.47478,-0.6191 7.49663,-2.26646 1.23962,-1.99841 0.94917,-2.83828 -1.67532,-4.84436 -3.14257,-2.40209 -4.31141,-4.70187 -4.46054,-8.77644 -0.16169,-4.41789 -0.64536,-6.5664 -1.5617,-6.93729 -0.41757,-0.16901 -1.88602,-0.47003 -3.26322,-0.66893 -4.37861,-0.6324 -6.90433,-3.52072 -6.53202,-7.46977 0.22322,-2.36776 1.27953,-4.15811 4.85925,-8.23601 1.76372,-2.00917 3.30145,-3.8382 3.41716,-4.06452 0.11572,-0.22631 -0.39792,-1.25281 -1.14142,-2.28112 -0.74349,-1.0283 -1.75547,-2.57481 -2.24884,-3.43669 -1.65908,-2.89832 -4.03045,-4.51844 -5.71578,-3.90503 -0.58831,0.21413 -1.84331,1.83685 -3.11254,4.02451 -3.02909,5.22099 -3.63073,5.78682 -7.54782,7.09838 -1.82218,0.61013 -3.62372,1.45623 -4.00342,1.88023 -0.89077,0.9947 -2.94034,0.58277 -3.85976,-0.77575 -0.79268,-1.17124 -1.79441,-0.87306 -3.50971,1.04471 -0.69657,0.77879 -1.68028,1.56659 -2.18602,1.75067 -1.693,0.6162 -2.83489,5.5865 -2.27458,9.90061 0.79729,6.13869 0.85173,10.7722 0.1378,11.7277 -0.58163,0.77844 -0.57679,1.52682 0.0251,3.8838 0.77674,3.0416 1.5655,10.30338 1.4312,13.17635 -0.11605,2.48242 -1.43234,5.45008 -3.30336,7.44762 -2.1185,2.26175 -1.82606,3.23835 1.74056,5.81258 3.46821,2.5032 6.56021,6.96219 7.67726,11.07141 0.64736,2.38142 1.07712,8.1299 0.86473,11.56681 -0.0473,0.76503 2.45308,1.14835 7.491,1.14841 3.57385,5e-5 4.28993,-0.42013 6.49239,-3.80955 z"
                       id="path4458" />
                    <path
                       style="fill:#ff9141;fill-opacity:1;stroke:#000000;stroke-width:0;stroke-linecap:butt;stroke-linejoin:round;stroke-miterlimit:4;stroke-dasharray:none;stroke-dashoffset:0;stroke-opacity:1;paint-order:normal"
                       d="m 190.7751,440.14936 c 0.54942,-3.91276 2.22616,-8.56211 4.07151,-11.28966 0.68067,-1.00609 2.88581,-3.09285 4.90031,-4.63723 3.6191,-2.77453 3.69297,-2.80997 6.20355,-2.97631 5.23504,-0.34683 6.67236,-1.45741 9.71485,-7.50645 2.55079,-5.07144 3.84664,-7.00723 5.28181,-7.89021 0.74864,-0.46059 2.9933,-0.87228 6.22865,-1.14239 2.78202,-0.23226 4.75678,-0.56286 4.38835,-0.73466 -0.9472,-0.44169 -2.04007,-3.70793 -1.81776,-5.43273 0.22377,-1.7361 1.64592,-4.03463 3.60403,-5.82493 1.6779,-1.53412 2.66826,-3.33037 2.92839,-5.31134 0.26384,-2.00929 -0.29327,-2.39954 -2.98677,-2.09219 -3.78164,0.43153 -5.62687,-0.99187 -4.63771,-3.57748 0.55685,-1.45558 0.31293,-1.65225 -1.97421,-1.59182 -2.39137,0.0632 -3.47704,0.59664 -4.80906,2.36301 -0.66047,0.87583 -2.47248,2.52646 -4.02671,3.66806 -3.9491,2.90068 -5.25764,4.43396 -6.98455,8.18418 -1.1907,2.58578 -2.5935,4.44634 -6.7539,8.95785 -4.90286,5.31662 -6.10698,6.80315 -11.09097,13.69219 -1.04837,1.44908 -2.94736,3.90656 -4.22,5.46106 -1.27262,1.5545 -3.50051,4.54552 -4.95086,6.64672 -1.59605,2.31231 -3.21536,4.14209 -4.10219,4.63539 -1.27561,0.70955 -1.45201,1.04245 -1.36322,2.57256 0.13403,2.30939 0.53461,3.33233 1.87364,4.78462 1.34158,1.45505 5.09719,3.50656 7.19356,3.9295 2.09405,0.42246 2.71073,-0.48291 3.32926,-4.88774 z"
                       id="path4454" />
                    <path
                       style="fill:#8bffe8;fill-opacity:1;stroke:#000000;stroke-width:0;stroke-linecap:butt;stroke-linejoin:round;stroke-miterlimit:4;stroke-dasharray:none;stroke-dashoffset:0;stroke-opacity:1;paint-order:normal"
                       d="m 403.297,361.62928 c 0.1573,-4.78806 -0.31378,-7.75316 -1.71309,-10.78263 -1.61396,-3.49417 -3.15448,-5.36157 -6.49047,-7.86763 -4.07133,-3.05848 -4.637,-5.42915 -1.96968,-8.25471 1.87465,-1.98587 2.7244,-3.63658 2.99174,-5.8117 0.33557,-2.73034 -0.15841,-8.35456 -1.12349,-12.79131 l -0.88007,-4.04594 -7.24206,0.67512 c -3.98313,0.37131 -7.80817,0.88116 -8.5001,1.133 -0.7757,0.28233 -1.77172,1.25665 -2.59785,2.54126 -1.74395,2.7118 -2.61569,3.65392 -3.76953,4.07389 -1.04403,0.37999 -2.88884,-0.20374 -3.18103,-1.00654 -0.1032,-0.28353 -0.54378,-0.64295 -0.97907,-0.79873 -0.65875,-0.23574 -0.76079,0.0518 -0.60861,1.71496 0.28473,3.1118 -0.46314,6.19732 -1.96261,8.09725 -0.75397,0.95533 -1.55123,2.26139 -1.7717,2.90236 -0.58498,1.70072 0.51338,4.28166 2.48716,5.84441 2.33879,1.85173 3.07641,4.08445 2.02958,6.14339 -1.2539,2.46621 -3.20833,3.67583 -8.38531,5.18977 -4.31884,1.26299 -4.60192,1.40805 -6.40964,3.28461 -1.04019,1.0798 -1.89671,2.27818 -1.90338,2.66307 -0.007,0.38489 0.52866,1.35737 1.1896,2.16107 0.66096,0.8037 1.90782,2.79377 2.77079,4.42238 0.86297,1.6286 1.97878,3.43391 2.47959,4.01179 0.5008,0.57788 1.62734,2.8849 2.50342,5.12671 1.30729,3.34522 1.82229,4.22796 2.8724,4.92344 1.35264,0.89583 4.16855,1.40579 5.43321,0.98395 1.5108,-0.50395 3.22715,-3.51481 3.26191,-5.7221 0.0829,-5.26545 4.87444,-7.65641 13.21223,-6.59283 1.83376,0.23391 4.15502,0.85626 5.15834,1.38298 1.2176,0.63921 2.63647,0.89812 4.26675,0.77857 5.3333,-0.39107 7.55586,-0.64787 8.12868,-0.93916 0.33047,-0.16806 0.64547,-1.71132 0.70229,-3.4407 z"
                       id="path4448" />
                    <path
                       style="fill:#79ff76;fill-opacity:1;stroke:#000000;stroke-width:0;stroke-linecap:butt;stroke-linejoin:round;stroke-miterlimit:4;stroke-dasharray:none;stroke-dashoffset:0;stroke-opacity:1;paint-order:normal"
                       d="m 484.70185,327.46934 c 0.64334,-0.89074 1.52271,-1.748 1.95415,-1.90503 0.46382,-0.16882 0.67707,-0.58801 0.52169,-1.02553 -0.1435,-0.40738 -0.30216,-1.19069 -0.35019,-1.74158 -0.082,-0.94026 -0.22414,-0.94812 -2.32138,-0.12831 -2.92399,1.14299 -10.48949,2.83322 -13.20013,2.94909 -2.07542,0.0887 -2.83743,-0.0662 -7.71329,-1.5677 -4.99007,-1.5367 -7.17096,2.09815 -2.55137,4.2523 1.07877,0.50304 2.437,1.59205 3.01828,2.42003 l 1.05687,1.50542 5.08001,-0.48232 c 3.43351,-0.32599 5.56554,-0.75045 6.57802,-1.3096 1.1193,-0.61814 5.54313,-1.52388 6.65402,-1.36235 0.057,0.008 0.63003,-0.71371 1.27332,-1.60442 z"
                       id="path4430" />
                    <path
                       style="fill:#79ff76;fill-opacity:1;stroke:#000000;stroke-width:0;stroke-linecap:butt;stroke-linejoin:round;stroke-miterlimit:4;stroke-dasharray:none;stroke-dashoffset:0;stroke-opacity:1;paint-order:normal"
                       d="m 521.93715,306.63474 c -7.0879,-6.19371 -7.52953,-6.74152 -9.7511,-12.09679 -1.76353,-4.25107 -1.9431,-5.03543 -2.57329,-11.23995 -0.8277,-8.14993 -0.63311,-10.32948 1.45357,-16.27958 l 1.6317,-4.65274 -1.28279,-0.67237 c -1.92468,-1.00881 -5.31435,-1.12782 -6.81532,-0.23926 -0.694,0.41084 -1.65344,1.62248 -2.13233,2.69279 -0.47883,1.07022 -1.28241,2.22454 -1.78566,2.56513 -1.22752,0.83077 -3.47834,0.48475 -5.56998,-0.85631 -1.58407,-1.01562 -1.72957,-1.02599 -1.98619,-0.14135 -0.15228,0.52502 0.0381,1.8199 0.42303,2.87752 0.69032,1.89662 2.35927,11.86339 2.46011,14.69168 0.0722,2.02412 -0.95692,3.82911 -4.72028,8.27902 -4.37766,5.17625 -6.05375,6.72704 -9.15536,8.47083 -4.98845,2.80462 -4.77224,2.27928 -1.81607,4.41289 1.98557,1.4331 3.20441,1.93425 5.20596,2.14053 3.39655,0.35004 4.42144,0.72869 7.83982,2.89646 2.87425,1.82275 5.20972,2.66213 6.30925,2.26767 0.33153,-0.11875 1.35584,-1.27433 2.2764,-2.56761 1.46974,-2.06475 2.04959,-2.51618 4.75621,-3.70273 5.4294,-2.38017 9.48941,-2.14293 12.53161,0.73227 1.61738,1.52854 4.28962,3.06679 4.92561,2.83531 0.20846,-0.0759 -0.79274,-1.16191 -2.2249,-2.41341 z"
                       id="path4422" />
                    <path
                       style="fill:#79ff76;fill-opacity:1;stroke:#000000;stroke-width:0;stroke-linecap:butt;stroke-linejoin:round;stroke-miterlimit:4;stroke-dasharray:none;stroke-dashoffset:0;stroke-opacity:1;paint-order:normal"
                       d="m 486.14446,319.27683 c 0.0557,-0.10718 -0.24004,-1.42569 -0.65721,-2.93001 -1.39933,-5.04598 -4.22158,-8.80437 -8.77488,-11.68565 -2.24057,-1.41778 -2.55037,-1.46577 -8.47534,-1.31254 -3.38238,0.0875 -6.81508,0.39743 -7.62824,0.68881 -0.81322,0.29121 -2.43386,1.40057 -3.60156,2.46487 -2.7924,2.54513 -8.59728,9.80186 -10.2484,12.81161 l -1.30926,2.38658 2.85341,1.89803 c 2.32698,1.54786 6.95927,3.36441 7.79952,3.05859 0.10701,-0.0389 0.14135,-0.58475 0.0763,-1.21288 -0.133,-1.2847 1.33945,-3.12252 2.98022,-3.71971 1.62926,-0.593 3.90382,-0.34992 6.9519,0.74296 3.27451,1.17406 5.62906,1.13727 11.15251,-0.17423 2.2876,-0.54318 4.29279,-0.92531 4.45601,-0.8492 0.29343,0.13684 4.2294,-1.79087 4.425,-2.16723 z"
                       id="path4410" />
                    <path
                       style="fill:#8bffe8;fill-opacity:1;stroke:#000000;stroke-width:0;stroke-linecap:butt;stroke-linejoin:round;stroke-miterlimit:4;stroke-dasharray:none;stroke-dashoffset:0;stroke-opacity:1;paint-order:normal"
                       d="m 335.08911,369.52863 c 1.26721,-1.36687 3.01025,-2.98102 3.87343,-3.58701 2.67973,-1.8813 7.78455,-7.96647 9.82048,-11.70645 2.52917,-4.64605 4.09581,-5.81504 10.88314,-8.12066 4.37679,-1.48678 5.20634,-1.89543 5.95805,-2.93569 1.10301,-1.52624 0.64313,-2.89072 -1.49377,-4.43208 -1.25793,-0.90735 -1.81342,-1.70245 -2.49205,-3.56696 -0.84805,-2.33 -0.9178,-2.39844 -2.41374,-2.36785 -2.29373,0.0469 -3.86534,-0.72404 -9.11749,-4.47237 -2.62058,-1.87025 -5.08973,-3.51676 -5.487,-3.65893 -0.84962,-0.30404 -3.02076,2.71596 -4.71191,6.55411 -0.57529,1.30568 -1.86528,3.51911 -2.86663,4.91874 -3.09301,4.32323 -2.97734,5.39678 1.05765,9.81646 2.04922,2.24459 3.27969,4.84015 3.25093,6.85752 -0.0356,2.49861 -2.41136,5.49097 -5.15121,6.48819 -1.65997,0.60418 -3.37625,2.29549 -3.39446,3.34505 -0.0243,1.40268 -2.78816,3.77212 -6.12817,5.25367 -2.59733,1.15211 -3.17046,1.55868 -2.96395,2.10253 0.51183,1.34799 3.23653,2.45323 6.00465,2.43575 2.54678,-0.0161 2.80782,-0.15816 5.37205,-2.92402 z"
                       id="path4400" />
                    <path
                       style="fill:#ff9141;fill-opacity:1;stroke:#000000;stroke-width:0;stroke-linecap:butt;stroke-linejoin:round;stroke-miterlimit:4;stroke-dasharray:none;stroke-dashoffset:0;stroke-opacity:1;paint-order:normal"
                       d="m 282.09741,386.24916 c 2.66764,-4.90529 1.82302,-8.56761 -3.1753,-13.76819 l -1.89962,-1.97648 -1.97423,1.38035 c -1.08583,0.7592 -2.69272,1.52683 -3.57086,1.70584 -0.87814,0.17901 -2.61135,1.02566 -3.85157,1.88145 -2.37793,1.64084 -7.63801,3.78942 -10.20401,4.16802 -0.83802,0.12365 -3.68688,0.36463 -6.33079,0.53552 -5.01729,0.32428 -5.65089,0.53442 -10.20202,3.38358 -2.23892,1.40164 -2.42599,1.64567 -2.38172,3.10683 0.0745,2.45848 -1.24584,5.23361 -3.76134,7.90574 -2.51386,2.6704 -3.17361,4.3915 -2.4478,6.38564 0.46845,1.28706 2.78558,2.80133 3.74964,2.45044 1.00807,-0.36691 5.08347,-4.47031 7.93428,-7.9888 2.67817,-3.30542 3.408,-3.93311 6.31707,-5.433 2.79452,-1.44082 3.67306,-1.7126 5.84285,-1.80748 2.41442,-0.10559 2.694,-0.20785 5.12321,-1.87401 3.74232,-2.56681 4.72856,-2.55799 8.32872,0.0745 2.15356,1.57469 3.83876,1.9412 7.44738,1.61968 4.0444,-0.36034 4.35997,-0.46953 5.05611,-1.74961 z"
                       id="path4388" />
                    <path
                       style="fill:#79ff76;fill-opacity:1;stroke:#000000;stroke-width:0;stroke-linecap:butt;stroke-linejoin:round;stroke-miterlimit:4;stroke-dasharray:none;stroke-dashoffset:0;stroke-opacity:1;paint-order:normal"
                       d="m 444.47212,318.69295 c 0.54144,-1.513 6.66204,-9.40832 9.71788,-12.53565 3.77132,-3.85956 6.63947,-5.07039 11.82048,-4.9902 5.98457,0.0926 5.8941,0.13191 3.54706,-1.54048 -1.11315,-0.79315 -3.18621,-2.58012 -4.60684,-3.97102 -2.90755,-2.84674 -3.99808,-5.14579 -4.03122,-8.4986 -0.0188,-1.90063 -0.14437,-2.19902 -1.76542,-4.1945 -1.9994,-2.46123 -2.5147,-3.68665 -3.22627,-7.67296 -0.49549,-2.77563 -0.56077,-2.8923 -2.3092,-4.12924 -2.49304,-1.76378 -4.2058,-2.23484 -5.89289,-1.62079 -2.03869,0.74202 -3.27336,2.26056 -4.26503,5.24565 -2.27534,6.8492 -3.40921,8.53032 -6.51617,9.66116 -3.1261,1.13781 -9.71128,8.4957 -10.32225,11.53348 -0.67848,3.37342 1.08496,5.30691 5.39688,5.91731 4.51764,0.63953 5.30825,1.76255 5.67553,8.06183 0.29221,5.01186 0.72676,6.11298 3.25433,8.24638 2.15163,1.81608 3.00544,1.93425 3.52313,0.48763 z"
                       id="path4376" />
                    <path
                       style="fill:#79ff76;fill-opacity:1;stroke:#000000;stroke-width:0;stroke-linecap:butt;stroke-linejoin:round;stroke-miterlimit:4;stroke-dasharray:none;stroke-dashoffset:0;stroke-opacity:1;paint-order:normal"
                       d="m 480.54162,298.45259 c 3.37415,-1.9745 4.41684,-2.94797 9.22028,-8.60812 3.8497,-4.53635 4.3311,-5.80772 3.67779,-9.71322 -0.22878,-1.36785 -0.61244,-3.91966 -0.85248,-5.67071 -0.24008,-1.75104 -0.72985,-3.98223 -1.08845,-4.95817 -0.35983,-0.97549 -0.6236,-2.84854 -0.58894,-4.16132 l 0.063,-2.38687 -4.15862,-3.52695 c -2.28722,-1.93983 -4.93508,-3.81081 -5.88418,-4.15771 -2.48082,-0.90681 -5.73058,0.57148 -8.15748,3.71076 -4.17992,5.4069 -5.35736,6.73409 -7.48271,8.43439 -2.34578,1.87663 -6.1662,3.54442 -7.63656,3.3337 -0.72993,-0.10458 -0.76402,0.12475 -0.24392,1.6407 0.3327,0.96919 0.87945,2.99602 1.21532,4.50395 0.52123,2.34021 0.89002,3.06874 2.51836,4.97497 1.85452,2.17103 1.91071,2.30204 2.01562,4.70084 0.19843,4.53772 1.60413,6.5778 7.71737,11.20005 4.82221,3.64607 4.6269,3.63226 9.66558,0.68371 z"
                       id="path4360" />
                    <path
                       style="fill:#8bffe8;fill-opacity:1;stroke:#000000;stroke-width:0;stroke-linecap:butt;stroke-linejoin:round;stroke-miterlimit:4;stroke-dasharray:none;stroke-dashoffset:0;stroke-opacity:1;paint-order:normal"
                       d="m 363.37543,327.28736 c 0.59688,-0.63555 1.24412,-1.92158 1.43831,-2.85785 0.43421,-2.09353 0.0133,-7.527 -0.92436,-11.93241 -0.87218,-4.09773 -1.94839,-16.60673 -1.64499,-19.12002 0.24374,-2.01898 1.06399,-3.36814 2.72349,-4.47964 0.58068,-0.38892 0.96498,-0.95662 0.854,-1.26155 -0.11099,-0.30493 0.0751,-1.31192 0.41352,-2.23777 0.67169,-1.83761 0.44857,-2.1859 -1.96571,-3.06838 -1.9993,-0.7308 -2.69743,-2.49304 -1.65403,-4.17512 0.41584,-0.67039 2.13419,-2.29084 3.81856,-3.601 5.06533,-3.94 8.54231,-10.3078 7.3768,-13.51001 -0.58045,-1.59477 -2.08714,-2.04293 -4.23301,-1.25912 -1.84849,0.67519 -2.33682,1.13539 -4.45039,4.19382 -0.62801,0.90876 -1.8938,1.67281 -5.09163,3.07339 -3.86915,1.6946 -4.42941,2.07659 -6.16599,4.20408 -1.05059,1.28707 -2.40019,3.30827 -2.99912,4.49156 l -1.08897,2.15144 2.33967,5.51105 c 2.66075,6.26734 3.72826,11.24223 3.55872,16.58471 -0.12448,3.92275 -2.18333,8.83304 -6.82375,16.27442 -1.90676,3.05769 -3.43519,5.69037 -3.39649,5.85041 0.0656,0.27143 4.9977,3.82436 9.34559,6.7323 1.0464,0.69985 2.89795,1.3918 4.11456,1.53767 2.16671,0.25979 2.22389,0.24257 2.79101,-0.84061 0.31844,-0.6082 1.06733,-1.62582 1.66421,-2.26137 z"
                       id="path4354" />
                    <path
                       style="fill:#8bffe8;fill-opacity:1;stroke:#000000;stroke-width:0;stroke-linecap:butt;stroke-linejoin:round;stroke-miterlimit:4;stroke-dasharray:none;stroke-dashoffset:0;stroke-opacity:1;paint-order:normal"
                       d="m 373.57551,315.55431 c 2.28259,-3.72881 3.526,-4.19643 13.43363,-5.05203 7.33836,-0.63374 8.09747,-0.77674 8.32721,-1.56881 0.13903,-0.47933 -0.018,-3.47406 -0.34902,-6.65496 -0.63398,-6.09262 -0.53275,-8.46577 0.4792,-11.23423 l 0.6171,-1.68824 -2.24658,-1.72192 c -1.23562,-0.94705 -2.92749,-2.35838 -3.7597,-3.13629 -2.1672,-2.0258 -3.68168,-1.70628 -6.66029,1.40517 -1.82649,1.90794 -2.35987,2.83759 -2.68346,4.67706 -1.03737,5.89703 -8.69807,6.81707 -12.4231,1.49199 -0.68171,-0.97452 -1.3775,-1.72162 -1.54622,-1.66021 -1.02652,0.37362 -2.16078,1.88872 -2.31291,3.0895 -0.27556,2.17492 0.78775,14.66495 1.55621,18.27993 0.3796,1.78566 0.70651,3.59011 0.72646,4.0099 0.0234,0.49206 0.36764,0.73224 0.96889,0.67599 0.51293,-0.048 1.47963,0.37752 2.14823,0.94558 0.66859,0.56805 1.42845,0.95672 1.68858,0.8637 0.26005,-0.0932 1.17622,-1.31797 2.03577,-2.72213 z"
                       id="path4344" />
                    <path
                       style="fill:#fffb91;fill-opacity:1;stroke:#000000;stroke-width:0;stroke-linecap:butt;stroke-linejoin:round;stroke-miterlimit:4;stroke-dasharray:none;stroke-dashoffset:0;stroke-opacity:1;paint-order:normal"
                       d="m 500.56663,262.97005 c 0.48866,-1.09212 1.45397,-2.43172 2.14515,-2.97688 2.04216,-1.61074 5.86108,-1.88265 8.88413,-0.63256 l 1.30995,0.54166 0.42227,-1.46583 c 0.23229,-0.80623 1.09488,-2.82452 1.91693,-4.48514 2.78578,-5.62756 2.46388,-12.79455 -1.07239,-23.87689 -2.41617,-7.57208 -3.83931,-10.4933 -7.03817,-14.44913 l -1.82702,-2.25923 -2.45296,0.6201 c -3.57562,0.90391 -5.57108,0.92795 -8.45841,0.10194 -4.43832,-1.2697 -6.30001,-1.27982 -8.22657,-0.0447 -2.28807,1.46684 -3.61674,2.97141 -5.05015,5.71873 -1.3289,2.54706 -3.05159,4.35293 -4.73786,4.96669 -1.21525,0.44231 -10.80281,1.40312 -13.88454,1.39142 -1.90374,-0.007 -2.02689,0.0526 -2.93717,1.42664 -1.34672,2.03289 -1.94039,4.76219 -1.71892,7.9025 0.37711,5.34768 -1.83057,8.27926 -8.00437,10.62897 -4.47665,1.70378 -4.76452,2.18835 -4.15803,6.99861 0.55453,4.39805 1.02896,5.46041 3.67521,8.22985 1.64468,1.72125 2.55629,3.08749 3.15178,4.7236 l 0.83783,2.30191 2.41267,0.13814 c 1.32696,0.076 3.14997,-0.098 4.05115,-0.38653 2.48163,-0.79467 6.32661,-4.0853 9.1082,-7.795 3.28036,-4.37486 5.13078,-6.05937 7.67234,-6.98443 3.6586,-1.33162 5.87444,-0.53569 11.22514,4.03209 6.50915,5.55678 10.41432,8.1473 11.62025,7.70838 0.13484,-0.0491 0.64493,-0.98277 1.13356,-2.07488 z"
                       id="path4334" />
                    <path
                       style="fill:#fffb91;fill-opacity:1;stroke:#000000;stroke-width:0;stroke-linecap:butt;stroke-linejoin:round;stroke-miterlimit:4;stroke-dasharray:none;stroke-dashoffset:0;stroke-opacity:1;paint-order:normal"
                       d="m 477.0108,221.72048 c 0.31195,-0.29205 1.16266,-1.62952 1.89045,-2.97215 l 1.32328,-2.44116 -2.4934,-1.63618 c -4.13641,-2.71434 -4.23049,-4.64949 -0.4692,-9.65114 4.51747,-6.00726 5.09085,-8.27684 4.43674,-17.56224 -0.43653,-6.19724 -0.63239,-7.20282 -2.38828,-12.26232 -1.05203,-3.03131 -1.87802,-5.85724 -1.83562,-6.27984 0.0568,-0.56533 -0.3752,-0.81187 -1.63462,-0.93304 -0.94147,-0.0906 -5.08414,-1.11995 -9.20595,-2.28753 -6.00918,-1.70219 -8.19636,-2.09364 -11.03766,-1.97544 -4.94317,0.20566 -5.20858,0.34984 -4.94866,2.68829 0.59877,5.38667 -0.12335,8.93084 -3.13503,15.3872 -2.40586,5.15765 -3.14959,8.91506 -2.07555,10.48604 0.29301,0.42864 2.30638,1.74541 4.47405,2.92618 6.1472,3.34836 8.9198,5.54975 9.70419,7.70486 0.36332,0.99819 0.65446,2.16663 0.647,2.59653 -0.007,0.42988 -1.19939,2.19365 -2.64871,3.91946 -2.06649,2.46067 -2.68892,3.57362 -2.88414,5.15699 -0.5319,4.31409 2.58807,8.77239 6.42264,9.17754 2.28143,0.24107 12.74899,-0.58859 14.2367,-1.12839 0.57993,-0.2106 1.30977,-0.62158 1.62177,-0.91366 z"
                       id="path4300" />
                    <path
                       style="fill:#fffb91;fill-opacity:1;stroke:#000000;stroke-width:0;stroke-linecap:butt;stroke-linejoin:round;stroke-miterlimit:4;stroke-dasharray:none;stroke-dashoffset:0;stroke-opacity:1;paint-order:normal"
                       d="m 503.08783,207.72642 c -1.51551,-5.50413 -2.06573,-10.72645 -1.36626,-12.9675 0.62623,-2.00643 5.05639,-7.1413 8.14747,-9.44353 2.32275,-1.72997 5.16983,-2.15094 7.89159,-1.16687 2.43176,0.87923 3.89114,0.68283 3.91211,-0.5265 0.007,-0.41317 -0.7992,-1.89245 -1.79192,-3.28726 -2.06352,-2.89928 -4.87009,-10.1423 -4.77345,-12.31898 l 0.0593,-1.33474 -3.09929,1.12805 c -5.59096,2.03494 -5.64578,2.02601 -13.50329,-2.20178 -2.55477,-1.37462 -4.22431,-1.86822 -7.66745,-2.2669 l -4.40159,-0.50963 -2.885,2.21624 c -3.96892,3.04891 -4.37385,4.12876 -2.92745,7.80674 0.61974,1.57547 1.46851,3.81454 1.88646,4.97558 0.99631,2.76752 2.00277,14.69319 1.54689,18.32862 -0.25555,2.03763 -2.36378,6.88908 -3.70304,8.52134 -4.39096,5.35158 -4.47122,5.91495 -1.17657,8.2601 l 2.34825,1.67151 1.76056,-1.3355 c 1.00203,-0.7601 2.81229,-1.64155 4.20159,-2.04582 2.09298,-0.60902 2.8892,-0.57224 5.58529,0.25797 3.44195,1.05994 7.04704,1.1972 9.41774,0.35859 l 1.52397,-0.53911 -0.9859,-3.58064 z"
                       id="path4298" />
                    <path
                       style="fill:#fffb91;fill-opacity:1;stroke:#000000;stroke-width:0;stroke-linecap:butt;stroke-linejoin:round;stroke-miterlimit:4;stroke-dasharray:none;stroke-dashoffset:0;stroke-opacity:1;paint-order:normal"
                       d="m 515.28408,163.4151 c -0.018,-2.55587 1.94982,-7.74118 3.94491,-10.39514 3.5829,-4.76611 4.1846,-6.37972 4.76519,-12.77855 0.29226,-3.22092 0.77184,-7.95062 1.0658,-10.51048 l 0.53444,-4.65428 -1.90153,-5.65092 c -2.54962,-7.57704 -4.8011,-11.46189 -9.20765,-15.88782 -1.87079,-1.87896 -4.60163,-5.128264 -6.06862,-7.220639 -1.46699,-2.092375 -3.38876,-4.616113 -4.27062,-5.608303 -0.88185,-0.992189 -1.90984,-2.153663 -2.28439,-2.581065 l -0.68107,-0.777065 -1.65567,1.766952 c -1.45554,1.553387 -2.12377,1.920483 -5.52858,3.037194 -3.82232,1.253647 -3.88658,1.295138 -4.91897,3.176842 -0.57531,1.048625 -1.6903,2.36649 -2.47779,2.928603 -1.90093,1.356938 -5.51317,2.647641 -7.06778,2.525431 -2.83804,-0.22314 -3.31176,3.94787 -2.10677,18.55067 0.74513,9.03036 0.74991,10.72554 0.0368,13.06998 -0.86164,2.83286 -1.33895,7.7253 -0.98164,10.06276 0.1601,1.04758 0.71813,1.81509 2.29911,3.16232 3.70862,3.16016 8.46973,10.41324 8.66441,13.1993 0.11912,1.70456 1.03669,2.13483 5.25293,2.4632 2.8339,0.22072 7.79952,2.20445 10.17084,4.06319 2.38432,1.86892 4.0611,1.93083 8.50843,0.31417 3.3473,-1.21688 3.91326,-1.54353 3.90823,-2.25634 z"
                       id="path4286"
                       inkscape:connector-curvature="0" />
                    <path
                       style="fill:#fffb91;fill-opacity:1;stroke:#000000;stroke-width:0;stroke-linecap:butt;stroke-linejoin:round;stroke-miterlimit:4;stroke-dasharray:none;stroke-dashoffset:0;stroke-opacity:1;paint-order:normal"
                       d="m 481.54438,163.66258 c 3.10815,-2.40369 3.54857,-2.9682 3.62168,-4.64213 0.0543,-1.24454 -0.31697,-2.00333 -2.63126,-5.3775 -1.48201,-2.16067 -3.81712,-4.97515 -5.18914,-6.2544 -1.37207,-1.27923 -2.68102,-2.84871 -2.90878,-3.48773 -0.64135,-1.79881 -0.17306,-8.95476 0.78737,-12.03559 0.74924,-2.40343 0.76701,-3.77716 0.13414,-10.36152 -1.23193,-12.81648 -1.15727,-17.74777 0.31239,-20.63322 0.53247,-1.045393 0.5706,-1.842076 0.14425,-3.013451 -0.31876,-0.8758 -0.72631,-2.65045 -0.90567,-3.943665 -0.26371,-1.901764 -0.46092,-2.380869 -1.03143,-2.505853 -1.37917,-0.302193 -3.37259,0.783079 -4.25517,2.316639 -1.27216,2.21045 -3.29026,2.754917 -13.36634,3.606102 -8.85227,0.747804 -11.97692,1.461623 -13.97166,3.191758 -0.82691,0.71722 -0.90563,1.11967 -0.45897,2.34686 0.79665,2.18878 0.97047,9.88656 0.28745,12.72748 -0.60419,2.5128 -2.15018,5.05132 -4.53874,7.45259 -1.60306,1.6116 -2.85123,4.91235 -2.36389,6.25129 0.19562,0.53747 0.99091,1.27346 1.76733,1.6355 2.82033,1.31512 6.06577,-1.28063 6.46289,-5.16908 0.1192,-1.16693 0.14561,-2.31698 0.0587,-2.55568 -0.0869,-0.23871 0.0942,-0.91105 0.40225,-1.49408 0.45848,-0.86754 0.71172,-1.0059 1.39406,-0.7617 1.1458,0.41001 1.45219,1.49819 1.62258,5.76209 0.17377,4.34821 0.37517,4.99549 2.26055,7.26495 1.62395,1.95477 1.77321,2.73956 2.78397,14.63703 0.60518,7.12334 0.57778,8.03463 -0.32866,10.93505 l -0.72227,2.31116 1.94603,-0.18989 c 5.01411,-0.48926 6.89401,-0.25143 14.16832,1.79243 11.14389,3.1311 10.72805,3.12553 14.51799,0.19456 z"
                       id="path4282" />
                    <path
                       style="fill:#fffb91;fill-opacity:1;stroke:#000000;stroke-width:0;stroke-linecap:butt;stroke-linejoin:round;stroke-miterlimit:4;stroke-dasharray:none;stroke-dashoffset:0;stroke-opacity:1;paint-order:normal"
                       d="m 486.5964,95.04975 c 2.10801,-3.459795 2.20473,-3.537005 5.98506,-4.777958 3.68137,-1.208469 5.80702,-2.502314 6.27933,-3.822127 0.2011,-0.561981 -0.24996,-1.221124 -1.88326,-2.752082 -1.1812,-1.107228 -2.92519,-2.894419 -3.87549,-3.971555 -0.95031,-1.077133 -2.23757,-2.32765 -2.86065,-2.778905 -3.77632,-2.735041 -5.10105,-5.716389 -5.42862,-12.217632 -0.17484,-3.469648 -0.54532,-5.822831 -1.16308,-7.387751 -0.49882,-1.262917 -1.24475,-3.156341 -1.65807,-4.207442 -0.41315,-1.051162 -1.01087,-3.831878 -1.32776,-6.179545 -0.79637,-5.899392 -0.87003,-6.054015 -2.43759,-5.118672 -5.07376,3.027453 -7.00585,3.169857 -9.94831,0.733212 -1.99065,-1.648453 -3.04575,-1.922229 -4.86139,-1.26139 -1.44264,0.525081 -2.27565,2.430194 -1.99171,4.554946 0.098,0.733019 -0.29306,2.530586 -0.86899,3.994583 -2.60517,6.622198 -2.4926,7.571055 0.93989,7.921601 3.15373,0.322086 6.00025,-1.023651 8.29785,-3.922934 2.02568,-2.556137 3.50252,-3.54851 4.96835,-3.338462 1.48057,0.212151 2.30547,2.658526 2.98833,8.862153 0.62476,5.67627 0.58226,6.438116 -0.46078,8.258019 -1.21929,2.12744 -2.5233,2.32681 -5.27311,0.806222 -3.26735,-1.806767 -4.26277,-1.406864 -6.21791,2.498004 -0.82414,1.645952 -1.86364,3.125561 -2.31009,3.288054 -2.11489,0.769757 -6.14077,-2.184691 -7.29383,-5.352717 -0.30415,-0.835642 -0.67015,-3.067902 -0.81329,-4.960599 -0.225,-2.974303 -0.42823,-3.69497 -1.4976,-5.311249 -1.65364,-2.499329 -2.31314,-2.672662 -5.07268,-1.333147 -1.24532,0.604499 -2.75898,1.092044 -3.36369,1.083434 -0.8569,-0.01223 -1.21095,0.254819 -1.60529,1.210826 -0.84218,2.041792 -0.87604,3.939521 -0.18497,10.372342 0.72574,6.755815 0.22485,9.830953 -2.13413,13.101347 -1.38617,1.921738 -4.66007,4.700768 -6.19679,5.260087 -0.59301,0.215839 -1.65498,0.924222 -2.35992,1.574185 -1.05682,0.974409 -1.18055,1.333607 -0.70522,2.047349 1.09581,1.64537 5.28303,6.391644 6.24818,7.082408 0.94345,0.675212 1.03477,0.65192 3.51918,-0.897603 3.05645,-1.906292 4.09302,-2.128568 13.92875,-2.986766 10.79352,-0.941769 10.68343,-0.916116 11.72898,-2.732815 1.71636,-2.982237 7.01317,-4.291807 8.49618,-2.100582 0.32295,0.477187 0.70036,1.786352 0.8387,2.909258 0.36649,2.974457 1.07634,4.668942 2.16954,5.178716 1.46259,0.682011 6.28323,-1.482171 7.4059,-3.324813 z"
                       id="path4270" />
                    <g
                       id="g4577"
                       style="display:inline;fill:#7272ff;fill-opacity:1;stroke:#000000;stroke-width:0;stroke-linecap:butt;stroke-linejoin:round;stroke-miterlimit:4;stroke-dasharray:none;stroke-dashoffset:0;stroke-opacity:1;paint-order:normal">
                      <path
                         id="path4476"
                         d="m 325.16132,405.62555 c -0.11565,-1.90966 -0.71146,-5.18683 -1.32404,-7.2826 -1.0542,-3.6067 -1.20493,-3.87633 -2.8182,-5.04151 -0.93744,-0.67706 -2.57882,-2.40906 -3.64753,-3.84889 -2.46629,-3.32279 -5.62559,-5.0815 -8.95826,-4.98689 -2.69629,0.0765 -5.74004,-1.37873 -6.34184,-3.03216 -0.28108,-0.77225 -0.0211,-1.8414 0.86065,-3.53917 0.69486,-1.33796 1.15429,-2.73241 1.02094,-3.09876 -0.13334,-0.36636 -1.66371,-1.6214 -3.40082,-2.78897 -1.7371,-1.16758 -3.58986,-2.66992 -4.11722,-3.33854 -0.52738,-0.66862 -1.17387,-1.13742 -1.43665,-1.04177 -0.26278,0.0956 -2.88754,-0.0496 -5.83279,-0.32266 -4.20508,-0.38993 -5.84517,-0.33132 -7.6376,0.27292 -1.25542,0.42323 -2.3607,0.93584 -2.45617,1.13918 -0.0955,0.20334 0.40607,0.98775 1.11457,1.74313 3.92596,4.18583 6.16071,8.78646 5.76381,11.86581 -0.29553,2.29294 -1.87741,5.24714 -4.42333,8.26067 -1.4848,1.75754 -2.35703,3.32878 -2.76439,4.9798 -1.04384,4.23066 0.40685,10.00802 3.58328,14.2704 1.16613,1.56481 1.22654,1.583 3.05145,0.91879 2.2858,-0.83197 7.63176,-1.00356 12.76401,-0.4097 2.11817,0.24509 5.10048,0.36023 6.62735,0.25587 1.52687,-0.10437 4.43553,0.0659 6.46367,0.37843 3.31034,0.51006 4.13865,0.447 8.09774,-0.61647 2.42561,-0.65156 4.54742,-1.12067 4.71514,-1.04246 0.96851,0.45162 1.28311,-0.60863 1.09623,-3.69445 z"
                         style="fill:#7272ff;fill-opacity:1;stroke:#000000;stroke-width:0;stroke-linecap:butt;stroke-linejoin:round;stroke-miterlimit:4;stroke-dasharray:none;stroke-dashoffset:0;stroke-opacity:1;paint-order:normal" />
                      <path
                         inkscape:connector-curvature="0"
                         id="path4262"
                         d="m 307.41049,432.27687 c 0.57654,-0.56647 0.88476,-1.6392 0.88103,-3.06636 -0.003,-1.32026 0.51628,-3.27693 1.30405,-4.90959 0.72037,-1.49297 1.42475,-3.64701 1.56527,-4.78674 0.23726,-1.92425 0.18127,-2.12771 -0.78395,-2.84889 -1.329,-0.99301 -2.12709,-0.63801 -3.92018,1.74374 -0.79668,1.05823 -1.87774,2.45549 -2.40236,3.10504 -4.01342,4.9691 -4.15939,9.28028 -0.37399,11.04544 2.15756,1.00608 2.44032,0.98465 3.73013,-0.28264 z"
                         style="fill:#7272ff;fill-opacity:1;stroke:#000000;stroke-width:0;stroke-linecap:butt;stroke-linejoin:round;stroke-miterlimit:4;stroke-dasharray:none;stroke-dashoffset:0;stroke-opacity:1;paint-order:normal" />
                    </g>
                    <path
                       style="display:inline;fill:#ff8585;fill-opacity:1;stroke:#000000;stroke-width:0;stroke-linecap:butt;stroke-linejoin:round;stroke-miterlimit:4;stroke-dasharray:none;stroke-dashoffset:0;stroke-opacity:1;paint-order:normal"
                       d="m 440.4411,51.535738 c 1.1951,-1.864 1.61765,-4.56596 1.19617,-7.64877 -0.49643,-3.631 -0.29626,-4.6939 1.43745,-7.63283 2.348,-3.98024 4.28032,-6.20573 5.42993,-6.25373 0.52447,-0.0219 1.76181,0.62947 2.74964,1.44749 1.43181,1.18568 2.48924,1.5691 5.21413,1.89062 1.87995,0.22182 3.8497,0.2461 4.37724,0.0539 0.87109,-0.31729 4.24021,-4.16939 5.43658,-6.21593 0.81308,-1.39086 0.20459,-1.93851 -2.91027,-2.6193 -1.64065,-0.35858 -4.61513,-1.15117 -6.60997,-1.7613 -3.94281,-1.20595 -4.28376,-1.58844 -4.48348,-5.02981 -0.0954,-1.64364 -0.22121,-1.89731 -1.06213,-2.14122 -0.52467,-0.15218 -1.78996,-0.119 -2.81177,0.0737 -7.21575,1.36103 -14.0746,-0.50814 -16.10713,-4.38951 -0.91553,-1.7483301 -1.70372,-7.5152003 -1.32441,-9.6902103 0.15139,-0.86808 1.10502,-2.32491995 2.41983,-3.6966899 2.04711,-2.1358206 2.3718,-2.3217406 5.73487,-3.2837508 1.96069,-0.56086 4.20967,-1.01181 4.99772,-1.00212 3.44153,0.0423 6.67691,2.8376203 9.11937,7.8789307 0.70859,1.46255 1.44063,2.60376 1.62674,2.53602 0.18611,-0.0677 1.45216,-1.67359 2.81343,-3.56856995 1.36128,-1.89496995 3.66005,-5.09533055 5.10837,-7.11192075 l 2.63333,-3.66653 4.97244,-1.809819 c 3.96365,-1.44265 5.94334,-1.90984 9.75813,-2.30284 5.62229,-0.57921 7.95055,-0.37517 10.19387,0.89335 0.90311,0.51067 3.12163,1.68438 4.93008,2.60824 1.80843,0.923859 4.42109,2.555669 5.8059,3.626259 1.3848,1.07058 2.83923,2.04538 3.23205,2.1662101 0.39281,0.12083 1.78134,0.9216601 3.0856,1.7796303 4.34866,2.86059035 8.67067,4.2046603 16.50326,5.1322003 4.84221,0.57342 8.64218,1.34742 11.21228,2.28377 2.13822,0.77902 3.95268,1.2769699 4.03214,1.1065799 0.0794,-0.17039 -0.052,-4.5504499 -0.29211,-9.7334704 -0.49737,-10.7362892 -0.24734,-13.9453192 1.33016,-17.0719292 0.61299,-1.21497 1.7819,-3.67103 2.59756,-5.45792 0.81567,-1.78689 2.11633,-3.90991 2.89037,-4.71783 0.77404,-0.80791 1.55691,-1.88686 1.73971,-2.39766 0.74109,-2.07092 4.91865,-7.27887 12.7853,-15.93878 2.22206,-2.44614 5.26563,-2.81786 10.97085,-1.33992 2.59611,0.67252 4.24435,0.71526 7.62971,0.19783 l 1.4367,-0.21959 -1.39711,-1.73668 c -1.72647,-2.14609 -1.98728,-4.22112 -0.71631,-5.69901 1.17452,-1.36575 2.79691,-1.15574 4.87733,0.63135 2.33048,2.00189 3.06485,1.92828 5.16555,-0.51776 3.31367,-3.85842 4.61842,-4.9685 8.35234,-7.10617 4.34381,-2.48684 5.2446,-3.36183 7.38882,-7.17716 0.8767,-1.55995 2.04224,-3.32649 2.59009,-3.92563 0.94886,-1.03771 0.79542,-1.01371 -3.23643,0.50612 -3.68244,1.38811 -4.42972,1.53728 -5.74993,1.14783 -1.81018,-0.534 -4.21143,-2.47232 -5.66969,-4.57667 -0.58135,-0.83893 -2.69112,-3.61656 -4.68837,-6.17252 -3.57305,-4.57257 -3.65476,-4.72302 -5.08823,-9.369559 -1.35758,-4.400506 -1.81476,-7.526079 -1.50511,-10.289809 0.0707,-0.63082 1.18156,-3.24928 2.46862,-5.81878 2.10623,-4.20489 2.33452,-5.00251 2.28403,-7.98035 -0.0309,-1.81969 -0.1523,-3.35338 -0.26989,-3.40822 -0.11759,-0.0548 -1.33809,1.13497 -2.71223,2.644 -2.40613,2.64231 -4.52798,6.43612 -5.23373,9.3577 -0.55612,2.30221 -2.25822,4.52011 -5.48554,7.14788 -4.91971,4.005753 -4.91705,4.005303 -21.80378,3.70977 -11.7942,-0.2064 -15.19099,-0.74118 -19.65985,-3.09514 -1.543,-0.81277 -3.65974,-1.932 -4.70387,-2.48716 -1.04414,-0.55515 -3.15708,-1.21862 -4.69544,-1.47437 -2.88374,-0.47941 -5.13939,-1.63491 -11.04766,-5.65937 -1.88468,-1.28377 -4.64473,-2.9652 -6.13344,-3.73651 -1.48871,-0.77131 -4.40785,-2.93204 -6.48697,-4.80161 -2.07913,-1.86958 -5.74426,-4.83319 -8.14472,-6.58581 -5.1467,-3.75767 -11.19343,-9.01285 -19.94374,-17.33294 -7.15899,-6.80703 -8.64857,-7.91644 -10.75258,-8.00831 -3.07362,-0.13419 -4.00304,1.58147 -3.43707,6.34472 0.33114,2.7869 0.19939,3.07055 -2.58896,5.57384 -3.45013,3.09742 -3.99556,7.64906 -1.29234,10.78474 0.77551,0.89958 1.79628,2.24709 2.26837,2.99447 0.4721,0.74739 2.17305,2.59942 3.77989,4.11563 2.2588,2.1314 3.23137,3.41746 4.28743,5.66942 1.77975,3.79519 1.96053,5.23005 0.98619,7.82745 -0.45528,1.21366 -0.74073,3.448 -0.65866,5.15539 0.0797,1.65736 0.26364,5.169963 0.4088,7.805786 0.22962,4.169443 0.13157,4.936042 -0.75433,5.897572 -1.15722,1.25602 -1.11508,1.65265 0.28692,2.70019 0.89074,0.66554 1.04571,1.09656 1.47486,4.10214 1.51566,10.61514 1.4096,11.43061 -1.95024,14.9951 -1.9454,2.06388 -2.77436,3.33782 -3.05621,4.69675 l -0.38676,1.86471 1.5334,0.75543 1.5334,0.75542 0.48962,6.63741 c 0.54729,7.41924 0.47514,8.62481 -0.6508,10.87474 -1.69497,3.387 -4.42767,4.56202 -12.58255,5.41031 -6.75478,0.70265 -7.14905,0.66303 -8.55286,-0.85952 -1.35377,-1.46827 -4.61822,-1.90272 -7.9691,-1.06058 -2.99777,0.7534 -4.54674,2.32661 -4.65919,4.7321 -0.0989,2.11562 0.75803,3.58363 3.46334,5.93309 2.37342,2.06123 3.05474,3.61772 2.73142,6.24 -0.29792,2.41625 -1.61947,4.82205 -4.65898,8.48137 -2.17988,2.6244 -8.17303,7.685889 -9.83082,8.302579 -1.09858,0.40869 -3.43106,3.9161608 -4.40642,6.62623075 -0.75209,2.08967995 -0.83662,3.55506995 -0.47306,8.20003005 0.24347,3.1106202 0.59403,6.0768802 0.77902,6.5917002 0.185,0.51483 1.48172,1.57379 2.88161,2.35326 6.07285,3.38143 7.62744,4.42353 10.22927,6.85709 2.64554,2.47443 2.79356,2.70877 3.70222,5.86123 1.28704,4.46521 1.04302,5.75577 -1.58061,8.35943 -2.29433,2.27689 -2.85994,4.08605 -2.29926,7.3545 0.35154,2.04921 2.66661,5.19425 4.34837,5.90729 2.00492,0.85005 6.49948,1.95706 7.17232,1.76654 0.33466,-0.0948 1.06816,-0.88926 1.62998,-1.76554 z"
                       id="path4254"
                       inkscape:connector-curvature="0" />
                    <g
                       id="g4573"
                       style="display:inline;fill:#8bffe8;fill-opacity:1;stroke:#000000;stroke-width:0;stroke-linecap:butt;stroke-linejoin:round;stroke-miterlimit:4;stroke-dasharray:none;stroke-dashoffset:0;stroke-opacity:1;paint-order:normal">
                      <path
                         id="path4328"
                         d="m 439.63465,278.55433 c 0.56265,-1.34043 1.43095,-3.62089 1.92955,-5.06769 1.19497,-3.46749 3.26646,-5.49196 6.43411,-6.28805 2.1236,-0.5337 2.30403,-0.66156 2.02305,-1.43355 -0.16967,-0.46616 -1.34978,-1.93734 -2.62245,-3.26927 -2.64484,-2.76797 -3.26118,-4.17192 -3.8504,-8.77081 -0.82187,-6.41478 -0.21251,-7.50709 5.38986,-9.66158 5.65057,-2.17303 7.13536,-4.22962 6.61371,-9.16078 -0.30147,-2.84973 0.27273,-5.60263 1.60056,-7.67364 l 1.03043,-1.60713 -2.06528,-1.94166 c -2.59977,-2.44417 -3.96465,-5.81358 -3.67049,-9.061 0.23785,-2.62589 0.78125,-3.71326 3.23339,-6.47026 2.7094,-3.04623 2.78592,-3.80841 0.59821,-5.95736 -0.97159,-0.95431 -2.94854,-2.41912 -4.39326,-3.25511 -1.44472,-0.83599 -3.75493,-2.1834 -5.13381,-2.99423 l -2.50708,-1.47424 -0.66851,1.52477 c -0.45355,1.03447 -0.55227,3.17145 -0.30704,6.64583 0.42502,6.02105 0.0607,8.55277 -1.8663,12.96713 -1.77463,4.06546 -3.63798,6.5251 -7.15536,9.44505 -3.18736,2.64598 -5.21503,4.92732 -7.11439,8.00439 -1.60563,2.60123 -1.76551,3.01147 -2.62407,6.73357 -0.36373,1.57686 -1.22158,4.14534 -1.90633,5.70772 -0.68475,1.56239 -1.72623,4.91748 -2.31442,7.45576 -1.19665,5.16418 -3.65838,9.49094 -7.07536,12.43573 -1.05883,0.91251 -2.5746,2.35658 -3.36837,3.20903 -0.79378,0.85246 -2.77404,2.61657 -4.40059,3.92025 -1.62656,1.30367 -4.43629,3.58359 -6.24386,5.06648 -1.80756,1.48289 -3.95554,2.9611 -4.77329,3.28492 -0.81774,0.3238 -1.86728,0.86697 -2.33231,1.20702 -0.83531,0.61082 -0.81248,0.64507 1.89368,2.84061 3.48057,2.82384 4.26405,2.95803 6.05373,1.03689 0.75055,-0.80569 1.94143,-1.67482 2.6464,-1.93141 1.31059,-0.47701 3.42126,0.16388 3.77929,1.14757 0.14922,0.40998 1.21625,0.14862 4.39695,-1.07699 4.71977,-1.81864 4.85562,-1.94442 7.72835,-7.15491 1.95645,-3.54856 3.61849,-4.8431 6.07999,-4.73563 2.23595,0.0976 3.81146,1.46124 6.69463,5.79425 3.04422,4.57506 4.09898,5.25374 6.02058,3.87397 0.67292,-0.48318 1.68385,-1.97522 2.2465,-3.31564 z"
                         style="fill:#8bffe8;fill-opacity:1;stroke:#000000;stroke-width:0;stroke-linecap:butt;stroke-linejoin:round;stroke-miterlimit:4;stroke-dasharray:none;stroke-dashoffset:0;stroke-opacity:1;paint-order:normal" />
                      <path
                         inkscape:connector-curvature="0"
                         id="path4248"
                         d="m 409.66047,233.88083 c 3.53906,-4.28989 4.54128,-6.1795 4.02695,-7.59259 -0.25759,-0.70773 -0.67848,-0.88844 -1.70412,-0.73167 -0.86549,0.13228 -1.68507,-0.1206 -2.24811,-0.69364 -1.05711,-1.07589 -0.94639,-3.50038 0.34904,-7.64321 0.44098,-1.41028 0.68697,-2.87961 0.54663,-3.26519 -0.3653,-1.00365 -2.06396,-1.78918 -3.07402,-1.42155 -1.06587,0.38794 -3.2566,5.35744 -3.31525,7.52039 -0.0478,1.76428 -0.82629,4.01476 -1.46975,4.24896 -0.67769,0.24666 -1.47513,2.0535 -1.21804,2.75985 0.1301,0.35743 1.00032,1.19023 1.93382,1.85065 l 1.69729,1.20077 0.0981,3.07596 c 0.0956,2.9965 0.46576,4.83214 0.93977,4.65961 0.12885,-0.0469 1.67582,-1.83265 3.43772,-3.96834 z"
                         style="fill:#8bffe8;fill-opacity:1;stroke:#000000;stroke-width:0;stroke-linecap:butt;stroke-linejoin:round;stroke-miterlimit:4;stroke-dasharray:none;stroke-dashoffset:0;stroke-opacity:1;paint-order:normal" />
                    </g>
                  </g>
                </g>
                <text
                   xml:space="preserve"
                   style="font-style:normal;font-weight:normal;font-size:78.0551px;line-height:1.25;font-family:sans-serif;text-align:start;text-anchor:start;display:inline;fill:#000000;fill-opacity:1;stroke:none;stroke-width:0.945319"
                   x="-65.406242"
                   y="92.632324"
                   id="text29988"
                   transform="rotate(-20.304738)"><tspan
                     sodipodi:role="line"
                     x="-65.406242"
                     y="92.632324"
                     style="font-style:normal;font-variant:normal;font-weight:bold;font-stretch:normal;font-size:78.0551px;font-family:'Alte Haas Grotesk';-inkscape-font-specification:'Alte Haas Grotesk Bold';text-align:start;text-anchor:start;stroke-width:0.945319"
                     id="tspan29990"
                     transform="translate(6.7313447,-0.06346075)">Japanese </tspan><tspan
                     sodipodi:role="line"
                     x="-65.406242"
                     y="192.53793"
                     style="font-style:normal;font-variant:normal;font-weight:bold;font-stretch:normal;font-size:78.0551px;font-family:'Alte Haas Grotesk';-inkscape-font-specification:'Alte Haas Grotesk Bold';text-align:start;text-anchor:start;stroke-width:0.945319"
                     id="tspan29992"
                     transform="translate(6.7313447,-0.06346075)">Railway</tspan><tspan
                     sodipodi:role="line"
                     x="-65.406242"
                     y="292.44354"
                     style="font-style:normal;font-variant:normal;font-weight:bold;font-stretch:normal;font-size:78.0551px;font-family:'Alte Haas Grotesk';-inkscape-font-specification:'Alte Haas Grotesk Bold';text-align:start;text-anchor:start;stroke-width:0.945319"
                     transform="translate(6.7313447,-0.06346075)"
                     id="tspan30005">Companies</tspan></text>
              </g>
            </g>
          </g>
        </g>
      </g>
    </g>
  </g>
</svg>
