<?xml version="1.0" encoding="UTF-8" standalone="no"?>
<svg
   xmlns:dc="http://purl.org/dc/elements/1.1/"
   xmlns:cc="http://creativecommons.org/ns#"
   xmlns:rdf="http://www.w3.org/1999/02/22-rdf-syntax-ns#"
   xmlns:svg="http://www.w3.org/2000/svg"
   xmlns="http://www.w3.org/2000/svg"
   xmlns:sodipodi="http://sodipodi.sourceforge.net/DTD/sodipodi-0.dtd"
   xmlns:inkscape="http://www.inkscape.org/namespaces/inkscape"
   width="800"
   height="800"
   viewBox="0 0 211.66666 211.66667"
   version="1.1"
   id="svg16"
   inkscape:version="1.0.2 (e86c870879, 2021-01-15)"
   sodipodi:docname="keikyu.svg">
  <defs
     id="defs10" />
  <sodipodi:namedview
     id="base"
     pagecolor="#ffffff"
     bordercolor="#666666"
     borderopacity="1.0"
     inkscape:pageopacity="0.0"
     inkscape:pageshadow="2"
     inkscape:zoom="0.98994949"
     inkscape:cx="256.82819"
     inkscape:cy="438.08482"
     inkscape:document-units="px"
     inkscape:current-layer="layer1"
     inkscape:document-rotation="0"
     showgrid="true"
     showguides="true"
     inkscape:guide-bbox="true"
     inkscape:snap-page="true"
     units="px"
     showborder="true"
     inkscape:showpageshadow="true"
     inkscape:pagecheckerboard="false"
     inkscape:snap-grids="false"
     inkscape:snap-to-guides="true"
     inkscape:lockguides="false"
     inkscape:window-width="2560"
     inkscape:window-height="1387"
     inkscape:window-x="-8"
     inkscape:window-y="-8"
     inkscape:window-maximized="1">
    <inkscape:grid
       type="xygrid"
       id="grid18"
       originx="0"
       originy="0"
       enabled="true"
       spacingx="5.2916666"
       spacingy="5.2916666"
       empspacing="2"
       color="#3f3fff"
       opacity="0.05098039"
       empcolor="#3f3fff"
       empopacity="0.2" />
    <sodipodi:guide
       position="10.583333,105.83333"
       orientation="1,0"
       id="guide185"
       inkscape:locked="false" />
    <sodipodi:guide
       position="105.83333,201.08333"
       orientation="0,-1"
       id="guide187"
       inkscape:locked="false" />
    <sodipodi:guide
       position="201.08333,105.83333"
       orientation="1,0"
       id="guide189"
       inkscape:locked="false" />
    <sodipodi:guide
       position="105.83333,10.583336"
       orientation="0,-1"
       id="guide191"
       inkscape:locked="false" />
    <sodipodi:guide
       position="105.83333,105.83333"
       orientation="0,-1"
       id="guide193"
       inkscape:locked="false" />
  </sodipodi:namedview>
  <metadata
     id="metadata13">
    <rdf:RDF>
      <cc:Work
         rdf:about="">
        <dc:format>image/svg+xml</dc:format>
        <dc:type
           rdf:resource="http://purl.org/dc/dcmitype/StillImage" />
        <dc:title></dc:title>
      </cc:Work>
    </rdf:RDF>
  </metadata>
  <g
     inkscape:label="Layer 1"
     inkscape:groupmode="layer"
     id="layer1">
    <g
       id="g183"
       transform="matrix(0.16110876,0,0,0.16110876,10.583333,58.982424)">
      <g
         fill="#1c90bd"
         id="g100">
        <polygon
           points="325.03,42.708 325.03,0.214 230.349,0.214 230.349,291.047 230.502,291.047 325.03,291.047 325.03,249.073 279.417,249.073 279.417,151.507 325.03,151.507 325.03,109.125 279.417,109.125 279.417,42.708 "
           id="polygon88" />
        <rect
           x="451.85999"
           width="49.069"
           height="290.793"
           id="rect90"
           y="0" />
        <polygon
           points="931.537,177.397 972.432,0 924.025,0 906.83,130.214 887.311,0 838.884,0 881.766,177.438 881.766,290.803 931.537,290.803 "
           id="polygon92" />
        <polygon
           points="86.446,123.64 116.321,0.01 67.222,0.01 49.079,120.358 49.079,0.01 0,0.01 0,290.803 49.079,290.803 49.079,159.825 72.013,290.803 121.061,290.803 86.558,123.64 "
           id="polygon94" />
        <polygon
           points="718.425,123.64 748.311,0.01 699.201,0.01 681.058,120.358 681.058,0.01 631.979,0.01 631.979,290.803 681.058,290.803 681.058,159.825 703.991,290.803 753.04,290.803 718.537,123.64 "
           id="polygon96" />
        <path
           d="m 1183.465,0 h -49.048 v 243.06 c 0,0 -0.163,8.277 -7.472,8.277 -6.9,0 -6.615,-8.277 -6.615,-8.277 V 0 h -49.282 l -0.011,243.06 c 0,0 1.937,48.375 56.407,48.375 54.002,0 56.021,-48.049 56.021,-48.049 z"
           id="path98" />
      </g>
      <rect
         y="353.979"
         width="1183.454"
         height="6.6459999"
         id="rect102"
         x="0" />
      <rect
         y="548.73401"
         width="1183.454"
         height="6.6360002"
         id="rect104"
         x="0" />
      <path
         d="m 1019.869,474.948 -0.021,-0.021 z"
         id="path106" />
      <path
         d="m 1099.853,402.884 v 18.959 h -10.407 c 1.224,-3.079 3.181,-8.389 3.181,-10.642 0,-3.69 -3.099,-7.604 -8.848,-7.604 -7.727,0 -8.521,5.555 -8.807,7.625 -1.203,9.582 -2.12,17.032 -4.862,25.258 0,0.031 -1.376,3.364 -1.376,3.364 -1.937,4.536 -2.364,5.667 -2.364,6.401 0,2.12 2.089,3.914 4.556,3.914 1.458,0 4.842,-0.092 14.933,-20.223 h 13.995 v 28.815 h -26.624 c -3.048,0 -5.025,1.58 -5.025,4.026 0,2.477 1.978,4.036 5.025,4.036 h 25.737 c -1.498,9.398 -6.585,31.231 -36.308,43.361 -1.661,0.652 -3.934,1.549 -3.934,4.189 0,1.988 1.65,4.026 4.403,4.026 1.742,0 30.884,-10.764 44.726,-36.511 3.578,7.339 8.705,14.005 14.658,19.794 8.419,8.195 18.031,14.331 23.402,15.962 1.601,0.489 3.629,-0.153 4.485,-1.498 0.692,-1.111 0.958,-2.569 0.509,-3.578 -1.202,-2.283 -4.117,-3.689 -9.499,-7.308 -4.954,-3.598 -9.765,-7.573 -11.885,-9.877 -7.125,-6.89 -11.987,-18.337 -13.363,-28.561 h 24.188 c 3.048,0 5.005,-1.559 5.005,-4.036 0,-0.938 -0.356,-4.026 -5.005,-4.026 h -25.247 v -28.815 h 22.016 c 4.679,0 5.046,-3.099 5.046,-4.057 0,-2.395 -2.028,-4.036 -5.046,-4.036 h -22.016 v -18.959 c 0,-5.004 -2.854,-8.011 -7.646,-8.011 -4.769,10e-4 -7.603,3.007 -7.603,8.012"
         id="path108" />
      <path
         d="m 1031.407,402.333 c -6.778,15.554 -14.688,24.106 -28.825,36.317 -0.734,0.622 -1.805,1.56 -1.805,3.231 0,2.202 2.028,4.037 4.414,4.037 2.507,0 8.796,-4.566 11.803,-6.86 0.856,0.968 2.191,1.58 3.955,1.58 h 11.335 v 13.067 h -24.035 c -3.037,0 -5.015,1.59 -5.015,4.067 0,2.436 1.978,4.026 5.015,4.026 h 24.035 v 39.905 c -2.202,0.316 -20.528,3.089 -20.528,3.089 -4.281,1.08 -5.779,4.036 -5.779,6.258 0,3.914 3.781,6.564 7.318,6.564 2.986,0 37.377,-9 53.115,-14.107 0.998,-0.285 4.046,-1.162 4.046,-4.22 0,-1.916 -1.886,-4.036 -4.424,-4.036 0,0 -16.339,3.374 -19.274,3.975 v -37.428 h 15.921 c 3.059,0 5.016,-1.59 5.016,-4.026 0,-2.477 -1.957,-4.067 -5.016,-4.067 h -15.921 v -13.067 h 11.182 c 3.048,0 5.015,-1.58 5.015,-4.036 0,-0.958 -0.356,-4.037 -5.015,-4.037 h -33.106 c 2.12,-1.937 6.758,-6.279 11.334,-11.885 1.539,-1.896 3.659,-4.627 5.311,-6.921 0.897,-1.244 1.754,-2.161 2.1,-2.141 0.815,0.061 1.54,1.284 3.608,3.313 1.285,1.284 3.935,3.894 4.435,4.383 4.454,4.383 11.222,9.846 14.27,9.948 2.437,0.082 4.414,-1.753 4.414,-3.894 0,-1.855 -1.122,-2.793 -1.774,-3.364 -8.226,-6.839 -10.946,-11.691 -15.656,-21.935 -2.323,-5.198 -7.461,-5.198 -9.938,-5.198 -7.841,0.002 -9.207,2.285 -11.531,7.462"
         id="path110" />
      <path
         d="m 1055.728,472.297 c -0.988,3.7 -1.794,9.663 -3.363,13.108 -0.744,1.611 -2.263,5.178 -0.459,7.156 2.212,2.426 5.137,0.825 7.472,-1.753 2.895,-3.129 8.857,-10.886 9.733,-16.084 0.693,-4.077 -3.802,-6.727 -6.859,-6.615 -2.294,0.06 -5.627,0.825 -6.524,4.188"
         id="path112" />
      <path
         d="m 1013.183,470.463 c -2.212,0.245 -3.476,2.202 -3.272,3.955 0.275,2.039 2.426,6.32 3.741,10.397 1.264,3.934 1.927,9.734 7.787,9.734 3.854,0 7.115,-2.884 7.115,-6.289 0,-3.445 -4.729,-9.133 -8.705,-13.302 -1.733,-1.906 -4.139,-4.77 -6.666,-4.495"
         id="path114" />
      <path
         d="m 479.442,487.016 c -3.445,-3.14 -5.932,-4.689 -7.237,-4.771 -2.446,-0.184 -4.2,2.039 -4.057,3.445 0.234,2.568 5.198,9.347 6.758,13.475 2.925,7.665 5.331,8.898 8.817,8.705 3.975,-0.214 7.033,-2.375 7.339,-6.197 0.306,-3.618 -6.299,-9.805 -11.62,-14.657"
         id="path116" />
      <path
         d="m 416.369,481.267 c 0,1.284 1.131,2.507 1.559,2.875 4.75,4.546 6.636,6.523 8.98,9.856 1.774,2.375 3.425,4.638 7.451,4.638 4.036,0 7.461,-2.823 7.461,-6.177 0,-4.424 -4.923,-6.269 -9.326,-9.112 -5.504,-3.527 -10.692,-5.688 -11.844,-5.749 -2.63,-0.143 -4.281,1.916 -4.281,3.669"
         id="path118" />
      <path
         d="m 389.664,485.65 v 18.266 c 0,10.683 4.444,13.944 18.989,13.944 h 28.663 c 10.692,0 16.543,-1.224 22.394,-4.729 3.955,-2.345 8.267,-8.399 7.686,-12.375 -0.479,-3.099 -3.201,-6.442 -8.134,-6.442 -4.893,0 -6.249,1.835 -9.459,9.051 -2.457,5.402 -5.851,6.432 -11.294,6.432 h -23.994 c -8.134,0 -8.725,-0.938 -8.725,-6.819 V 485.65 c 0,-5.086 -2.976,-8.124 -8.001,-8.124 -5.985,0 -8.125,4.19 -8.125,8.124"
         id="path120" />
      <path
         d="m 369.441,485.12 c -1.926,3.567 -6.055,9.357 -11.08,14.454 -2.518,2.507 -3.374,3.363 -3.374,5.667 0,3.323 3.099,5.933 7.033,5.933 3.282,0 5.667,-1.305 9.602,-8.399 4.24,-7.726 5.861,-15.493 5.861,-16.329 0,-2.283 -2.212,-3.69 -4.281,-3.69 -2.314,-10e-4 -3.292,1.61 -3.761,2.364"
         id="path122" />
      <path
         d="m 156.369,492.744 v 0 c -4.322,-2.395 -20.447,-10.906 -23.271,-10.906 -2.609,0 -4.006,1.906 -4.006,3.7 0,1.213 0.928,2.334 1.834,2.905 10.529,7.125 15.085,10.274 21.344,16.553 1.549,1.468 3.404,3.262 6.941,3.262 4.046,0 7.186,-2.681 7.186,-6.136 0.002,-3.558 -2.414,-5.097 -10.028,-9.378"
         id="path124" />
      <path
         d="m 78.76,486.649 c 0,-3.404 -3.282,-6.258 -7.186,-6.258 -2.049,0 -4.169,0.836 -5.82,2.304 -8.175,7.227 -15.738,13.516 -25.411,17.45 -1.529,0.693 -3.578,1.59 -3.578,3.833 0,1.896 1.784,3.547 3.833,3.547 2.202,0 15.83,-4.577 28.214,-11.498 5.545,-3.089 9.948,-5.525 9.948,-9.378"
         id="path126" />
      <path
         d="m 165.808,406.859 h -54.522 v -7.787 c 0,-5.045 -4.128,-7.359 -7.981,-7.359 -3.955,0 -7.971,2.528 -7.971,7.359 v 7.787 H 41.301 c -2.008,0 -5.219,1.203 -5.219,4.403 0,3.211 3.211,4.414 5.219,4.414 h 124.506 c 2.008,0 5.219,-1.203 5.219,-4.414 0,-3.037 -3.058,-4.403 -5.218,-4.403"
         id="path128" />
      <path
         d="m 151.007,458.425 v -19.886 c 0,-10.458 -4.617,-13.821 -19,-13.821 h -57.06 c -12.721,0 -19.183,2.14 -19.183,13.821 v 19.886 c 0,10.57 4.668,13.954 19.183,13.954 h 20.386 v 32.719 c 0,3.649 -0.214,4.688 -6.717,4.688 h -7.318 c -1.651,0 -6.044,0 -6.044,4.037 0,4.037 4.546,4.037 6.044,4.037 h 10.978 c 10.03,0 19.02,-0.999 19.02,-13.149 v -32.332 h 20.712 c 12.598,0 18.999,-2.161 18.999,-13.954 m -70.066,5.881 c -8.582,0 -8.878,-1.203 -8.878,-6.799 v -17.909 c 0,-5.871 0.602,-6.809 8.878,-6.809 h 45.042 c 8.491,0 8.725,0.958 8.725,6.809 v 17.909 c 0,5.943 -0.52,6.799 -8.725,6.799 z"
         id="path130" />
      <path
         d="m 400.346,397.583 c -5.729,5.239 -18.908,17.308 -41.139,26.247 -2.11,0.805 -4.77,1.825 -4.77,4.434 0,2.385 2.324,4.036 4.414,4.036 1.478,0 19.764,-5.004 40.802,-16.655 h 41.74 c 0.509,0 0.663,0.082 0.805,0.122 -0.897,1.794 -8.032,8.746 -13.903,13.75 H 375.74 c -3.231,0 -5.239,1.539 -5.239,4.046 0,0.938 0.387,4.037 5.239,4.037 h 78.934 c 7.155,0 7.42,1.029 7.42,5.871 v 4.566 h -82.236 c -4.729,0 -5.239,2.823 -5.239,4.046 0,0.938 0.377,4.026 5.239,4.026 h 82.236 v 4.423 c 0,4.974 0,5.871 -7.42,5.871 H 375.74 c -3.221,0 -5.239,1.549 -5.239,4.057 0,0.938 0.387,4.036 5.239,4.036 h 86.384 c 12.629,0 16.91,-3.16 16.91,-12.517 v -19.958 c 0,-8.113 -2.701,-12.506 -16.91,-12.506 h -14.942 c 13.566,-9.51 15.636,-13.18 15.636,-15.401 0,-3.262 -3.109,-6.564 -9.112,-6.564 H 412.19 c 2.681,-2.039 3.934,-3.649 3.934,-6.258 0,-3.914 -3.802,-7.094 -8.46,-7.094 -3.537,0.002 -5.402,1.531 -7.318,3.385"
         id="path132" />
      <path
         d="m 696.367,400.03 c -3.078,0 -5.056,1.59 -5.056,4.047 0,2.436 1.978,4.026 5.056,4.026 h 40.955 v 6.728 h -44.043 c -11.62,0 -16.798,2.018 -16.798,13.964 v 5.31 c 0,4.903 2.884,7.869 7.696,7.869 5.545,0 7.522,-4.087 7.522,-7.869 v -5.575 c 0,-4.627 0.234,-5.606 7.125,-5.606 h 38.498 v 22.669 c 0,4.852 2.823,7.747 7.532,7.747 5.556,0 7.533,-4.006 7.533,-7.747 v -22.669 h 38.641 c 6.615,0 7.146,0.835 7.146,5.606 v 5.575 c 0,4.903 2.803,7.869 7.522,7.869 5.667,0 7.686,-4.087 7.686,-7.869 v -5.31 c 0,-11.946 -5.219,-13.964 -16.951,-13.964 h -44.043 v -6.728 h 41.271 c 4.688,0 5.046,-3.068 5.046,-4.026 0,-1.967 -1.325,-4.047 -5.046,-4.047 z"
         id="path134" />
      <path
         d="m 763.742,428.59 c -4.688,0 -5.056,3.099 -5.056,4.046 0,2.436 1.978,4.026 5.056,4.026 h 20.335 c 3.027,0 5.065,-1.61 5.065,-4.026 0,-2.457 -1.978,-4.046 -5.065,-4.046 z"
         id="path136" />
      <path
         d="m 763.742,441.678 c -3.078,0 -5.056,1.59 -5.056,4.046 0,2.456 1.978,4.046 5.056,4.046 h 20.335 c 3.027,0 5.065,-1.631 5.065,-4.046 0,-2.457 -1.978,-4.046 -5.065,-4.046 z"
         id="path138" />
      <path
         d="m 703.258,441.678 c -3.078,0 -5.056,1.59 -5.056,4.046 0,2.456 1.978,4.046 5.056,4.046 h 20.345 c 3.027,0 5.056,-1.631 5.056,-4.046 0,-2.457 -1.978,-4.046 -5.056,-4.046 z"
         id="path140" />
      <path
         d="m 703.258,428.59 c -4.688,0 -5.056,3.099 -5.056,4.046 0,2.436 1.978,4.026 5.056,4.026 h 20.345 c 3.027,0 5.056,-1.61 5.056,-4.026 0,-2.457 -1.978,-4.046 -5.056,-4.046 z"
         id="path142" />
      <path
         d="m 804.127,494.722 c -5.28,0 -6.738,3.19 -8.756,7.573 -2.641,5.515 -3.537,6.575 -16.258,6.575 h -20.386 c -5.678,0 -6.666,-0.815 -6.666,-5.362 v -5.219 h 24.422 c 13.312,0 18.031,-2.059 18.031,-13.679 v -15.87 c 0,-10.866 -3.7,-13.709 -18.031,-13.709 h -62.666 c -13.189,0 -17.878,2.079 -17.878,13.709 v 15.87 c 0,10.866 3.659,13.679 17.878,13.679 h 23.342 v 5.362 c 0,10.07 4.189,13.292 17.267,13.292 h 30.559 c 12.466,0 16.023,-1.937 17.939,-2.966 5.249,-2.681 9.204,-8.572 9.204,-12.058 0,-3.966 -3.588,-7.197 -8.001,-7.197 m -52.065,-31.588 h 20.263 c 6.982,0 6.982,1.009 6.982,5.861 v 3.506 h -27.245 z m 0,17.44 h 27.245 v 3.751 c 0,4.77 0,5.891 -6.982,5.891 h -20.263 z m -14.903,9.642 h -19.02 c -7.146,0 -7.146,-1.121 -7.146,-5.891 v -3.751 h 26.165 v 9.642 z m 0,-17.715 h -26.165 v -3.506 c 0,-4.852 0,-5.861 7.146,-5.861 h 19.02 v 9.367 z"
         id="path144" />
    </g>
  </g>
</svg>
