<svg xmlns="http://www.w3.org/2000/svg" xmlns:svg="http://www.w3.org/2000/svg" id="svg16" width="800" height="800" version="1.1" viewBox="0 0 211.667 211.667"><defs id="defs10"><clipPath id="clipPath3436" clipPathUnits="userSpaceOnUse"><path id="path3438" d="m 0,0 119.62,0 0,30.0425 L 0,30.0425 0,0 Z"/></clipPath><clipPath id="clipPath3464" clipPathUnits="userSpaceOnUse"><path id="path3466" d="m 0,30.042 119.62,0 L 119.62,0 0,0 0,30.042 Z"/></clipPath></defs><metadata id="metadata13"/><g id="layer1"><g id="g3434" clip-path="url(#clipPath3436)" transform="matrix(1.5903087,0,0,-1.5903087,10.850603,127.08415)"><g id="g3440" transform="translate(86.8838,29.7607)"><path id="path3442" d="m 0,0 h -9.978 l -11.253,-29.494 h 9.983 z" style="fill:#00377e;fill-opacity:1;fill-rule:nonzero;stroke:none"/></g><g id="g3444" transform="translate(72.6348,29.7607)"><path id="path3446" d="M 0,0 -2.303,-6.183 H -17.64 l -2.007,-5.265 h 13.994 l -2.334,-5.937 h -13.926 l -2.198,-5.765 h 15.407 l -2.493,-6.344 H -35.561 L -24.313,0 Z" style="fill:#00377e;fill-opacity:1;fill-rule:nonzero;stroke:none"/></g><g id="g3448" transform="translate(11.3085,29.7603)"><path id="path3450" d="M 0,0 -11.309,-29.494 H 0.038 l 2.179,5.659 -4.345,12.29 L 10.07,-3.348 11.351,0 Z" style="fill:#00377e;fill-opacity:1;fill-rule:nonzero;stroke:none"/></g><g id="g3452" transform="translate(35.0864,0.2666)"><path id="path3454" d="m 0,0 h -12.672 l -6.004,17.932 h 12.29 z" style="fill:#00377e;fill-opacity:1;fill-rule:nonzero;stroke:none"/></g><g id="g3456" transform="translate(46.1758,29.7607)"><path id="path3458" d="m 0,0 h -12.612 l -17.154,-11.562 h 12.291 z" style="fill:#c8006b;fill-opacity:1;fill-rule:nonzero;stroke:none"/></g><g id="g3460"><g id="g3462" clip-path="url(#clipPath3464)"><g id="g3468" transform="translate(110.0342,20.6392)"><path id="path3470" d="m 0,0 c 0,0 -0.255,-1.65 -3.171,-8.518 0,0 -0.673,-1.525 -1.355,-2.566 0,0 -1.416,-2.405 -4.916,-2.643 0,0 -2.359,-0.211 -4.827,-0.019 0,0 -3.258,-0.112 -2.559,2.892 l 0.623,2.041 c 0,0 1.678,4.686 3.149,7.769 1.466,3.086 3.721,3.444 4.779,3.633 0,0 3.11,0.245 5.85,0.041 0,0 3.008,-0.082 2.427,-2.63 m -19.577,-20.38 v 0 c 3.728,-0.471 10.042,-0.156 10.042,-0.156 8.069,0.131 11.18,4.08 11.18,4.08 1.607,1.48 3.212,4.91 3.212,4.91 2.06,4.343 3.83,9.57 3.83,9.57 C 9.611,0.727 9.575,2.687 9.575,2.687 9.709,4.712 8.465,6.32 8.465,6.32 6.704,9.196 1.75,9.249 1.75,9.249 c -3.599,0.337 -9.942,0.016 -9.942,0.016 -6.149,-0.16 -9.172,-2.97 -9.172,-2.97 -2.919,-2.326 -4.464,-6.319 -4.464,-6.319 l -1.62,-3.806 c -1.761,-4.425 -2.767,-8.167 -2.767,-8.167 0,0 -2.334,-7.471 6.638,-8.383" style="fill:#00377e;fill-opacity:1;fill-rule:nonzero;stroke:none"/></g></g></g></g></g></svg>