<?xml version="1.0" encoding="UTF-8" standalone="no"?>
<svg
   xmlns:dc="http://purl.org/dc/elements/1.1/"
   xmlns:cc="http://creativecommons.org/ns#"
   xmlns:rdf="http://www.w3.org/1999/02/22-rdf-syntax-ns#"
   xmlns:svg="http://www.w3.org/2000/svg"
   xmlns="http://www.w3.org/2000/svg"
   xmlns:sodipodi="http://sodipodi.sourceforge.net/DTD/sodipodi-0.dtd"
   xmlns:inkscape="http://www.inkscape.org/namespaces/inkscape"
   width="800"
   height="800"
   viewBox="0 0 211.66666 211.66667"
   version="1.1"
   id="svg16"
   inkscape:version="1.0.2 (e86c870879, 2021-01-15)"
   sodipodi:docname="keisei_electric_railway.svg">
  <defs
     id="defs10" />
  <sodipodi:namedview
     id="base"
     pagecolor="#ffffff"
     bordercolor="#666666"
     borderopacity="1.0"
     inkscape:pageopacity="0.0"
     inkscape:pageshadow="2"
     inkscape:zoom="0.98994949"
     inkscape:cx="422.00961"
     inkscape:cy="368.14194"
     inkscape:document-units="px"
     inkscape:current-layer="surface379488"
     inkscape:document-rotation="0"
     showgrid="true"
     showguides="true"
     inkscape:guide-bbox="true"
     inkscape:snap-page="false"
     units="px"
     showborder="true"
     inkscape:showpageshadow="true"
     inkscape:pagecheckerboard="false"
     inkscape:snap-grids="true"
     inkscape:snap-to-guides="true"
     inkscape:lockguides="false"
     inkscape:window-width="2560"
     inkscape:window-height="1387"
     inkscape:window-x="-8"
     inkscape:window-y="-8"
     inkscape:window-maximized="1">
    <inkscape:grid
       type="xygrid"
       id="grid18"
       originx="0"
       originy="0"
       enabled="true"
       spacingx="5.2916666"
       spacingy="5.2916666"
       empspacing="2"
       color="#3f3fff"
       opacity="0.05098039"
       empcolor="#3f3fff"
       empopacity="0.2" />
    <sodipodi:guide
       position="10.583333,105.83333"
       orientation="1,0"
       id="guide185"
       inkscape:locked="false" />
    <sodipodi:guide
       position="105.83333,201.08333"
       orientation="0,-1"
       id="guide187"
       inkscape:locked="false" />
    <sodipodi:guide
       position="201.08333,105.83333"
       orientation="1,0"
       id="guide189"
       inkscape:locked="false" />
    <sodipodi:guide
       position="105.83333,10.583336"
       orientation="0,-1"
       id="guide191"
       inkscape:locked="false" />
    <sodipodi:guide
       position="107.17508,106.0952"
       orientation="0,-1"
       id="guide193"
       inkscape:locked="false" />
  </sodipodi:namedview>
  <metadata
     id="metadata13">
    <rdf:RDF>
      <cc:Work
         rdf:about="">
        <dc:format>image/svg+xml</dc:format>
        <dc:type
           rdf:resource="http://purl.org/dc/dcmitype/StillImage" />
        <dc:title />
      </cc:Work>
    </rdf:RDF>
  </metadata>
  <g
     inkscape:label="Layer 1"
     inkscape:groupmode="layer"
     id="layer1">
    <g
       id="surface379488"
       transform="matrix(2.5352148,0,0,2.5352148,-1386.8811,-1632.8547)">
      <g
         id="g19730"
         transform="matrix(0.92672065,0,0,0.92672065,43.092105,45.001129)">
        <path
           style="fill:#211e1e;fill-opacity:1;fill-rule:nonzero;stroke:none;stroke-width:1.11104"
           d="m 560.13065,707.31894 0.70308,-0.0911 c 0.026,-0.004 0.0998,-0.0478 0.0998,-0.16059 0,-0.1041 -0.0824,-0.48607 -0.30381,-0.82894 -0.20831,-0.33418 -0.4991,-0.57722 -0.68137,-0.7161 0.82025,-0.009 1.74901,0.92877 1.74901,1.79676 0,0.35155 -0.19529,0.62496 -0.36455,0.62496 -0.11718,0 -0.18229,-0.0608 -0.32984,-0.23436 -0.0781,-0.0911 -0.12586,-0.14756 -0.34286,-0.22135 -0.20398,-0.0737 -0.41231,-0.11283 -0.52949,-0.1215 z m -1.1284,-0.69006 -0.026,0.0694 c -0.26908,0.66835 -0.29946,0.73779 -0.53816,1.31935 -0.0478,0.14756 -0.0521,0.1953 -0.0521,0.217 l 0.0868,0.40796 c 0,0.16926 -0.1302,0.27776 -0.3038,0.27776 -0.51645,0 -1.15878,-0.7378 -1.24124,-1.80544 -0.009,-0.19096 -0.0303,-0.9982 -0.0434,-1.16745 -0.0478,-0.42534 -0.11718,-0.54252 -0.28644,-0.85065 0.48174,0.0391 0.75082,0.26474 0.85932,0.37758 0.0565,0.0565 0.15624,0.16926 0.15624,0.40362 l -0.0216,0.18661 c -0.0911,0.36457 -0.16492,0.68573 -0.16492,1.00255 0,0.5642 0.2821,0.95046 0.39928,0.95046 0.0824,0 0.23869,-0.1953 0.32984,-0.30815 0.21266,-0.26473 0.69439,-0.93309 0.79855,-1.09801 z m 0,0"
           id="path20165"
           inkscape:connector-curvature="0" />
        <path
           style="fill:#211e1e;fill-opacity:1;fill-rule:nonzero;stroke:none;stroke-width:1.11104"
           d="m 563.91512,709.25458 c 0.35589,-0.026 0.92009,-0.1519 1.51033,-0.48608 0.5208,-0.29946 0.80723,-0.63363 0.80723,-1.09802 0,-0.32985 -0.20831,-0.8029 -0.87667,-0.8029 -0.54685,0 -1.26729,0.25606 -1.81846,0.8246 -0.10855,0.11284 -0.27776,0.29946 -0.45136,0.5208 -0.0998,0.13454 -0.217,0.26474 -0.3472,0.26474 -0.20832,0 -0.26474,-0.217 -0.26474,-0.3689 0,-0.28644 0.12151,-0.3906 0.50778,-0.74214 0.40796,-0.37757 1.97469,-2.20038 1.9964,-2.24812 l 0.013,-0.0303 -0.0651,-0.0521 c -0.0608,0 -0.88102,0.36022 -1.02424,0.44702 -0.22134,0.12152 -0.2821,0.16492 -0.3906,0.16492 -0.24304,0 -0.5208,-0.30379 -0.5208,-0.5859 0,-0.217 0.13888,-0.35588 0.21701,-0.44268 0.0737,0.27343 0.11283,0.40796 0.35587,0.40796 0.0998,0 0.59458,-0.0781 1.12406,-0.26908 l 0.45569,-0.16926 0.0652,-0.004 c 0.19095,0 0.59023,0.36457 0.59023,0.51647 0,0.12152 -0.0303,0.14321 -0.2604,0.28209 -0.29078,0.16058 -1.46258,1.3237 -1.736,1.71865 0.8029,-0.33418 1.11539,-0.44268 1.64486,-0.44268 1.0633,0 1.52768,0.58155 1.52768,1.15443 0,0.33852 -0.1519,0.67705 -0.55118,0.9982 -0.50344,0.39928 -1.48862,0.50778 -2.13093,0.50778 -0.16492,0 -0.24739,0 -0.37759,-0.0174 z m 0,0"
           id="path20167"
           inkscape:connector-curvature="0" />
        <path
           style="fill:#211e1e;fill-opacity:1;fill-rule:nonzero;stroke:none;stroke-width:1.11104"
           d="m 573.11158,707.17572 c -0.16492,0.55986 -0.68572,1.98772 -1.8445,1.98772 -0.43834,0 -0.71176,-0.23871 -0.78554,-0.46872 -0.0737,-0.20398 -0.0998,-0.56855 -0.11718,-0.85933 -0.0216,-0.29511 -0.0737,-0.65099 -0.40797,-0.65099 -0.26906,0 -0.51645,0.10855 -0.83761,0.49476 -0.27776,0.34285 -0.40362,0.63364 -0.62062,1.13274 -0.0954,0.21266 -0.18228,0.42532 -0.4123,0.42532 -0.19964,0 -0.2821,-0.14322 -0.2821,-0.39928 0,-0.24738 0.0737,-0.38626 0.31683,-0.72044 0.41663,-0.61194 1.41483,-2.37832 1.68825,-2.91214 l 0.0781,-0.26908 c 0,-0.1519 -0.17361,-0.27341 -0.49476,-0.36022 0.13454,-0.0954 0.26908,-0.13888 0.44267,-0.13888 0.45137,0 0.86366,0.37758 0.86366,0.60761 0,0.12586 -0.026,0.15623 -0.29078,0.44267 -0.34285,0.3906 -1.16311,1.42352 -1.3888,1.92696 0.48608,-0.32985 0.6944,-0.47306 1.11973,-0.47306 0.69006,0 0.74647,0.42967 0.80289,0.78554 0.0434,0.32116 0.0824,0.56854 0.19097,0.66835 l 0.25171,0.0955 c 0.30381,0 0.67705,-0.23437 0.8897,-0.40362 0.33853,-0.25606 0.58156,-0.60761 0.78554,-0.93744 z m 0,0"
           id="path20169"
           inkscape:connector-curvature="0" />
        <path
           style="fill:#211e1e;fill-opacity:1;fill-rule:nonzero;stroke:none;stroke-width:1.11104"
           d="m 575.75898,708.36921 c -0.13454,0 -0.6727,0.013 -0.6727,0.35589 0,0.3472 0.63363,0.3472 0.651,0.3472 0.60326,0 0.6293,-0.46004 0.63363,-0.61194 -0.10854,-0.0347 -0.28644,-0.0911 -0.61193,-0.0911 m 1.4756,-2.44342 c 0.78987,0 1.28464,0.44702 1.28464,0.78121 l -0.0824,0.21265 -0.1736,0.0608 c -0.13455,0 -0.23002,-0.0565 -0.33418,-0.11283 -0.13888,-0.0911 -0.29078,-0.16926 -0.50345,-0.16926 -0.61193,0 -0.61193,0.56855 -0.61193,0.7161 0,0.29512 0.0565,0.53382 0.0954,0.6944 0.52513,0.0911 0.84629,0.29511 0.95046,0.37758 0.16491,0.12152 0.27341,0.24304 0.27341,0.43833 0,0.16492 -0.0998,0.31248 -0.26474,0.31248 -0.16057,0 -0.38192,-0.17793 -0.48607,-0.25171 -0.22134,-0.19096 -0.33418,-0.2387 -0.42532,-0.27342 -0.009,0.0998 -0.0303,0.38625 -0.28211,0.57722 -0.2604,0.20397 -0.58589,0.22568 -0.74214,0.22568 -0.46871,0 -1.08934,-0.23002 -1.08934,-0.73346 0,-0.51647 0.54684,-0.75516 1.23257,-0.75516 0.11283,0 0.1953,0.009 0.26474,0.013 -0.009,-0.19964 -0.0174,-0.26473 -0.0174,-0.39494 0,-0.65533 0.37758,-0.93743 0.92442,-1.07631 l 0.24738,-0.0565 0.026,-0.0608 c 0,-0.0954 -0.30814,-0.29946 -0.88102,-0.41229 0.11284,-0.0434 0.30381,-0.11286 0.59459,-0.11286 m -2.15698,-0.42097 c 0.1041,-0.26474 0.18662,-0.55552 0.18662,-0.71176 0,-0.13454 -0.0608,-0.25606 -0.44268,-0.32551 0.0478,-0.0521 0.20831,-0.19963 0.44268,-0.19963 0.2387,0 0.5425,0.13888 0.69873,0.26908 l 0.0694,0.14322 c 0,0.0998 -0.0391,0.16058 -0.13019,0.29512 -0.0824,0.11284 -0.0954,0.13889 -0.21701,0.37758 0.0824,-0.0303 0.27776,-0.0911 0.47307,-0.18228 0.29511,-0.13454 0.29946,-0.13454 0.37323,-0.13454 0.12586,0 0.43401,0.10854 0.43401,0.28644 0,0.11284 -0.0998,0.16058 -0.14323,0.17793 -0.38192,0.13021 -0.77251,0.20833 -1.37143,0.32985 -0.0695,0.13454 -0.59458,1.18916 -0.78554,1.57542 -0.16927,0.38192 -0.434,0.82026 -0.57288,0.91573 l -0.13454,0.0434 c -0.0911,0 -0.27343,-0.1041 -0.27343,-0.36021 0,-0.17361 0.0738,-0.26041 0.20832,-0.41665 0.0521,-0.0651 0.6944,-0.9765 1.01122,-1.65353 -0.11718,0.0216 -0.24304,0.0478 -0.41663,0.0478 -0.59024,0 -0.80291,-0.32984 -0.80291,-0.54251 l 0.026,-0.13019 c 0.1736,0.2387 0.53382,0.25606 0.75516,0.25606 0.27776,0 0.48608,-0.0347 0.62061,-0.0608 z m 0,0"
           id="path20171"
           inkscape:connector-curvature="0" />
        <path
           style="fill:#211e1e;fill-opacity:1;fill-rule:nonzero;stroke:none;stroke-width:1.11104"
           d="m 582.72467,705.11423 c 0.29078,0.10855 0.70742,0.26039 0.70742,0.60325 0,0.15624 -0.10411,0.24738 -0.24304,0.30814 l 0.4774,0.3472 0.0738,0.11718 c 0,0.0911 -0.16492,0.0694 -0.34286,0.0694 -0.37324,0.0478 -0.74647,0.0998 -1.11104,0.15624 -0.0174,0.36021 -0.0608,0.57288 -0.10854,0.77251 h 1.46258 l 0.26041,-0.40362 0.0998,-0.0737 0.11718,0.0608 0.51212,0.40363 0.0608,0.0868 -0.0954,0.0694 h -2.41739 c 0.32985,0.41229 0.66403,0.68137 1.1501,0.90706 0.68138,0.32115 1.27597,0.37323 1.52334,0.39494 v 0.0347 c -0.46872,0.21265 -0.54683,0.46004 -0.62062,0.6944 -0.91574,-0.35154 -1.70562,-0.6727 -2.13527,-1.90092 -0.4991,1.31936 -1.8445,1.8228 -2.89912,1.87488 v -0.0303 c 0.94612,-0.28644 1.8879,-0.89837 2.24378,-1.97469 h -1.51901 c -0.43399,0 -0.55552,0.0174 -0.67703,0.0391 l -0.10411,-0.22569 c 0.29947,0.0303 0.59459,0.0434 0.89405,0.0434 h 1.44955 c 0.0478,-0.20397 0.0868,-0.37323 0.0954,-0.68138 -0.21699,0.013 -0.4904,0.0347 -0.93309,0.0347 -0.5208,0 -0.89839,-0.0174 -1.11971,-0.026 v -0.0478 c 1.59711,-0.16926 2.99024,-0.51212 3.40689,-0.77686 -0.10856,-0.0868 -0.11284,-0.11718 -0.18663,-0.40362 -0.0824,-0.32117 -0.12586,-0.3689 -0.22134,-0.47305 h -0.004 c -0.4123,0.49475 -0.75082,0.75949 -1.03292,0.95045 l -0.0303,-0.0347 c 0.21266,-0.29946 0.47306,-0.86801 0.59458,-1.18482 0.13888,-0.35587 0.14757,-0.42966 0.18662,-0.71176 l 0.78554,0.29946 0.0737,0.0911 c 0,0.0824 -0.0954,0.10855 -0.24738,0.13889 -0.10855,0.16925 -0.14321,0.21265 -0.21699,0.30813 h 1.06329 l 0.25172,-0.35588 0.0954,-0.0781 0.11718,0.0694 0.46873,0.35155 0.0608,0.0911 -0.0954,0.0651 z m -2.2568,0.004 c 0.10855,0.0478 0.30815,0.12152 0.3255,0.12586 0.16058,0.0694 0.42532,0.25606 0.42532,0.52514 0,0.18662 -0.15624,0.35588 -0.34286,0.35588 -0.24738,0 -0.28643,-0.19096 -0.3472,-0.53816 -0.009,-0.0695 -0.13888,-0.34286 -0.24304,-0.45136 -0.2604,0.35154 -0.5208,0.68571 -1.1284,1.09802 l -0.026,-0.0391 c 0.33851,-0.43835 0.69005,-1.25426 0.80289,-1.6926 0,-0.013 0.0434,-0.18661 0.0478,-0.40362 l 0.75516,0.31248 0.0954,0.0954 c 0,0.0824 -0.0651,0.0998 -0.22569,0.13889 -0.11283,0.18227 -0.1215,0.20397 -0.21699,0.32984 h 0.57722 l 0.20832,-0.29947 0.0954,-0.0781 0.11719,0.0652 0.3689,0.30379 0.0651,0.0911 -0.0954,0.0608 z m 0,0"
           id="path20173"
           inkscape:connector-curvature="0" />
        <path
           style="fill:#211e1e;fill-opacity:1;fill-rule:nonzero;stroke:none;stroke-width:1.11104"
           d="m 588.07589,707.56198 0.0565,0.0998 c 0,0.0651 -0.0478,0.0651 -0.28644,0.0868 -0.37759,0.24304 -0.87669,0.50344 -1.68826,0.64666 v -0.0303 c 0.88535,-0.53382 1.29765,-0.95913 1.4105,-1.18916 z m 1.59712,0.92442 c 0.76816,0.1041 1.37143,0.43833 1.37143,0.82459 0,0.20399 -0.16058,0.32551 -0.32116,0.32551 -0.18662,0 -0.26039,-0.12152 -0.44268,-0.39928 -0.0391,-0.0565 -0.33851,-0.49042 -0.62929,-0.71611 z m -1.44522,-0.14756 0.0565,0.0781 c 0,0.0695 -0.026,0.0737 -0.29078,0.11284 -0.63799,0.52948 -1.58845,0.90706 -2.2351,1.01556 l -0.0216,-0.0434 c 0.71175,-0.29946 1.65353,-1.085 1.82713,-1.34974 0.0781,-0.12586 0.0911,-0.14322 0.12585,-0.19529 z m -2.26982,-3.15952 c 0.55552,0.11718 0.8463,0.34285 0.8463,0.63798 0,0.17794 -0.10855,0.31248 -0.3038,0.31248 -0.217,0 -0.26474,-0.16492 -0.31248,-0.33852 -0.0174,-0.0868 -0.11284,-0.39927 -0.25172,-0.57722 z m 1.56239,-0.29078 0.20398,-0.27776 0.0998,-0.0781 0.11718,0.0651 0.34286,0.27776 0.0608,0.0911 -0.0998,0.0651 h -1.94432 c -0.38625,0 -0.5208,0.013 -0.68138,0.0434 l -0.0954,-0.22569 c 0.38192,0.0391 0.82459,0.0391 0.8897,0.0391 h 0.19963 c -0.009,-0.47305 -0.0651,-0.62061 -0.11284,-0.74214 l 0.68573,0.13021 c 0.11283,0.0216 0.15624,0.0478 0.15624,0.11718 l -0.16058,0.14755 c -0.004,0.13889 -0.004,0.18663 0,0.3472 z m -0.55118,1.32804 c 0.11285,-0.27776 0.27342,-0.75516 0.27342,-0.90272 v -0.22568 l 0.65534,0.26908 0.10855,0.10411 c 0,0.0565 -0.14323,0.10855 -0.2821,0.17794 -0.24737,0.22567 -0.45136,0.42098 -0.61629,0.57721 h 0.51647 l 0.19964,-0.25172 0.0955,-0.0781 0.12152,0.0651 0.29946,0.25171 0.0565,0.0911 -0.0954,0.0608 h -1.94432 c -0.009,0.5208 -0.0303,0.78553 -0.0565,1.08933 0.35587,-0.23869 0.85064,-0.72043 0.96348,-0.97649 l 0.56855,0.36021 0.0651,0.0824 c 0,0.0781 -0.11283,0.0781 -0.3038,0.0781 -0.37324,0.23434 -0.72043,0.38192 -1.302,0.55117 -0.0608,0.4991 -0.15624,1.31936 -0.8897,2.00941 l -0.0434,-0.009 c 0.1215,-0.17794 0.1866,-0.37757 0.22567,-0.57287 0.0824,-0.38626 0.18228,-0.98085 0.18228,-1.87488 0,-0.52514 -0.0478,-0.87668 -0.0738,-1.09803 l 0.68571,0.22135 z m 2.10056,1.94866 h 1.0633 v -0.7812 h -1.0633 z m 0,-1.79242 h 1.0633 v -0.70307 h -1.0633 z m 0,0.868 h 1.0633 v -0.72912 h -1.0633 z m 0.89838,-2.44776 c -0.1041,0.15624 -0.23002,0.34287 -0.59457,0.72911 h 0.69873 l 0.19964,-0.19529 0.0911,-0.0651 0.11718,0.0564 0.37758,0.26909 0.0781,0.0998 -0.20833,0.217 c 0,0.1041 0.009,0.63798 0.009,1.16745 0,0.32551 0.0303,1.03727 0.0303,1.12841 0,0.22134 -0.16058,0.32983 -0.39059,0.32983 -0.20832,0 -0.24304,-0.0694 -0.24304,-0.19095 v -0.026 h -1.05462 l -0.0521,0.17359 0.44702,0.27776 0.0737,0.0911 -0.28644,0.0911 c -0.35588,0.21266 -1.08933,0.59023 -1.79242,0.70308 l -0.013,-0.0434 c 0.434,-0.20398 1.03292,-0.68571 1.31503,-1.02423 -0.24739,0.009 -0.29078,-0.0565 -0.29078,-0.17795 l 0.004,-0.19095 c 0,-0.22135 0.013,-1.05028 0.013,-1.45391 0,-0.87233 -0.013,-0.96781 -0.0781,-1.44955 l 0.65101,0.21266 h 0.10855 c 0.0347,-0.35588 0.0347,-0.42532 0.0434,-0.72912 h -0.16492 c -0.43834,0 -0.55986,0.0216 -0.6727,0.0347 l -0.10856,-0.217 c 0.3038,0.026 0.59025,0.0347 0.89838,0.0347 h 0.98083 l 0.23437,-0.32983 0.0911,-0.0781 0.11284,0.0608 0.42965,0.33852 0.0652,0.0868 -0.0998,0.0695 z m 0,0"
           id="path20175"
           inkscape:connector-curvature="0" />
        <path
           style="fill:#211e1e;fill-opacity:1;fill-rule:nonzero;stroke:none;stroke-width:1.11104"
           d="m 593.46181,704.6889 c 0,-0.10411 -0.1736,-0.20833 -0.47305,-0.217 0.0651,-0.0651 0.24738,-0.24739 0.58591,-0.24739 0.34285,0 0.65968,0.20833 0.65968,0.36023 0,0.1041 -0.0434,0.14322 -0.18663,0.29078 -0.0521,0.0521 -0.0738,0.0824 -0.2604,0.33852 0.10854,-0.0303 0.25172,-0.0738 0.6076,-0.23002 0.11718,-0.0565 0.1736,-0.0608 0.22567,-0.0608 0.16493,0 0.40796,0.16492 0.40796,0.29078 0,0.1041 -0.0954,0.1736 -0.19095,0.20397 -0.42966,0.15625 -0.8463,0.21701 -1.41918,0.29946 -0.0911,0.13889 -0.5208,0.72044 -0.5859,0.85065 0.12152,-0.0565 0.3472,-0.1519 0.6727,-0.1519 0.57287,0 0.70308,0.30813 0.7812,0.50344 0.24738,-0.12587 0.63363,-0.31248 0.87667,-0.42966 0.33419,-0.1736 0.37759,-0.18662 0.37759,-0.28645 0,-0.0781 -0.026,-0.0868 -0.26909,-0.20397 0.0478,-0.0347 0.12153,-0.0651 0.27342,-0.0651 0.40363,0 0.82461,0.3385 0.82461,0.64665 0,0.17794 -0.10856,0.20398 -0.23437,0.22567 -0.59892,0.0911 -1.01121,0.15626 -1.7577,0.44269 0.0174,0.11718 0.0565,0.29512 0.0565,0.5642 0,0.1519 0,0.63798 -0.33852,0.63798 -0.18228,0 -0.3255,-0.17793 -0.3255,-0.42532 l 0.009,-0.50344 c -0.17359,0.0998 -0.53814,0.30814 -0.78554,0.62062 l -0.0868,0.25607 c 0,0.39494 0.59893,0.42097 0.9331,0.42097 0.31681,0 0.63798,-0.0478 0.9548,-0.0954 l 0.31248,-0.0391 c 0.23001,0 0.44702,0.23436 0.44702,0.38626 0,0.13019 -0.0954,0.217 -0.18662,0.24737 -0.16492,0.0521 -0.74214,0.10855 -1.11104,0.10855 -0.51212,0 -1.15443,-0.0824 -1.44088,-0.29513 -0.16491,-0.13019 -0.26474,-0.32115 -0.26474,-0.50342 0,-0.0565 0.0173,-0.35588 0.23002,-0.61195 0.34719,-0.42098 0.77253,-0.68137 0.9765,-0.81157 -0.0478,-0.29513 -0.0998,-0.57723 -0.44268,-0.57723 -0.33418,0 -0.63364,0.24738 -0.85498,0.59892 -0.0694,0.12586 -0.26474,0.44268 -0.33852,0.49911 l -0.13454,0.0478 c -0.20398,0 -0.24738,-0.21267 -0.24738,-0.37759 0,-0.23002 0.0391,-0.30379 0.35589,-0.60326 0.34285,-0.32983 0.65968,-0.79856 0.80289,-1.01989 -0.10855,0.0173 -0.18228,0.0216 -0.28643,0.0216 -0.66403,0 -0.84197,-0.40361 -0.83329,-0.651 0.20832,0.1736 0.43399,0.24739 0.83763,0.24739 0.22133,0 0.45135,-0.0303 0.54683,-0.0391 0.0868,-0.15624 0.29946,-0.53816 0.29946,-0.66402"
           id="path20177"
           inkscape:connector-curvature="0" />
        <path
           style="fill:#211e1e;fill-opacity:1;fill-rule:nonzero;stroke:none;stroke-width:1.11104"
           d="m 598.81737,707.50991 c 0.30379,0.0911 0.88536,0.37322 0.88536,0.76384 0,0.20397 -0.16058,0.34285 -0.32115,0.34285 -0.26042,0 -0.30381,-0.27776 -0.31683,-0.35588 -0.0521,-0.34286 -0.16058,-0.59024 -0.27342,-0.72044 z m -1.75336,1.77939 c 0.12586,-0.26908 0.36023,-1.14576 0.36023,-1.70562 l -0.013,-0.10411 0.63364,0.18228 0.0824,0.0608 -0.1302,0.13887 c -0.39494,0.90272 -0.65968,1.21955 -0.89838,1.45824 z m 4.71324,-3.89731 0.28644,-0.35589 0.10854,-0.0781 0.11719,0.0608 0.43399,0.36456 0.0608,0.0868 -0.0911,0.0651 h -1.3888 v 1.03292 h 0.35588 l 0.25606,-0.35587 0.1041,-0.0824 0.11718,0.0651 0.38625,0.34719 0.0781,0.10856 -0.0955,0.0651 h -2.02243 c -0.38192,0 -0.5208,0.013 -0.67704,0.0434 l -0.1041,-0.22133 c 0.39494,0.0303 0.82894,0.0303 0.89403,0.0303 h 0.1041 c -0.004,-0.82026 -0.004,-0.91574 -0.004,-1.03292 h -0.36023 c -0.38192,0 -0.51644,0.013 -0.67269,0.0434 l -0.1041,-0.22132 c 0.38625,0.0347 0.83328,0.0347 0.89403,0.0347 h 0.24304 c -0.013,-0.60761 -0.026,-0.8029 -0.15189,-1.19784 l 0.86365,0.14322 0.10411,0.0911 -0.20832,0.21699 v 0.74648 z m -4.59171,-0.20832 c 0.217,0.0564 0.49476,0.11717 0.66836,0.19962 0.0998,-0.37756 0.19095,-0.83327 0.20397,-0.98517 l 0.013,-0.20398 0.74214,0.29513 0.0998,0.10854 c 0,0.0565 -0.12586,0.0998 -0.24304,0.14323 l -0.36456,0.42532 -0.30813,0.3038 c 0.0954,0.0651 0.28209,0.21265 0.28209,0.43833 0,0.19965 -0.1736,0.33853 -0.35588,0.33853 -0.18227,0 -0.22134,-0.0781 -0.4123,-0.5425 -0.0608,-0.1519 -0.217,-0.38626 -0.35588,-0.4774 z m 2.19604,0.16057 0.0911,0.11718 c 0,0.0565 -0.0911,0.0868 -0.23437,0.12586 -0.0737,0.0738 -0.11718,0.1302 -0.54683,0.64666 -0.0911,0.10411 -0.29512,0.31248 -0.44268,0.47306 l 0.66836,-0.026 c -0.11284,-0.2604 -0.18227,-0.35588 -0.23436,-0.41665 l 0.013,-0.0303 c 0.91574,0.27775 0.95481,0.69005 0.95481,0.77686 0,0.13888 -0.12153,0.34285 -0.32985,0.34285 -0.19964,0 -0.24304,-0.1519 -0.26039,-0.21699 l -0.0824,-0.29513 -0.24738,0.0694 c -0.009,1.16746 0.0173,2.39134 0.0173,2.46512 0,0.19964 -0.23437,0.31247 -0.39494,0.31247 -0.14323,0 -0.21701,-0.0608 -0.21701,-0.17359 l 0.004,-0.11284 c 0.0173,-0.19095 0.0173,-0.68138 0.0173,-0.88536 0,-0.31682 0.013,-1.00687 0.004,-1.44956 l -0.50344,0.12152 -0.1519,0.0478 -0.17794,0.15191 -0.0781,-0.10411 -0.18662,-0.62496 c 0.30815,0.0478 0.7161,0.0565 0.98084,0.0478 0.19964,-0.35587 0.48174,-1.06764 0.5859,-1.37144 l 0.0738,-0.32984 z m 1.07631,3.65862 h 1.2152 v -1.41484 h -1.2152 z m 1.15879,-1.55806 0.19963,-0.24738 0.0998,-0.0737 0.11717,0.0608 0.35154,0.26908 0.0868,0.14322 -0.19965,0.19965 v 0.59023 c 0,0.13454 0.0391,0.72912 0.0391,0.84195 0,0.30815 -0.3038,0.33853 -0.39929,0.33853 -0.0954,0 -0.25172,0 -0.25172,-0.20399 l 0.013,-0.21699 h -1.21519 c 0.013,0.16492 0.0303,0.45135 -0.38627,0.45135 -0.23435,0 -0.23435,-0.14321 -0.23435,-0.23869 l 0.013,-0.29946 c 0.009,-0.27342 0.013,-0.55986 0.013,-0.83762 0,-0.32984 -0.026,-0.8463 -0.0954,-1.03292 l 0.75515,0.25606 z m 0,0"
           id="path20179"
           inkscape:connector-curvature="0" />
        <path
           style="fill:#211e1e;fill-opacity:1;fill-rule:nonzero;stroke:none;stroke-width:1.11104"
           d="m 608.53028,704.56738 c 0.27776,0.0868 0.53816,0.22568 0.53816,0.46872 0,0.14322 -0.10854,0.23001 -0.22568,0.23001 -0.10855,0 -0.12586,-0.0216 -0.38625,-0.31681 -0.20832,-0.25172 -0.3472,-0.33852 -0.57723,-0.45135 0.11719,-0.0173 0.32984,-0.0303 0.651,0.0694 m -0.3472,0.62929 c 0.16492,0.0824 0.3255,0.19096 0.3255,0.40363 0,0.14756 -0.1041,0.24304 -0.217,0.24304 -0.0868,0 -0.10855,-0.026 -0.2821,-0.26474 -0.24738,-0.35588 -0.32116,-0.42532 -0.61193,-0.63798 0.27342,0.0347 0.54684,0.12152 0.78553,0.25605 m -4.03619,-0.11717 c 0.30814,0 0.65534,-0.18228 0.83762,-0.27776 0.0216,-0.004 0.14755,-0.0781 0.25172,-0.0781 0.1519,0 0.53816,0.11719 0.53816,0.35155 0,0.12586 -0.14322,0.18662 -0.27343,0.2387 -0.23869,0.0954 -0.59457,0.29512 -0.94611,0.90271 -0.11284,0.19965 -0.44701,0.80291 -0.44701,1.44956 0,0.23436 0.0391,0.59892 0.29077,0.84196 0.22568,0.21701 0.49909,0.25173 0.64232,0.25173 0.72044,0 1.22822,-0.57289 1.41484,-1.01557 0.1953,-0.46871 0.26474,-0.96781 0.26474,-1.46691 0,-0.4123 -0.0694,-0.70743 -0.14756,-0.96348 -0.10855,-0.32551 -0.12153,-0.36456 -0.12153,-0.46439 0,-0.31681 0.31249,-0.31681 0.33853,-0.31681 0.22568,0 0.26908,0.21699 0.31247,0.40362 0.12586,0.55117 0.46439,1.02858 0.8897,1.42786 0.37325,0.36021 0.48174,0.45569 0.48174,0.72477 0,0.27776 -0.217,0.31249 -0.27776,0.31249 -0.39059,0 -0.80289,-0.81159 -1.18047,-1.54505 l -0.0565,-0.0608 -0.0303,0.0651 c 0,0.0911 0.0478,0.61628 0.0565,0.72912 0.0174,0.18662 0.0303,0.42531 0.0303,0.61194 0,0.37759 -0.0565,1.08499 -0.48609,1.53635 -0.35588,0.36022 -0.8463,0.55987 -1.36275,0.55987 -1.11539,0 -1.57108,-0.79857 -1.57108,-1.53636 0,-0.81592 0.4774,-1.4322 1.19784,-2.28719 l 0.0737,-0.11283 -0.0565,-0.0347 c -0.10855,0 -0.25172,0.0781 -0.66403,0.29946 l -0.19096,0.0565 c -0.32549,0 -0.434,-0.47738 -0.434,-0.63363 0,-0.1302 0.0434,-0.22567 0.0781,-0.31248 0.12587,0.16493 0.30815,0.34287 0.54684,0.34287"
           id="path20181"
           inkscape:connector-curvature="0" />
        <path
           style="fill:#211e1e;fill-opacity:1;fill-rule:nonzero;stroke:none;stroke-width:1.11104"
           d="m 612.7965,706.98476 c 0.2604,-0.18662 0.34286,-0.2387 0.50343,-0.37757 l 0.0868,-0.12587 c 0,-0.15624 -0.58156,-0.15624 -0.62931,-0.15624 -0.21699,0 -0.32115,0.0174 -0.43833,0.0303 0.34285,-0.32983 0.91574,-0.3906 1.18048,-0.3906 0.78988,0 1.03292,0.3906 1.03292,0.56421 0,0.16492 -0.10855,0.23001 -0.26474,0.23001 l -0.46005,-0.0303 c -0.26474,0 -0.72912,0.17794 -0.99385,0.29078 z m -0.87668,1.07198 c 0,0.65534 0.82459,0.65534 1.1067,0.65534 0.31682,0 0.43834,-0.026 0.70742,-0.0695 0.11284,-0.0216 0.16926,-0.0303 0.23437,-0.0303 0.26907,0 0.48173,0.2821 0.48173,0.42098 0,0.0174 0,0.11718 -0.12586,0.17795 -0.13888,0.0651 -0.44702,0.13453 -0.87667,0.13453 -1.53203,0 -1.78375,-0.65968 -1.78375,-0.92009 0,-0.16057 0.0651,-0.44701 0.28644,-0.61193 -0.009,0.0565 -0.0303,0.1302 -0.0303,0.24303 m -0.80291,-3.10742 c 0,-0.0911 0,-0.18662 -0.19096,-0.30815 -0.11284,-0.0738 -0.20398,-0.0998 -0.29077,-0.11283 0.0694,-0.0608 0.18228,-0.15624 0.3906,-0.15624 0.29078,0 0.82025,0.21265 0.82025,0.4991 0,0.0868 -0.013,0.11283 -0.10854,0.26907 -0.0998,0.16927 -0.12152,0.21701 -0.1953,0.38192 0.12586,-0.0521 0.23436,-0.0954 0.3472,-0.16491 0.24738,-0.15625 0.27776,-0.1736 0.38626,-0.1736 0.20397,0 0.34285,0.18661 0.34285,0.30379 0,0.12586 -0.14321,0.19964 -0.19095,0.22134 -0.0694,0.0391 -0.48608,0.22569 -1.11103,0.38192 -0.38627,1.07199 -0.75082,2.0615 -1.08067,2.78628 -0.20832,0.4557 -0.32116,0.4557 -0.4123,0.4557 -0.1519,0 -0.34287,-0.14323 -0.34287,-0.39928 0,-0.13888 0.026,-0.16926 0.22569,-0.48175 0.44702,-0.70307 0.7812,-1.36709 1.09802,-2.25679 -0.1736,0.0347 -0.40796,0.0695 -0.61194,0.0695 -0.54684,0 -0.77686,-0.34286 -0.80723,-0.60326 0.28643,0.13888 0.48608,0.16927 0.72043,0.16927 0.33418,0 0.67704,-0.0738 0.85498,-0.12152 0.0651,-0.20833 0.15624,-0.54685 0.15624,-0.7595"
           id="path20183"
           inkscape:connector-curvature="0" />
        <path
           style="fill:#211e1e;fill-opacity:1;fill-rule:nonzero;stroke:none;stroke-width:1.11104"
           d="m 618.81173,707.31894 0.70308,-0.0911 c 0.0303,-0.004 0.0998,-0.0478 0.0998,-0.16059 0,-0.1041 -0.0781,-0.48607 -0.29945,-0.82894 -0.21267,-0.33418 -0.50345,-0.57722 -0.6814,-0.7161 0.82027,-0.009 1.74903,0.92877 1.74903,1.79676 0,0.35155 -0.19531,0.62496 -0.36456,0.62496 -0.12153,0 -0.18228,-0.0608 -0.33418,-0.23436 -0.0824,-0.0911 -0.12585,-0.14756 -0.34286,-0.22135 -0.20398,-0.0737 -0.40796,-0.11283 -0.52948,-0.1215 z m -1.12406,-0.69006 -0.0303,0.0694 c -0.26474,0.66835 -0.29513,0.73779 -0.52948,1.31935 -0.0565,0.14756 -0.0608,0.1953 -0.0608,0.217 l 0.0868,0.40796 c 0,0.16926 -0.12151,0.27776 -0.29945,0.27776 -0.5208,0 -1.15444,-0.7378 -1.24125,-1.80544 -0.013,-0.19096 -0.0303,-0.9982 -0.0521,-1.16745 -0.0391,-0.42534 -0.10855,-0.54252 -0.27776,-0.85065 0.4774,0.0391 0.75082,0.26474 0.85497,0.37758 0.0565,0.0565 0.15625,0.16926 0.15625,0.40362 l -0.0216,0.18661 c -0.0868,0.36457 -0.15623,0.68573 -0.15623,1.00255 0,0.5642 0.27341,0.95046 0.3906,0.95046 0.0868,0 0.24303,-0.1953 0.32549,-0.30815 0.217,-0.26473 0.6944,-0.93309 0.8029,-1.09801 z m 0,0"
           id="path20185"
           inkscape:connector-curvature="0" />
        <path
           style="fill:#211e1e;fill-opacity:1;fill-rule:nonzero;stroke:none;stroke-width:1.11104"
           d="m 569.2186,712.81337 h -5.37725 v -0.88102 h -3.19424 v 0.88102 h -5.45971 v 1.4973 h 14.0312 z m 0,0"
           id="path20187"
           inkscape:connector-curvature="0" />
        <path
           style="fill:#211e1e;fill-opacity:1;fill-rule:nonzero;stroke:none;stroke-width:1.11104"
           d="m 555.06587,723.15125 h 2.81233 l 1.76203,-3.15518 h -2.81231 z m 0,0"
           id="path20189"
           inkscape:connector-curvature="0" />
        <path
           style="fill:#211e1e;fill-opacity:1;fill-rule:nonzero;stroke:none;stroke-width:1.11104"
           d="m 567.89491,720.01343 h -2.81232 l 1.7577,3.15951 h 2.81665 z m 0,0"
           id="path20191"
           inkscape:connector-curvature="0" />
        <path
           style="fill:#211e1e;fill-opacity:1;fill-rule:nonzero;stroke:none;stroke-width:1.11104"
           d="m 566.23268,717.81739 h -8.14617 v -1.28898 h 8.14617 z m 2.94253,-2.78194 h -14.01819 v 4.4051 h 5.49009 v 3.75409 h 3.19424 v -3.75409 h 5.33386 z m 0,0"
           id="path20193"
           inkscape:connector-curvature="0" />
        <path
           style="fill:#211e1e;fill-opacity:1;fill-rule:nonzero;stroke:none;stroke-width:1.11104"
           d="m 587.49867,723.12087 -1.72732,-4.50492 1.24124,-2.24378 h -2.10489 l -0.58591,-1.53202 h 2.44342 v -2.78628 h -2.24813 v 1.32804 h -0.75515 l -0.59024,-1.53201 h -3.10743 l 0.59023,1.53201 h -7.30854 l -0.67271,9.73027 h 2.9512 l 0.33851,-4.8825 h 1.32805 v 4.84344 h 2.77326 v -6.71831 h -3.97111 l 0.0998,-1.51466 h 5.01703 l 1.46259,3.79749 -2.48248,4.46152 h 3.08574 l 0.65533,-1.17614 0.46004,1.19785 z m 0,0"
           id="path20195"
           inkscape:connector-curvature="0" />
        <path
           style="fill:#211e1e;fill-opacity:1;fill-rule:nonzero;stroke:none;stroke-width:1.11104"
           d="m 603.74761,713.06076 -2.8e-4,-1.21086 h -13.77052 v 1.21086 h 5.44669 v 0.57287 h -5.44669 l -2.6e-4,0.7595 v 1.77505 h 2.3091 v -1.48861 h 0.75516 v 1.53202 h 1.59277 v -1.53202 h 0.78988 v 1.48861 h 2.8644 v -1.48861 h 0.71611 v 1.53202 h 1.59711 v -1.53202 h 0.74647 v 1.48861 h 2.39978 v -2.53455 h -5.45936 v -0.57287 z"
           id="path20197"
           inkscape:connector-curvature="0"
           sodipodi:nodetypes="cccccccccccccccccccccccccccccc" />
        <path
           style="fill:#211e1e;fill-opacity:1;fill-rule:nonzero;stroke:none;stroke-width:1.11104"
           d="m 595.27159,720.49082 h -2.43907 v -0.59891 h 2.43907 z m -2.43907,-2.51285 h 2.43473 v 0.6076 h -2.43473 z m 5.70275,1.91394 h 2.43475 v 0.59891 h -2.43475 z m 0.009,-1.91394 h 2.43475 v 0.6076 h -2.43475 z m -0.21265,4.28792 v -0.64667 h 5.41632 v -4.96496 h -13.77102 v 4.96496 h 5.45536 v 1.61448 h 8.4413 v -0.96781 z m 0,0"
           id="path20199"
           inkscape:connector-curvature="0" />
        <path
           style="fill:#211e1e;fill-opacity:1;fill-rule:nonzero;stroke:none;stroke-width:1.11104"
           d="m 611.38166,712.30559 1.64486,1.81846 h 2.39568 l -1.9313,-2.30887 h -4.10997 l -1.93565,2.30887 h 2.39568 z m 0,0"
           id="path20201"
           inkscape:connector-curvature="0" />
        <path
           style="fill:#211e1e;fill-opacity:1;fill-rule:nonzero;stroke:none;stroke-width:1.11104"
           d="m 612.77913,718.2731 h 2.22643 v -1.61449 h -2.22643 v -0.651 h 2.18303 v -1.53636 h -7.13929 v 1.53636 h 2.26547 v 0.651 h -2.26547 v 1.61449 h 2.26547 v 3.18121 h -2.26547 v 1.53635 h 7.22175 v -1.53635 h -2.26549 z m 0,0"
           id="path20203"
           inkscape:connector-curvature="0" />
        <path
           style="fill:#211e1e;fill-opacity:1;fill-rule:nonzero;stroke:none;stroke-width:1.11104"
           d="m 607.85759,720.76859 h 1.55805 v -1.81412 h -1.55805 z m 0,0"
           id="path20205"
           inkscape:connector-curvature="0" />
        <path
           style="fill:#211e1e;fill-opacity:1;fill-rule:nonzero;stroke:none;stroke-width:1.11104"
           d="m 613.51694,720.76859 h 1.55371 v -1.81412 h -1.55371 z m 0,0"
           id="path20207"
           inkscape:connector-curvature="0" />
        <path
           style="fill:#211e1e;fill-opacity:1;fill-rule:nonzero;stroke:none;stroke-width:1.11104"
           d="m 622.63528,722.9516 -1.97472,-5.04307 h 1.56676 v -1.49296 h -1.88791 v -1.66221 h 1.80544 v -1.57542 h -1.80544 v -1.37145 h -2.56059 v 1.37145 h -0.63364 v -1.32804 h -1.59278 v 2.90346 h 2.22642 v 1.66221 h -2.18737 v 1.49296 h 1.89658 l -1.98337,5.04307 h 2.35661 l 1.21087,-3.09007 1.2152,3.09007 z m 0,0"
           id="path20209"
           inkscape:connector-curvature="0" />
      </g>
      <g
         id="g19705"
         transform="matrix(1.8972526,0,0,1.9291606,-473.06879,-623.81773)">
        <path
           style="fill:#1e54ae;fill-opacity:1;fill-rule:nonzero;stroke:none"
           d="m 544.07212,669.27996 c 0.375,-0.19531 0.8125,-0.49218 1.10547,-0.6875 l 5.14063,-3.5664 c 0.26953,0.0156 0.54296,0.043 0.83593,0.043 0.25,0 0.52344,-0.0273 0.81641,-0.043 l -4.74609,3.0625 -1.77344,1.20312 c 1.67187,1.29688 3.40625,2.5586 5.07812,3.86719 l 1.69141,1.40234 v 0.0703 c -0.41797,-0.0117 -0.79688,-0.0391 -1.15234,-0.0391 -0.39454,0 -0.78907,0.0273 -1.16797,0.0391 -0.45703,-0.44922 -0.91797,-0.8711 -1.44141,-1.27735 l -4.55469,-3.58203 c -0.10547,-0.0547 -0.35547,-0.0977 -0.35547,-0.043 v 4.90235 c -0.33593,-0.0117 -0.6289,-0.0391 -0.92187,-0.0391 -0.30859,0 -0.625,0.0273 -0.91797,0.0391 v -9.60547 c 0.29297,0.0156 0.60938,0.043 0.91797,0.043 0.29297,0 0.58594,-0.0273 0.92187,-0.043 v 4.33984 c 0.0195,0.082 0.3125,0.0273 0.52344,-0.0859"
           id="path20211"
           inkscape:connector-curvature="0" />
        <path
           style="fill:#1e54ae;fill-opacity:1;fill-rule:nonzero;stroke:none"
           d="m 565.07993,671.67449 c 0,2.06641 -2.3164,3.29688 -5.16015,3.29688 -1.02344,0 -2.69531,-0.30078 -3.40625,-0.83984 0.20703,-0.41797 0.3164,-0.85547 0.39844,-1.28907 h 0.20703 c 0.8164,0.92578 1.75781,1.50782 3.38672,1.50782 1.6914,0 2.90625,-0.96875 2.90625,-2.11329 0,-2.6914 -6.54297,-1.50781 -6.54297,-4.78125 0,-1.86328 2.13281,-2.77734 4.63672,-2.77734 1.0039,0 2.21875,0.21484 2.99218,0.69531 -0.25,0.37891 -0.39843,0.78125 -0.5664,1.1875 h -0.20703 c -0.4375,-0.78125 -1.35938,-1.26172 -2.59375,-1.26172 -1.44141,0 -2.62891,0.66797 -2.62891,1.69532 0,2.66406 6.57812,1.59375 6.57812,4.67968"
           id="path20213"
           inkscape:connector-curvature="0" />
        <path
           style="fill:#1e54ae;fill-opacity:1;fill-rule:nonzero;stroke:none"
           d="m 559.6854,675.79559 c 10.9375,0 19.80078,0.91015 19.80078,3.04297 0,2.13281 -8.86328,3.03906 -19.80078,3.03906 -10.9375,0 -19.80468,-0.90625 -19.80468,-3.03906 0,-2.13282 8.86718,-3.04297 19.80468,-3.04297"
           id="path20215"
           inkscape:connector-curvature="0" />
        <path
           style="fill:#1e54ae;fill-opacity:1;fill-rule:nonzero;stroke:none"
           d="m 574.07993,665.86981 c -0.625,-0.0859 -1.2539,-0.125 -1.8789,-0.15625 l -2.08985,-0.0273 h -1.60937 v 3.52344 h 3.23828 c 0.62891,0 1.23438,-0.0547 1.85938,-0.0703 -0.0195,0.11328 -0.0625,0.23828 -0.0625,0.36719 0,0.10937 0.043,0.23828 0.0625,0.39453 -0.625,-0.0156 -1.23047,-0.0742 -1.85938,-0.0742 h -3.23828 v 4.10156 c 1.27344,0.0273 2.52734,-0.0273 3.78125,-0.0547 0.64844,-0.0156 1.27734,-0.0547 1.92187,-0.1289 -0.0195,0.15625 -0.0625,0.28515 -0.0625,0.42187 0,0.14453 0.043,0.28125 0.0625,0.42578 h -7.54296 v -9.5664 h 7.41796 c -0.0195,0.15234 -0.0625,0.28125 -0.0625,0.42187 0,0.14063 0.043,0.28125 0.0625,0.42188"
           id="path20217"
           inkscape:connector-curvature="0" />
        <path
           style="fill:#1e54ae;fill-opacity:1;fill-rule:nonzero;stroke:none"
           d="m 575.84556,674.63153 v -9.60547 c 0.28906,0.0156 0.60547,0.043 0.91797,0.043 0.29297,0 0.58203,-0.0273 0.91797,-0.043 v 9.60547 c -0.33594,-0.0117 -0.625,-0.0391 -0.91797,-0.0391 -0.3125,0 -0.62891,0.0273 -0.91797,0.0391"
           id="path20219"
           inkscape:connector-curvature="0" />
        <path
           style="fill:#d91738;fill-opacity:1;fill-rule:nonzero;stroke:none"
           d="m 556.03697,662.55731 h -2.48829 c -0.98046,0 -1.57812,0.55078 -1.33203,1.23047 l 2.12891,5.82421 c 0.24609,0.67579 0.64844,0.67579 0.89453,0 l 2.125,-5.82421 c 0.24609,-0.67969 -0.35156,-1.23047 -1.32812,-1.23047"
           id="path20221"
           inkscape:connector-curvature="0" />
        <path
           style="fill:#ffffff;fill-opacity:1;fill-rule:nonzero;stroke:none"
           d="m 554.72447,678.88543 c 0.0117,0.50781 -0.0469,0.92578 -0.38672,1.32031 -0.33985,0.39844 -0.86328,0.625 -1.38672,0.625 -1.05078,0 -1.92578,-0.87109 -1.92578,-1.92578 0,-1.07031 0.875,-1.94531 1.95312,-1.94531 0.65235,0 1.1875,0.29297 1.58203,0.80859 l -0.30468,0.28516 c -0.3086,-0.44141 -0.73438,-0.70312 -1.28516,-0.70312 -0.85156,0 -1.52734,0.71875 -1.52734,1.5625 0,0.39843 0.16015,0.77343 0.4375,1.05468 0.27343,0.27344 0.66796,0.47657 1.0625,0.47657 0.64843,0 1.33593,-0.47657 1.33593,-1.16797 h -1.11328 v -0.39063 z m 0,0"
           id="path20223"
           inkscape:connector-curvature="0" />
        <path
           style="fill:#ffffff;fill-opacity:1;fill-rule:nonzero;stroke:none"
           d="m 555.90806,679.12371 h 0.10156 l 1.13281,1.64453 h 0.51172 l -1.1914,-1.67578 c 0.57422,-0.0508 0.9375,-0.45703 0.9375,-1.03515 0,-0.84375 -0.66016,-1.03516 -1.36719,-1.03516 h -0.54688 v 3.74609 h 0.42188 z m 0,-1.71093 h 0.125 c 0.5,0 0.94922,0.0586 0.94922,0.67578 0,0.57812 -0.47656,0.66797 -0.94531,0.66797 h -0.12891 z m 0,0"
           id="path20225"
           inkscape:connector-curvature="0" />
        <path
           style="fill:#ffffff;fill-opacity:1;fill-rule:nonzero;stroke:none"
           d="m 560.11509,676.95965 c -1.06641,0 -1.94922,0.87109 -1.94922,1.94141 0,1.07812 0.88281,1.92968 1.94922,1.92968 1.06641,0 1.95313,-0.85156 1.95313,-1.92968 0,-1.07032 -0.88672,-1.94141 -1.95313,-1.94141 m 0,0.39063 c 0.85938,0 1.53516,0.69531 1.53516,1.54687 0,0.84375 -0.6836,1.54688 -1.53516,1.54688 -0.84766,0 -1.53516,-0.70313 -1.53516,-1.54688 0,-0.85156 0.67579,-1.54687 1.53516,-1.54687"
           id="path20227"
           inkscape:connector-curvature="0" />
        <path
           style="fill:#ffffff;fill-opacity:1;fill-rule:nonzero;stroke:none"
           d="m 563.21275,679.25653 c 0,0.27734 -0.008,0.59375 0.16406,0.83203 0.16406,0.22656 0.48047,0.35547 0.75391,0.35547 0.26953,0 0.5625,-0.1211 0.73437,-0.33204 0.19922,-0.23828 0.18359,-0.5664 0.18359,-0.85546 v -2.23438 h 0.41797 v 2.34766 c 0,0.40625 -0.0312,0.73047 -0.32812,1.03515 -0.25781,0.28125 -0.62891,0.42578 -1.00781,0.42578 -0.35157,0 -0.71094,-0.13281 -0.96875,-0.38281 -0.32422,-0.30859 -0.36329,-0.65234 -0.36329,-1.07812 v -2.34766 h 0.41407 z m 0,0"
           id="path20229"
           inkscape:connector-curvature="0" />
        <path
           style="fill:#ffffff;fill-opacity:1;fill-rule:nonzero;stroke:none"
           d="m 566.79868,679.13153 h 0.30079 c 0.3125,0 0.63671,-0.0391 0.89062,-0.25 0.23047,-0.19532 0.35547,-0.5 0.35547,-0.80469 0,-0.33203 -0.14453,-0.66016 -0.42188,-0.85156 -0.27343,-0.19141 -0.60546,-0.20313 -0.92968,-0.20313 h -0.61328 v 3.74609 h 0.41796 z m 0,-1.71875 h 0.15235 c 0.48828,0 0.98047,0.043 0.98047,0.65625 0,0.53515 -0.39453,0.67578 -0.85547,0.67578 h -0.27735 z m 0,0"
           id="path20231"
           inkscape:connector-curvature="0" />
      </g>
    </g>
  </g>
</svg>
