<?xml version="1.0" encoding="UTF-8" standalone="no"?>
<svg
   xmlns:dc="http://purl.org/dc/elements/1.1/"
   xmlns:cc="http://creativecommons.org/ns#"
   xmlns:rdf="http://www.w3.org/1999/02/22-rdf-syntax-ns#"
   xmlns:svg="http://www.w3.org/2000/svg"
   xmlns="http://www.w3.org/2000/svg"
   xmlns:sodipodi="http://sodipodi.sourceforge.net/DTD/sodipodi-0.dtd"
   xmlns:inkscape="http://www.inkscape.org/namespaces/inkscape"
   width="800"
   height="800"
   viewBox="0 0 211.66666 211.66667"
   version="1.1"
   id="svg16"
   inkscape:version="1.0.2 (e86c870879, 2021-01-15)"
   sodipodi:docname="meitetsu.svg">
  <defs
     id="defs10" />
  <sodipodi:namedview
     id="base"
     pagecolor="#ffffff"
     bordercolor="#666666"
     borderopacity="1.0"
     inkscape:pageopacity="0.0"
     inkscape:pageshadow="2"
     inkscape:zoom="0.98994949"
     inkscape:cx="424.256"
     inkscape:cy="384.57907"
     inkscape:document-units="px"
     inkscape:current-layer="surface379488"
     inkscape:document-rotation="0"
     showgrid="true"
     showguides="true"
     inkscape:guide-bbox="true"
     inkscape:snap-page="false"
     units="px"
     showborder="true"
     inkscape:showpageshadow="true"
     inkscape:pagecheckerboard="false"
     inkscape:snap-grids="true"
     inkscape:snap-to-guides="true"
     inkscape:lockguides="false"
     inkscape:window-width="2560"
     inkscape:window-height="1387"
     inkscape:window-x="2552"
     inkscape:window-y="-8"
     inkscape:window-maximized="1">
    <inkscape:grid
       type="xygrid"
       id="grid18"
       originx="0"
       originy="0"
       enabled="true"
       spacingx="5.2916666"
       spacingy="5.2916666"
       empspacing="2"
       color="#3f3fff"
       opacity="0.05098039"
       empcolor="#3f3fff"
       empopacity="0.2" />
    <sodipodi:guide
       position="10.583333,105.83333"
       orientation="1,0"
       id="guide185"
       inkscape:locked="false" />
    <sodipodi:guide
       position="105.83333,201.08333"
       orientation="0,-1"
       id="guide187"
       inkscape:locked="false" />
    <sodipodi:guide
       position="201.08333,105.83333"
       orientation="1,0"
       id="guide189"
       inkscape:locked="false" />
    <sodipodi:guide
       position="105.83333,10.583336"
       orientation="0,-1"
       id="guide191"
       inkscape:locked="false" />
    <sodipodi:guide
       position="107.17508,106.0952"
       orientation="0,-1"
       id="guide193"
       inkscape:locked="false" />
  </sodipodi:namedview>
  <metadata
     id="metadata13">
    <rdf:RDF>
      <cc:Work
         rdf:about="">
        <dc:format>image/svg+xml</dc:format>
        <dc:type
           rdf:resource="http://purl.org/dc/dcmitype/StillImage" />
        <dc:title></dc:title>
      </cc:Work>
    </rdf:RDF>
  </metadata>
  <g
     inkscape:label="Layer 1"
     inkscape:groupmode="layer"
     id="layer1">
    <g
       id="surface379488"
       transform="matrix(2.5352148,0,0,2.5352148,-1386.8811,-1632.8547)">
      <g
         transform="matrix(0.4557898,0,0,0.4557898,486.555,362.16694)"
         id="g3639">
        <g
           id="g3672"
           transform="matrix(0.1875,0,0,0.1875,141.87748,527.41741)">
          <path
             id="path2875"
             style="font-style:normal;font-variant:normal;font-weight:normal;font-stretch:normal;font-size:300px;line-height:125%;font-family:'TRM Font MT';-inkscape-font-specification:'TRM Font MT';text-align:start;writing-mode:lr-tb;text-anchor:start;fill:#004ea2;fill-opacity:1;stroke:none"
             d="m 65.039062,1051.1903 c 0.390518,-4.2968 1.660048,-8.1542 3.808594,-11.5723 2.148324,-3.4179 4.882697,-6.6894 8.203125,-9.8144 12.304556,-10.3515 25.195169,-20.0195 38.671879,-29.0039 13.47639,-8.98429 27.05059,-18.06631 40.72265,-27.24611 L 145.3125,1025.702 c -1.36737,8.7891 -4.78534,15.4298 -10.25391,19.9219 h 58.30078 c -2.92991,-3.5156 -4.59007,-6.4453 -4.98046,-8.7891 -0.39086,-2.3437 -0.19555,-4.7851 0.58593,-7.3242 l 19.04297,-90.52732 c 12.49973,-14.45296 20.99582,-28.90607 25.48828,-43.35938 4.49191,-14.45291 6.54268,-26.56227 6.15234,-36.32812 h -3.51562 c -2.8e-4,2.7346 -0.92801,6.29905 -2.78321,10.69336 -1.85574,4.39475 -4.44363,8.78927 -7.76367,13.18359 -3.32057,4.39474 -10.44947,10.40059 -21.38672,18.01758 -10.93773,7.61737 -22.55881,15.47869 -34.86327,23.58398 -12.30489,8.10563 -25.39081,16.94351 -39.25782,26.51367 -13.86734,9.57045 -23.68178,16.89466 -29.44335,21.97266 -5.76186,5.07824 -10.205215,9.47277 -13.330083,13.18359 -3.125126,3.71105 -6.445435,7.71495 -9.960937,12.01172 -3.515741,4.29697 -7.373159,10.98637 -11.572266,20.06837 -4.199322,9.0821 -5.712993,20.3614 -4.541016,33.8379 z"
             sodipodi:nodetypes="cscsccccsccsccssssssssscc" />
          <path
             id="path2875-3"
             style="font-style:normal;font-variant:normal;font-weight:normal;font-stretch:normal;font-size:300px;line-height:125%;font-family:'TRM Font MT';-inkscape-font-specification:'TRM Font MT';text-align:start;writing-mode:lr-tb;text-anchor:start;fill:#00a496;fill-opacity:1;stroke:none"
             d="m 29.58984,1045.6239 c -1.95319,-2.1484 -3.1739,-4.7851 -3.66211,-7.9102 -0.48835,-3.1249 -0.43952,-6.2499 0.14649,-9.375 l 29.0039,-122.46095 h 0.58594 l 19.92187,48.63281 c -2.34386,4.68763 -3.95519,9.27747 -4.83398,13.76952 -0.87902,4.4923 -1.41613,8.4962 -1.61133,12.0117 -0.19542,3.5158 0.0975,8.2033 0.87891,14.0625 l 4.10156,-0.5859 c 0.78113,-7.0312 3.02723,-13.2323 6.73828,-18.6035 3.71081,-5.371 8.30065,-10.5956 13.76953,-15.67385 9.37486,-8.78892 17.9686,-15.72251 25.78126,-20.80078 7.81233,-5.07797 17.82208,-11.52327 30.02929,-19.33594 12.20683,-7.81232 24.16971,-15.52715 35.88867,-23.14453 11.71851,-7.61698 21.63061,-15.57596 29.73633,-23.87695 8.1052,-8.30056 15.18527,-19.14039 21.24023,-32.51953 6.0544,-13.37864 9.57003,-27.19699 10.54688,-41.45508 h -4.10157 c -1.36747,4.68779 -3.41825,9.42411 -6.15234,14.20898 -2.73465,4.78543 -6.15262,9.22879 -10.25391,13.33008 -17.969,13.08619 -36.42601,25.63501 -55.37108,37.64648 -18.94551,12.01194 -37.40253,24.4631 -55.3711,37.35352 -1.17203,-3.90605 -2.58805,-7.22636 -4.24805,-9.96094 -1.6603,-2.73417 -3.95522,-5.37088 -6.88476,-7.91015 -2.92983,-2.53885 -5.85952,-4.39432 -8.78907,-5.56641 -2.92982,-1.17166 -5.95716,-2.05056 -9.08203,-2.63672 H 38.3789 c 2.14836,2.14865 3.51554,4.05295 4.10157,5.71289 0.58585,1.66037 0.78116,3.56466 0.58593,5.71289 L 12.01172,1024.2372 c -1.36724,5.8594 -2.88091,10.3028 -4.54102,13.3301 -1.6602,3.0274 -4.15044,5.7129 -7.4707,8.0566 z"
             sodipodi:nodetypes="csccccssccscsssssccscscsssccsccscc" />
        </g>
        <path
           d="m 197.96287,723.25734 1.1402,-2.79297 c -0.76021,0.42969 -1.52033,0.57292 -2.2804,0.42969 h -7.75333 l 2.05236,-8.8086 c 1.21614,10e-6 2.62238,10e-6 4.21872,0 1.59621,10e-6 2.85042,-0.50129 3.76265,-1.5039 l 0.45607,-1.07422 h -3.87666 c -1.97641,10e-6 -3.42066,0.50131 -4.33275,1.5039 l 1.59628,-8.3789 h 7.29726 c 0.76005,0.14325 1.21613,0.4297 1.36823,0.85937 l 0.68412,-3.22265 h -15.50668 c 0.45603,0.71616 0.45603,1.79038 0,3.22265 l -3.87666,17.40235 c -0.30411,0.71614 -0.8362,1.5039 -1.59628,2.36328 z m 9.80569,0 c -0.45616,-0.71615 -0.6842,-1.43229 -0.68412,-2.14844 l 3.87667,-17.61719 c 0.15194,-1.28904 0.68403,-2.36326 1.59628,-3.22265 h -7.75334 c 0.45599,0.85939 0.53201,1.93361 0.22803,3.22265 l -3.87666,17.40235 c -0.30413,1.0026 -0.7602,1.79036 -1.36823,2.36328 z m 14.82255,0 c -0.6082,-0.57292 -0.83624,-1.36068 -0.68412,-2.36328 l 3.87667,-18.26172 c 1.21612,2e-5 2.3183,2e-5 3.30657,0 0.98806,2e-5 1.93823,-0.42967 2.85049,-1.28906 l 0.45607,-1.07422 h -17.33097 l -1.36824,3.22265 c 0.91207,-0.57289 2.05227,-0.85935 3.42059,-0.85937 h 2.96451 l -4.10471,18.26172 c -0.15211,0.71614 -0.6842,1.5039 -1.59627,2.36328 z m 80.26982,0 c -0.60828,-0.85938 -0.76031,-2.22005 -0.45607,-4.08203 l 2.73646,-15.46875 c 0.30388,-1.28905 0.83597,-2.43488 1.59628,-3.4375 h -7.29726 c 0.45591,1.00262 0.53192,2.14845 0.22804,3.4375 l -3.19255,16.75781 c -0.7603,0.71615 -1.67245,1.07422 -2.73647,1.07422 -1.06435,0 -1.86249,-0.14323 -2.39442,-0.42969 -0.53225,-0.28646 -0.8363,-0.68034 -0.91215,-1.18164 -0.0762,-0.5013 -0.11419,-1.32487 -0.11402,-2.4707 l 2.50843,-13.96485 c 0.30389,-1.43227 0.83598,-2.50649 1.59627,-3.22265 h -7.75332 c 0.60793,1.00262 0.83598,2.14845 0.68411,3.4375 l -2.50843,15.68359 c -1.6e-4,1.43229 0.26589,2.39909 0.79814,2.90039 0.53193,0.5013 1.40608,0.82357 2.62244,0.9668 1.21605,0.14323 2.28024,0.17903 3.19256,0.10742 0.91199,-0.0716 1.74813,-0.25065 2.50843,-0.53711 0.75997,-0.28646 1.5961,-0.57292 2.50843,-0.85937 l -0.45608,1.28906 z m -38.3106,-0.64453 c 1.21608,0.42968 2.35627,0.68033 3.42059,0.75195 1.06404,0.0716 2.31826,0.10742 3.76265,0.10742 1.4441,0 2.92635,-0.25065 4.44676,-0.75195 1.52011,-0.5013 2.66031,-1.11003 3.42059,-1.82617 0.75998,-0.71615 1.36809,-1.61133 1.82432,-2.68555 0.45592,-1.07421 0.68397,-2.14843 0.68412,-3.22266 -1.5e-4,-1.07421 -0.2662,-2.07681 -0.79814,-3.00781 -0.53225,-0.93098 -1.78646,-2.11262 -3.76264,-3.54492 -1.97649,-1.43228 -3.07868,-2.43488 -3.30658,-3.00781 -0.22818,-0.5729 -0.26619,-1.14582 -0.11402,-1.71875 0.15188,-0.5729 0.53194,-0.96678 1.1402,-1.18164 0.60796,-0.21483 1.29208,-0.35806 2.05235,-0.42969 0.75999,-0.0716 1.36808,-0.0716 1.82431,0 0.45594,0.0716 1.06403,0.25067 1.82432,0.53711 0.75997,0.28648 1.52011,0.93101 2.28039,1.93359 l 0.68412,-4.29687 c -2.12852,-0.28644 -3.61077,-0.46548 -4.44676,-0.53711 -0.83629,-0.0716 -1.71045,-0.0716 -2.62245,0 -0.91231,0.0716 -1.90048,0.32229 -2.96451,0.75195 -1.06433,0.42971 -2.0145,1.03843 -2.8505,1.82617 -0.83628,0.78778 -1.44439,1.57554 -1.82431,2.36328 -0.38021,0.78778 -0.53224,1.64716 -0.45608,2.57813 0.0759,0.931 0.2659,1.71876 0.5701,2.36328 0.30391,0.64454 1.48211,1.68295 3.53461,3.11523 2.0522,1.4323 3.1924,2.61394 3.42059,3.54493 0.22789,0.93099 0.18988,1.68294 -0.11403,2.25586 -0.30419,0.57292 -0.68426,1.03841 -1.14018,1.39648 -0.45623,0.35807 -1.06434,0.57292 -1.82432,0.64453 -0.76028,0.0716 -1.55842,0.10742 -2.39441,0.10742 -0.83629,0 -1.63443,-0.17903 -2.39441,-0.53711 -0.76028,-0.35807 -1.67244,-1.0384 -2.73648,-2.04101 z m -18.24314,0.64453 0.68412,-2.79297 c -0.60822,0.42969 -1.29233,0.57292 -2.05235,0.42969 h -7.98138 l 2.05235,-8.8086 c 1.36813,10e-6 2.85038,10e-6 4.44678,0 1.59615,10e-6 2.77436,-0.50129 3.5346,-1.5039 l 0.68412,-1.07422 h -4.10471 c -1.97645,10e-6 -3.42069,0.50131 -4.33274,1.5039 l 1.82431,-8.3789 h 7.29726 c 0.76001,0.14325 1.14007,0.4297 1.1402,0.85937 l 0.68411,-3.22265 h -15.50667 c 0.45597,0.71616 0.53198,1.79038 0.22805,3.22265 l -4.33276,17.40235 c -0.15212,0.71614 -0.6082,1.5039 -1.36823,2.36328 z m 14.59451,0 c -0.60823,-0.57292 -0.83627,-1.36068 -0.68411,-2.36328 l 3.87667,-18.26172 c 1.21607,2e-5 2.31826,2e-5 3.30657,0 0.98803,2e-5 1.93819,-0.42967 2.85049,-1.28906 l 0.45607,-1.07422 h -17.33098 l -1.36823,3.22265 c 0.76,-0.57289 1.90019,-0.85935 3.42058,-0.85937 h 2.96451 l -4.10471,18.26172 c -0.15214,0.71614 -0.68424,1.5039 -1.59627,2.36328 z"
           id="path2864"
           sodipodi:nodetypes="cccccscccccccccccccccccccccccccsccccccccccccccccsssccccccssssccccssssssssssssssccsssssssssssssscccccccsccccccccccccccccsccccccccc"
           style="font-style:normal;font-variant:normal;font-weight:normal;font-stretch:normal;font-size:220px;line-height:125%;font-family:'TRM Font MT';-inkscape-font-specification:'TRM Font MT';text-align:start;writing-mode:lr-tb;text-anchor:start;fill:#004ea2;fill-opacity:1;stroke:none" />
      </g>
    </g>
  </g>
</svg>
