<?xml version="1.0" encoding="UTF-8" standalone="no"?>
<svg
   xmlns:dc="http://purl.org/dc/elements/1.1/"
   xmlns:cc="http://creativecommons.org/ns#"
   xmlns:rdf="http://www.w3.org/1999/02/22-rdf-syntax-ns#"
   xmlns:svg="http://www.w3.org/2000/svg"
   xmlns="http://www.w3.org/2000/svg"
   xmlns:sodipodi="http://sodipodi.sourceforge.net/DTD/sodipodi-0.dtd"
   xmlns:inkscape="http://www.inkscape.org/namespaces/inkscape"
   width="800"
   height="800"
   viewBox="0 0 211.66666 211.66667"
   version="1.1"
   id="svg16"
   inkscape:version="1.0.2 (e86c870879, 2021-01-15)"
   sodipodi:docname="nishitetsu_nishi_nippon_railroad.svg">
  <defs
     id="defs10" />
  <sodipodi:namedview
     id="base"
     pagecolor="#ffffff"
     bordercolor="#666666"
     borderopacity="1.0"
     inkscape:pageopacity="0.0"
     inkscape:pageshadow="2"
     inkscape:zoom="0.98994949"
     inkscape:cx="256.82819"
     inkscape:cy="438.08482"
     inkscape:document-units="px"
     inkscape:current-layer="layer1"
     inkscape:document-rotation="0"
     showgrid="true"
     showguides="true"
     inkscape:guide-bbox="true"
     inkscape:snap-page="true"
     units="px"
     showborder="true"
     inkscape:showpageshadow="true"
     inkscape:pagecheckerboard="false"
     inkscape:snap-grids="false"
     inkscape:snap-to-guides="true"
     inkscape:lockguides="false"
     inkscape:window-width="2560"
     inkscape:window-height="1387"
     inkscape:window-x="-8"
     inkscape:window-y="-8"
     inkscape:window-maximized="1">
    <inkscape:grid
       type="xygrid"
       id="grid18"
       originx="0"
       originy="0"
       enabled="true"
       spacingx="5.2916666"
       spacingy="5.2916666"
       empspacing="2"
       color="#3f3fff"
       opacity="0.05098039"
       empcolor="#3f3fff"
       empopacity="0.2" />
    <sodipodi:guide
       position="10.583333,105.83333"
       orientation="1,0"
       id="guide185"
       inkscape:locked="false" />
    <sodipodi:guide
       position="105.83333,201.08333"
       orientation="0,-1"
       id="guide187"
       inkscape:locked="false" />
    <sodipodi:guide
       position="201.08333,105.83333"
       orientation="1,0"
       id="guide189"
       inkscape:locked="false" />
    <sodipodi:guide
       position="105.83333,10.583336"
       orientation="0,-1"
       id="guide191"
       inkscape:locked="false" />
    <sodipodi:guide
       position="105.83333,105.83333"
       orientation="0,-1"
       id="guide193"
       inkscape:locked="false" />
  </sodipodi:namedview>
  <metadata
     id="metadata13">
    <rdf:RDF>
      <cc:Work
         rdf:about="">
        <dc:format>image/svg+xml</dc:format>
        <dc:type
           rdf:resource="http://purl.org/dc/dcmitype/StillImage" />
        <dc:title></dc:title>
      </cc:Work>
    </rdf:RDF>
  </metadata>
  <g
     inkscape:label="Layer 1"
     inkscape:groupmode="layer"
     id="layer1">
    <g
       id="g246"
       transform="matrix(0.14784633,0,0,0.14784633,8.037863,58.504863)">
	<path
   fill="#004ea2"
   d="M 194.217,399.391 C 128.551,388.558 113.801,277.974 113.801,277.974 L 71.717,391.391 h -54.5 l 77.6,-211.09 c 0,0 57.382,9.438 82.391,115.438 l 38.51,-103.348 h 54.5 z"
   id="path210" />

	<g
   id="g218">
		<g
   id="g216">
			<polygon
   fill="#004ea2"
   points="296.717,192.891 281.958,233.891 333.958,233.891 348.717,192.891 "
   id="polygon212" />

			<polygon
   fill="#004ea2"
   points="276.717,392.891 328.557,248.891 276.557,248.891 224.717,392.891 "
   id="polygon214" />

		</g>

	</g>

	<path
   fill="#004ea2"
   d="m 315.883,346.558 c 43.313,20.688 53.168,3.166 53.168,3.166 6.5,-11.524 -6.5,-15.5 -6.5,-15.5 -37.668,-14.333 -28.834,-46 -28.834,-46 21.166,-73.167 112.5,-35.465 112.5,-35.465 l -13,38.632 c -43.313,-20.688 -52.25,-5 -52.25,-5 -4.75,11 10.75,17.25 10.75,17.25 40.75,16 27,49 27,49 -25.5,69.5 -118.5,34 -118.5,34 z"
   id="path220" />

	<path
   fill="#004ea2"
   d="m 549.342,253.016 c -15.538,-0.509 -32.221,10.8 -41.33,18.11 l 28.705,-79.735 h -44 l -72,200 h 44 l 13.5,-37.754 v 0.002 c 0,0 20,-58.998 43.08,-57.748 11.236,0.608 12.819,8.512 10.939,17.656 l -7.729,20.975 c 0,0.002 0.005,-0.131 0.004,-0.131 h 0.004 l -20.799,57 h 44 l 33,-90 h -0.253 c 8.28,-35.127 -8.666,-47.639 -31.121,-48.375 z"
   id="path222" />

	<path
   fill="#004ea2"
   d="m 742.007,286.391 h 35.95 l 13.76,-36 h -36.613 l 15.946,-43.833 -48.999,12.447 -11.334,31.386 h -27 l -13.76,36 h 27.76 l -21.827,60.443 10e-4,-10e-4 c 0,0 -13.978,42.912 26.949,47.219 0,0 19.627,1.839 44.627,-4.161 l 14.25,-41.5 c -35.714,14.906 -41.708,4.875 -40.13,-5.871 0.838,-6.337 20.42,-56.129 20.42,-56.129 z"
   id="path224" />

	<path
   fill="#004ea2"
   d="m 897.717,335.391 c 0,0 42,-80 -33.25,-88.5 -75.25,-8.5 -130.916,124.621 -51.75,145.5 33.5,8.835 57.5,-3 57.5,-3 l 18.375,-40.375 c -88.542,28.542 -73.875,-13.625 -73.875,-13.625 z m -45.5,-51.834 c 21,0 16.5,20.833 16.5,20.833 h -45 c 0,0.001 7.5,-20.833 28.5,-20.833 z"
   id="path226" />

	<g
   id="g234">
		<g
   id="g232">
			<polygon
   fill="#004ea2"
   points="642.717,192.891 627.958,233.891 679.958,233.891 694.717,192.891 "
   id="polygon228" />

			<polygon
   fill="#004ea2"
   points="622.717,392.891 674.557,248.891 622.557,248.891 570.717,392.891 "
   id="polygon230" />

		</g>

	</g>

	<path
   fill="#004ea2"
   d="m 987.007,286.391 h 35.95 l 13.76,-36 h -36.613 l 15.946,-43.833 -48.999,12.447 -11.334,31.386 h -27 l -13.76,36 h 27.76 l -21.827,60.443 10e-4,-10e-4 c 0,0 -13.978,42.912 26.949,47.219 0,0 19.627,1.839 44.627,-4.161 l 14.25,-41.5 c -35.714,14.906 -41.708,4.875 -40.13,-5.871 0.838,-6.337 20.42,-56.129 20.42,-56.129 z"
   id="path236" />

	<path
   fill="#004ea2"
   d="m 1021.883,346.558 c 43.313,20.688 53.168,3.166 53.168,3.166 6.5,-11.524 -6.5,-15.5 -6.5,-15.5 -37.668,-14.333 -28.834,-46 -28.834,-46 21.166,-73.167 112.5,-35.465 112.5,-35.465 l -13,38.632 c -43.313,-20.688 -52.25,-5 -52.25,-5 -4.75,11 10.75,17.25 10.75,17.25 40.75,16 27,49 27,49 -25.5,69.5 -118.5,34 -118.5,34 z"
   id="path238" />

	<path
   fill="#004ea2"
   d="m 1288.717,249.391 h -26 -5 l -29.75,79.25 c 0,0 -9.75,21.75 -26.5,21.75 -16.75,0 -12,-12 -12,-12 l 32.75,-89 h -47.5 c 0,0 -33.682,89.688 -34.5,95.5 -0.818,5.812 -10.75,49.427 34.75,49.427 31.964,0 42.842,-21.447 42.866,-21.496 l -7.116,19.569 h 43 l 52,-143 z"
   id="path240" />

	<path
   fill="#f5a100"
   d="m 215.717,191.391 c -39.439,-115.445 -134.75,-116 -134.75,-116 l 20.75,-59.5 c 0,0 84.666,-1.333 140,102.667 z"
   id="path242" />

	<path
   fill="#e83820"
   d="m 71.967,392.89 c 43.75,111.501 138.25,108.001 138.25,108.001 l -23.5,62.5 c 0,0 -82,3.5 -140.75,-97.667 z"
   id="path244" />

</g>
  </g>
</svg>
