<?xml version="1.0" encoding="UTF-8" standalone="no"?>
<svg
   xmlns:dc="http://purl.org/dc/elements/1.1/"
   xmlns:cc="http://creativecommons.org/ns#"
   xmlns:rdf="http://www.w3.org/1999/02/22-rdf-syntax-ns#"
   xmlns:svg="http://www.w3.org/2000/svg"
   xmlns="http://www.w3.org/2000/svg"
   xmlns:xlink="http://www.w3.org/1999/xlink"
   xmlns:sodipodi="http://sodipodi.sourceforge.net/DTD/sodipodi-0.dtd"
   xmlns:inkscape="http://www.inkscape.org/namespaces/inkscape"
   width="800"
   height="800"
   viewBox="0 0 211.66666 211.66667"
   version="1.1"
   id="svg16"
   inkscape:version="1.0.2 (e86c870879, 2021-01-15)"
   sodipodi:docname="odakyu_electric_railway.svg">
  <defs
     id="defs10">
    <rect
       id="SVGID_1_"
       x="0"
       y="-0.001"
       width="1000.086"
       height="256.77" />
    <path
       id="SVGID_3_"
       d="M20.625,12.756C4.744,21.93,6.41,41.804,18.3,67.728c30.241,65.885,125.741,145.713,147.008,159.1    c12.594,7.924,21.88,10.513,28.788,9.985c-10.13-11.605-19.105-25.731-26.89-41.246c-23.579-46.969-36.267-106.725-37.002-148.025    C94.511,30.922,56.981,10.234,32.978,10.234C28.308,10.234,24.156,11.014,20.625,12.756" />
    <path
       id="SVGID_6_"
       d="M130.203,47.542c41.582,19.358,85.082,43.923,115.184,70.349c5.961-8.934,10.584-17.678,13.265-25.863    c-2.603-8.313-9.697-13.418-22.022-21.539c-27.869-18.325-76.894-38.222-105.18-47.092C130.45,30.339,130.051,38.5,130.203,47.542    " />
    <path
       id="SVGID_9_"
       d="M245.387,117.891c-18.892,28.335-51.322,58.418-78.182,77.676c7.785,15.515,16.76,29.641,26.89,41.246    c14.858-1.153,28.347-24.416,33.309-33.648c18.319-33.932,31.764-85.956,32.38-100.62c0.152-4.098-0.21-7.503-1.132-10.517    C255.971,100.213,251.348,108.957,245.387,117.891" />
  </defs>
  <sodipodi:namedview
     id="base"
     pagecolor="#ffffff"
     bordercolor="#666666"
     borderopacity="1.0"
     inkscape:pageopacity="0.0"
     inkscape:pageshadow="2"
     inkscape:zoom="0.98994949"
     inkscape:cx="422.00961"
     inkscape:cy="368.14194"
     inkscape:document-units="px"
     inkscape:current-layer="surface379488"
     inkscape:document-rotation="0"
     showgrid="true"
     showguides="true"
     inkscape:guide-bbox="true"
     inkscape:snap-page="false"
     units="px"
     showborder="true"
     inkscape:showpageshadow="true"
     inkscape:pagecheckerboard="false"
     inkscape:snap-grids="true"
     inkscape:snap-to-guides="true"
     inkscape:lockguides="false"
     inkscape:window-width="2560"
     inkscape:window-height="1387"
     inkscape:window-x="-8"
     inkscape:window-y="-8"
     inkscape:window-maximized="1">
    <inkscape:grid
       type="xygrid"
       id="grid18"
       originx="0"
       originy="0"
       enabled="true"
       spacingx="5.2916666"
       spacingy="5.2916666"
       empspacing="2"
       color="#3f3fff"
       opacity="0.05098039"
       empcolor="#3f3fff"
       empopacity="0.2" />
    <sodipodi:guide
       position="10.583333,105.83333"
       orientation="1,0"
       id="guide185"
       inkscape:locked="false" />
    <sodipodi:guide
       position="105.83333,201.08333"
       orientation="0,-1"
       id="guide187"
       inkscape:locked="false" />
    <sodipodi:guide
       position="201.08333,105.83333"
       orientation="1,0"
       id="guide189"
       inkscape:locked="false" />
    <sodipodi:guide
       position="105.83333,10.583336"
       orientation="0,-1"
       id="guide191"
       inkscape:locked="false" />
    <sodipodi:guide
       position="107.17508,106.0952"
       orientation="0,-1"
       id="guide193"
       inkscape:locked="false" />
  </sodipodi:namedview>
  <metadata
     id="metadata13">
    <rdf:RDF>
      <cc:Work
         rdf:about="">
        <dc:format>image/svg+xml</dc:format>
        <dc:type
           rdf:resource="http://purl.org/dc/dcmitype/StillImage" />
        <dc:title />
      </cc:Work>
    </rdf:RDF>
  </metadata>
  <g
     inkscape:label="Layer 1"
     inkscape:groupmode="layer"
     id="layer1">
    <g
       id="surface379488"
       transform="matrix(2.5352148,0,0,2.5352148,-1386.8811,-1632.8547)">
      <g
         id="g20335"
         transform="matrix(0.07582099,0,0,0.07582099,550.53537,672.7587)">
        <path
           display="none"
           d="m 194,-35.279 c 1,0 2,0 3,0 0.667,0 1.333,0 2,0 0,1.333 0,2.667 0,4 0,1.667 0,3.333 0,5 10.667,0 21.333,0 32,0 0,-1 0,-2 0,-3 0,-1.667 0,-3.333 0,-5 0,-0.125 -0.083,-0.93 0,-1 0.376,-0.331 1.557,0.253 2,0 1,0 2,0 3,0 0,1 0,2 0,3 0,1.333 0,2.667 0,4 0,1.333 0,2.667 0,4 0,1.333 0,2.667 0,4 0,1.313 0.119,2.69 0,4 -0.003,0.027 -0.934,-0.024 -1,0 -0.133,0.197 0.167,0.833 0,1 -0.098,0.095 -0.854,-0.011 -1,0 -0.245,0.013 -0.78,-0.104 -1,0 -0.134,0.063 0.109,0.888 0,1 -0.098,0.095 -0.854,-0.011 -1,0 -0.327,0.017 -0.676,-0.044 -1,0 -1.623,0.223 -3.361,-0.083 -5,0 -3.646,0.186 -7.353,0 -11,0 -3.662,0 -7.563,0 -11,0 -1.667,0 -3.333,0 -5,0 -1.667,0 -3.333,0 -5,0 0,-0.667 0,-1.333 0,-2 12.333,0 24.667,0 37,0 0,-2.333 0,-4.667 0,-7 -1.667,0 -3.333,0 -5,0 -1.667,0 -3.333,0 -5,0 -2.736,0 -6.266,0.054 -9,0 -1.665,-0.033 -3.334,0 -5,0 -1.957,0 -3.458,0 -6,0 -0.243,0 -0.778,0.095 -1,0 -0.125,-0.057 0.104,-0.896 0,-1 -0.124,-0.124 -0.819,0.047 -1,0 -0.625,-0.164 -1.374,0.154 -2,0 -0.181,-0.044 -0.878,0.122 -1,0 -0.167,-0.167 0.133,-0.803 0,-1 -0.214,-0.136 -0.815,0.166 -1,0 -0.169,-0.152 0.162,-0.841 0,-1 -0.104,-0.104 -0.945,0.125 -1,0 -0.225,-0.521 0.075,-1.437 0,-2 -0.173,-1.313 0.133,-2.687 0,-4 0,-1 0,-2 0,-3 z"
           id="path20163" />
        <g
           id="g20193">
          <defs
             id="defs20166" />
          <clipPath
             id="SVGID_2_">
            <use
               xlink:href="#SVGID_1_"
               overflow="visible"
               id="use20168"
               x="0"
               y="0"
               width="100%"
               height="100%" />
          </clipPath>
          <path
             clip-path="url(#SVGID_2_)"
             fill="#06559d"
             d="m 783.397,197.903 h 43.363 c 11.025,0 14.572,2.855 14.572,13.932 v 31.02 c 0,11.043 -3.547,13.915 -14.572,13.915 h -43.363 c -11.051,0 -14.559,-2.872 -14.559,-13.915 v -31.02 c 0,-11.075 3.508,-13.932 14.559,-13.932 m -0.866,47.791 h 45.142 v -37.302 h -45.142 z"
             id="path20171" />
          <path
             clip-path="url(#SVGID_2_)"
             fill="#06559d"
             d="m 936.446,197.903 h 50.415 c 9.014,0 13.227,3.221 13.227,11.409 v 13.818 c 0,8.204 -4.213,11.409 -13.227,11.409 h -36.945 v 22.229 h -13.47 v -58.865 m 13.468,10.155 v 16.31 h 30.767 c 4.229,0 6.18,-0.793 6.18,-4.68 v -6.95 c 0,-3.886 -1.95,-4.68 -6.18,-4.68 z"
             id="path20173" />
          <path
             clip-path="url(#SVGID_2_)"
             fill="#06559d"
             d="m 691.368,197.903 h 50.433 c 8.981,0 13.227,3.221 13.227,11.409 v 13.818 c 0,8.204 -4.244,11.409 -13.227,11.409 h -7.767 l 27.148,22.229 H 741.538 L 717.85,234.539 h -13.013 v 22.229 h -13.471 v -58.865 m 13.473,10.155 v 16.422 h 30.766 c 4.261,0 6.196,-0.793 6.196,-4.697 v -7.044 c 0,-3.886 -1.937,-4.68 -6.196,-4.68 z"
             id="path20175" />
          <path
             clip-path="url(#SVGID_2_)"
             fill="#06559d"
             d="m 869.378,244.377 h 39.055 v -46.458 h 13.613 v 44.935 c 0,11.059 -3.49,13.915 -14.573,13.915 h -37.175 c -11.043,0 -14.591,-2.856 -14.591,-13.915 v -44.935 h 13.671 v 46.458"
             id="path20177" />
          <path
             clip-path="url(#SVGID_2_)"
             fill="#06559d"
             d="m 621.826,197.919 c -11.045,0 -14.59,2.856 -14.59,13.932 v 31.003 c 0,11.059 3.545,13.915 14.59,13.915 h 40.586 c 11.053,0 14.591,-2.856 14.591,-13.915 v -20.277 h -35.66 v 9.997 h 22.341 v 13.136 h -42.762 v -37.316 h 56.081 V 197.92 l -55.177,-10e-4"
             id="path20179" />
          <path
             clip-path="url(#SVGID_2_)"
             fill="#06559d"
             d="m 373.864,97.849 h -27.267 c -27.426,0 -42.634,18.277 -42.634,36.382 0,20.833 14.637,37.969 42.015,37.969 h 28.479 c 27.379,0 41.992,-17.136 41.992,-37.969 0,-18.104 -15.16,-36.382 -42.585,-36.382 m -5.641,58.039 h -16.018 c -16.851,0 -26.909,-8.536 -26.909,-21.595 0,-11.376 9.639,-19.229 27.394,-19.229 h 15.049 c 17.756,0 27.371,7.853 27.371,19.229 0,13.059 -9.989,21.595 -26.887,21.595"
             id="path20181" />
          <path
             clip-path="url(#SVGID_2_)"
             fill="#06559d"
             d="M 505.706,65.21 V 99.8 H 474.64 c -26.204,0 -40.729,17.121 -40.729,34.432 0,19.912 13.986,36.317 40.15,36.317 h 52.868 V 65.21 h -21.223 m -24.823,88.886 c -16.137,0 -25.949,-7.331 -25.949,-19.834 0,-10.82 9.44,-17.293 26.45,-17.293 h 24.324 v 37.128 z"
             id="path20183" />
          <path
             clip-path="url(#SVGID_2_)"
             fill="#06559d"
             d="M 640.24,99.88 V 99.8 h -47.346 c -26.18,0 -40.753,17.121 -40.753,34.432 0,19.912 13.994,36.317 40.166,36.317 h 57.096 V 99.88 h -9.163 m -41.126,54.216 c -16.128,0 -25.909,-7.331 -25.909,-19.834 0,-10.82 9.416,-17.293 26.418,-17.293 h 28.605 v 37.128 z"
             id="path20185" />
          <path
             clip-path="url(#SVGID_2_)"
             fill="#06559d"
             d="m 956.991,171.39 c 25.919,0 43.095,-12.393 43.095,-30.434 V 100.45 h -20.103 v 36.842 c 0,12.629 -9.862,18.184 -22.992,18.184 -13.09,0 -22.919,-5.555 -22.919,-18.184 V 100.45 h -20.118 v 40.506 c 0,18.043 17.161,30.434 43.037,30.434"
             id="path20187" />
          <polygon
             clip-path="url(#SVGID_2_)"
             fill="#06559d"
             points="702.874,144.036 702.874,100.467 682.223,100.467 682.223,170.55 698.891,170.55 724.086,148.13 755.217,170.55 784.221,170.55 737.297,136.357 777.557,100.514 750.864,100.514 "
             id="polygon20189" />
          <polygon
             clip-path="url(#SVGID_2_)"
             fill="#06559d"
             points="814.002,170.55 839.254,170.55 898.573,100.514 873.693,100.514 846.823,132.089 815.09,100.514 790.115,100.514 834.866,146.115 "
             id="polygon20191" />
        </g>
        <g
           id="g20212">
          <defs
             id="defs20196" />
          <clipPath
             id="SVGID_4_">
            <use
               xlink:href="#SVGID_3_"
               overflow="visible"
               id="use20198"
               x="0"
               y="0"
               width="100%"
               height="100%" />
          </clipPath>
          <linearGradient
             id="SVGID_5_"
             gradientUnits="userSpaceOnUse"
             x1="207.35181"
             y1="542.70477"
             x2="214.2926"
             y2="542.70477"
             gradientTransform="matrix(13.3047,36.5544,36.5544,-13.3047,-22542.488,-358.6977)">
            <stop
               offset="0"
               style="stop-color:#5DB6E7"
               id="stop20201" />
            <stop
               offset="0.1"
               style="stop-color:#5DB6E7"
               id="stop20203" />
            <stop
               offset="0.9"
               style="stop-color:#004EA1"
               id="stop20205" />
            <stop
               offset="1"
               style="stop-color:#004EA1"
               id="stop20207" />
          </linearGradient>
          <polygon
             clip-path="url(#SVGID_4_)"
             fill="url(#SVGID_5_)"
             points="267.084,210.779 26.895,298.198 -68.249,36.802 171.944,-50.621 "
             id="polygon20210"
             style="fill:url(#SVGID_5_)" />
        </g>
        <g
           id="g20235">
          <defs
             id="defs20215" />
          <clipPath
             id="SVGID_7_">
            <use
               xlink:href="#SVGID_6_"
               overflow="visible"
               id="use20217"
               x="0"
               y="0"
               width="100%"
               height="100%" />
          </clipPath>
          <linearGradient
             id="SVGID_8_"
             gradientUnits="userSpaceOnUse"
             x1="196.3606"
             y1="531.54858"
             x2="203.30791"
             y2="531.54858"
             gradientTransform="matrix(18.5107,0,0,-18.5107,-3504.7197,9909.9707)">
            <stop
               offset="0"
               style="stop-color:#5DB6E7"
               id="stop20220" />
            <stop
               offset="0.05"
               style="stop-color:#5DB6E7"
               id="stop20222" />
            <stop
               offset="0.2178"
               style="stop-color:#54B4E7"
               id="stop20224" />
            <stop
               offset="0.4859"
               style="stop-color:#3DAEE7"
               id="stop20226" />
            <stop
               offset="0.8189"
               style="stop-color:#18A5E8"
               id="stop20228" />
            <stop
               offset="1"
               style="stop-color:#009FE8"
               id="stop20230" />
          </linearGradient>
          <rect
             x="130.05099"
             y="23.398001"
             clip-path="url(#SVGID_7_)"
             fill="url(#SVGID_8_)"
             width="128.601"
             height="94.492996"
             id="rect20233"
             style="fill:url(#SVGID_8_)" />
        </g>
        <path
           fill="#00a4e3"
           d="m 20.615,12.756 c 21.697,-10.716 66.959,14.93 109.591,34.783 -0.16,-9.039 0.25,-17.2 1.251,-24.141 C 105.669,15.263 80.813,9.618 61.2,7.814 40.967,5.94 30.007,7.329 20.615,12.756"
           id="path20237" />
        <g
           id="g20262">
          <defs
             id="defs20240" />
          <clipPath
             id="SVGID_10_">
            <use
               xlink:href="#SVGID_9_"
               overflow="visible"
               id="use20242"
               x="0"
               y="0"
               width="100%"
               height="100%" />
          </clipPath>
          <linearGradient
             id="SVGID_11_"
             gradientUnits="userSpaceOnUse"
             x1="184.2952"
             y1="538.82788"
             x2="191.2345"
             y2="538.82788"
             gradientTransform="matrix(14.1144,-16.8209,-16.8209,-14.1144,6632.3203,10921.665)">
            <stop
               offset="0"
               style="stop-color:#5DB6E7"
               id="stop20245" />
            <stop
               offset="0.1"
               style="stop-color:#5DB6E7"
               id="stop20247" />
            <stop
               offset="0.2305"
               style="stop-color:#55ADE1"
               id="stop20249" />
            <stop
               offset="0.4399"
               style="stop-color:#4096D1"
               id="stop20251" />
            <stop
               offset="0.7003"
               style="stop-color:#1E70B8"
               id="stop20253" />
            <stop
               offset="0.9"
               style="stop-color:#004EA1"
               id="stop20255" />
            <stop
               offset="1"
               style="stop-color:#004EA1"
               id="stop20257" />
          </linearGradient>
          <polygon
             clip-path="url(#SVGID_10_)"
             fill="url(#SVGID_11_)"
             points="205.521,46.366 331.231,151.853 221.623,282.478 95.908,176.994 "
             id="polygon20260"
             style="fill:url(#SVGID_11_)" />
        </g>
      </g>
    </g>
  </g>
</svg>
