<svg xmlns="http://www.w3.org/2000/svg" xmlns:svg="http://www.w3.org/2000/svg" xmlns:xlink="http://www.w3.org/1999/xlink" id="svg16" width="800" height="800" version="1.1" viewBox="0 0 211.667 211.667"><defs id="defs10"><rect id="SVGID_1_" width="1000.086" height="256.77" x="0" y="-.001"/><path id="SVGID_3_" d="M20.625,12.756C4.744,21.93,6.41,41.804,18.3,67.728c30.241,65.885,125.741,145.713,147.008,159.1 c12.594,7.924,21.88,10.513,28.788,9.985c-10.13-11.605-19.105-25.731-26.89-41.246c-23.579-46.969-36.267-106.725-37.002-148.025 C94.511,30.922,56.981,10.234,32.978,10.234C28.308,10.234,24.156,11.014,20.625,12.756"/><path id="SVGID_6_" d="M130.203,47.542c41.582,19.358,85.082,43.923,115.184,70.349c5.961-8.934,10.584-17.678,13.265-25.863 c-2.603-8.313-9.697-13.418-22.022-21.539c-27.869-18.325-76.894-38.222-105.18-47.092C130.45,30.339,130.051,38.5,130.203,47.542"/><path id="SVGID_9_" d="M245.387,117.891c-18.892,28.335-51.322,58.418-78.182,77.676c7.785,15.515,16.76,29.641,26.89,41.246 c14.858-1.153,28.347-24.416,33.309-33.648c18.319-33.932,31.764-85.956,32.38-100.62c0.152-4.098-0.21-7.503-1.132-10.517 C255.971,100.213,251.348,108.957,245.387,117.891"/></defs><metadata id="metadata13"/><g id="layer1"><g id="surface379488" transform="matrix(2.5352148,0,0,2.5352148,-1386.8811,-1632.8547)"><g id="g20335" transform="matrix(0.07582099,0,0,0.07582099,550.53537,672.7587)"><path id="path20163" d="m 194,-35.279 c 1,0 2,0 3,0 0.667,0 1.333,0 2,0 0,1.333 0,2.667 0,4 0,1.667 0,3.333 0,5 10.667,0 21.333,0 32,0 0,-1 0,-2 0,-3 0,-1.667 0,-3.333 0,-5 0,-0.125 -0.083,-0.93 0,-1 0.376,-0.331 1.557,0.253 2,0 1,0 2,0 3,0 0,1 0,2 0,3 0,1.333 0,2.667 0,4 0,1.333 0,2.667 0,4 0,1.333 0,2.667 0,4 0,1.313 0.119,2.69 0,4 -0.003,0.027 -0.934,-0.024 -1,0 -0.133,0.197 0.167,0.833 0,1 -0.098,0.095 -0.854,-0.011 -1,0 -0.245,0.013 -0.78,-0.104 -1,0 -0.134,0.063 0.109,0.888 0,1 -0.098,0.095 -0.854,-0.011 -1,0 -0.327,0.017 -0.676,-0.044 -1,0 -1.623,0.223 -3.361,-0.083 -5,0 -3.646,0.186 -7.353,0 -11,0 -3.662,0 -7.563,0 -11,0 -1.667,0 -3.333,0 -5,0 -1.667,0 -3.333,0 -5,0 0,-0.667 0,-1.333 0,-2 12.333,0 24.667,0 37,0 0,-2.333 0,-4.667 0,-7 -1.667,0 -3.333,0 -5,0 -1.667,0 -3.333,0 -5,0 -2.736,0 -6.266,0.054 -9,0 -1.665,-0.033 -3.334,0 -5,0 -1.957,0 -3.458,0 -6,0 -0.243,0 -0.778,0.095 -1,0 -0.125,-0.057 0.104,-0.896 0,-1 -0.124,-0.124 -0.819,0.047 -1,0 -0.625,-0.164 -1.374,0.154 -2,0 -0.181,-0.044 -0.878,0.122 -1,0 -0.167,-0.167 0.133,-0.803 0,-1 -0.214,-0.136 -0.815,0.166 -1,0 -0.169,-0.152 0.162,-0.841 0,-1 -0.104,-0.104 -0.945,0.125 -1,0 -0.225,-0.521 0.075,-1.437 0,-2 -0.173,-1.313 0.133,-2.687 0,-4 0,-1 0,-2 0,-3 z" display="none"/><g id="g20193"><clipPath id="SVGID_2_"><use id="use20168" width="100%" height="100%" x="0" y="0" overflow="visible" xlink:href="#SVGID_1_"/></clipPath><path id="path20171" fill="#06559d" d="m 783.397,197.903 h 43.363 c 11.025,0 14.572,2.855 14.572,13.932 v 31.02 c 0,11.043 -3.547,13.915 -14.572,13.915 h -43.363 c -11.051,0 -14.559,-2.872 -14.559,-13.915 v -31.02 c 0,-11.075 3.508,-13.932 14.559,-13.932 m -0.866,47.791 h 45.142 v -37.302 h -45.142 z" clip-path="url(#SVGID_2_)"/><path id="path20173" fill="#06559d" d="m 936.446,197.903 h 50.415 c 9.014,0 13.227,3.221 13.227,11.409 v 13.818 c 0,8.204 -4.213,11.409 -13.227,11.409 h -36.945 v 22.229 h -13.47 v -58.865 m 13.468,10.155 v 16.31 h 30.767 c 4.229,0 6.18,-0.793 6.18,-4.68 v -6.95 c 0,-3.886 -1.95,-4.68 -6.18,-4.68 z" clip-path="url(#SVGID_2_)"/><path id="path20175" fill="#06559d" d="m 691.368,197.903 h 50.433 c 8.981,0 13.227,3.221 13.227,11.409 v 13.818 c 0,8.204 -4.244,11.409 -13.227,11.409 h -7.767 l 27.148,22.229 H 741.538 L 717.85,234.539 h -13.013 v 22.229 h -13.471 v -58.865 m 13.473,10.155 v 16.422 h 30.766 c 4.261,0 6.196,-0.793 6.196,-4.697 v -7.044 c 0,-3.886 -1.937,-4.68 -6.196,-4.68 z" clip-path="url(#SVGID_2_)"/><path id="path20177" fill="#06559d" d="m 869.378,244.377 h 39.055 v -46.458 h 13.613 v 44.935 c 0,11.059 -3.49,13.915 -14.573,13.915 h -37.175 c -11.043,0 -14.591,-2.856 -14.591,-13.915 v -44.935 h 13.671 v 46.458" clip-path="url(#SVGID_2_)"/><path id="path20179" fill="#06559d" d="m 621.826,197.919 c -11.045,0 -14.59,2.856 -14.59,13.932 v 31.003 c 0,11.059 3.545,13.915 14.59,13.915 h 40.586 c 11.053,0 14.591,-2.856 14.591,-13.915 v -20.277 h -35.66 v 9.997 h 22.341 v 13.136 h -42.762 v -37.316 h 56.081 V 197.92 l -55.177,-10e-4" clip-path="url(#SVGID_2_)"/><path id="path20181" fill="#06559d" d="m 373.864,97.849 h -27.267 c -27.426,0 -42.634,18.277 -42.634,36.382 0,20.833 14.637,37.969 42.015,37.969 h 28.479 c 27.379,0 41.992,-17.136 41.992,-37.969 0,-18.104 -15.16,-36.382 -42.585,-36.382 m -5.641,58.039 h -16.018 c -16.851,0 -26.909,-8.536 -26.909,-21.595 0,-11.376 9.639,-19.229 27.394,-19.229 h 15.049 c 17.756,0 27.371,7.853 27.371,19.229 0,13.059 -9.989,21.595 -26.887,21.595" clip-path="url(#SVGID_2_)"/><path id="path20183" fill="#06559d" d="M 505.706,65.21 V 99.8 H 474.64 c -26.204,0 -40.729,17.121 -40.729,34.432 0,19.912 13.986,36.317 40.15,36.317 h 52.868 V 65.21 h -21.223 m -24.823,88.886 c -16.137,0 -25.949,-7.331 -25.949,-19.834 0,-10.82 9.44,-17.293 26.45,-17.293 h 24.324 v 37.128 z" clip-path="url(#SVGID_2_)"/><path id="path20185" fill="#06559d" d="M 640.24,99.88 V 99.8 h -47.346 c -26.18,0 -40.753,17.121 -40.753,34.432 0,19.912 13.994,36.317 40.166,36.317 h 57.096 V 99.88 h -9.163 m -41.126,54.216 c -16.128,0 -25.909,-7.331 -25.909,-19.834 0,-10.82 9.416,-17.293 26.418,-17.293 h 28.605 v 37.128 z" clip-path="url(#SVGID_2_)"/><path id="path20187" fill="#06559d" d="m 956.991,171.39 c 25.919,0 43.095,-12.393 43.095,-30.434 V 100.45 h -20.103 v 36.842 c 0,12.629 -9.862,18.184 -22.992,18.184 -13.09,0 -22.919,-5.555 -22.919,-18.184 V 100.45 h -20.118 v 40.506 c 0,18.043 17.161,30.434 43.037,30.434" clip-path="url(#SVGID_2_)"/><polygon id="polygon20189" fill="#06559d" points="702.874 144.036 702.874 100.467 682.223 100.467 682.223 170.55 698.891 170.55 724.086 148.13 755.217 170.55 784.221 170.55 737.297 136.357 777.557 100.514 750.864 100.514" clip-path="url(#SVGID_2_)"/><polygon id="polygon20191" fill="#06559d" points="814.002 170.55 839.254 170.55 898.573 100.514 873.693 100.514 846.823 132.089 815.09 100.514 790.115 100.514 834.866 146.115" clip-path="url(#SVGID_2_)"/></g><g id="g20212"><clipPath id="SVGID_4_"><use id="use20198" width="100%" height="100%" x="0" y="0" overflow="visible" xlink:href="#SVGID_3_"/></clipPath><linearGradient id="SVGID_5_" x1="207.352" x2="214.293" y1="542.705" y2="542.705" gradientTransform="matrix(13.3047,36.5544,36.5544,-13.3047,-22542.488,-358.6977)" gradientUnits="userSpaceOnUse"><stop style="stop-color:#5db6e7" id="stop20201" offset="0"/><stop style="stop-color:#5db6e7" id="stop20203" offset=".1"/><stop style="stop-color:#004ea1" id="stop20205" offset=".9"/><stop style="stop-color:#004ea1" id="stop20207" offset="1"/></linearGradient><polygon id="polygon20210" fill="url(#SVGID_5_)" points="267.084 210.779 26.895 298.198 -68.249 36.802 171.944 -50.621" clip-path="url(#SVGID_4_)" style="fill:url(#SVGID_5_)"/></g><g id="g20235"><clipPath id="SVGID_7_"><use id="use20217" width="100%" height="100%" x="0" y="0" overflow="visible" xlink:href="#SVGID_6_"/></clipPath><linearGradient id="SVGID_8_" x1="196.361" x2="203.308" y1="531.549" y2="531.549" gradientTransform="matrix(18.5107,0,0,-18.5107,-3504.7197,9909.9707)" gradientUnits="userSpaceOnUse"><stop style="stop-color:#5db6e7" id="stop20220" offset="0"/><stop style="stop-color:#5db6e7" id="stop20222" offset=".05"/><stop style="stop-color:#54b4e7" id="stop20224" offset=".218"/><stop style="stop-color:#3daee7" id="stop20226" offset=".486"/><stop style="stop-color:#18a5e8" id="stop20228" offset=".819"/><stop style="stop-color:#009fe8" id="stop20230" offset="1"/></linearGradient><rect id="rect20233" width="128.601" height="94.493" x="130.051" y="23.398" fill="url(#SVGID_8_)" clip-path="url(#SVGID_7_)" style="fill:url(#SVGID_8_)"/></g><path id="path20237" fill="#00a4e3" d="m 20.615,12.756 c 21.697,-10.716 66.959,14.93 109.591,34.783 -0.16,-9.039 0.25,-17.2 1.251,-24.141 C 105.669,15.263 80.813,9.618 61.2,7.814 40.967,5.94 30.007,7.329 20.615,12.756"/><g id="g20262"><clipPath id="SVGID_10_"><use id="use20242" width="100%" height="100%" x="0" y="0" overflow="visible" xlink:href="#SVGID_9_"/></clipPath><linearGradient id="SVGID_11_" x1="184.295" x2="191.234" y1="538.828" y2="538.828" gradientTransform="matrix(14.1144,-16.8209,-16.8209,-14.1144,6632.3203,10921.665)" gradientUnits="userSpaceOnUse"><stop style="stop-color:#5db6e7" id="stop20245" offset="0"/><stop style="stop-color:#5db6e7" id="stop20247" offset=".1"/><stop style="stop-color:#55ade1" id="stop20249" offset=".231"/><stop style="stop-color:#4096d1" id="stop20251" offset=".44"/><stop style="stop-color:#1e70b8" id="stop20253" offset=".7"/><stop style="stop-color:#004ea1" id="stop20255" offset=".9"/><stop style="stop-color:#004ea1" id="stop20257" offset="1"/></linearGradient><polygon id="polygon20260" fill="url(#SVGID_11_)" points="205.521 46.366 331.231 151.853 221.623 282.478 95.908 176.994" clip-path="url(#SVGID_10_)" style="fill:url(#SVGID_11_)"/></g></g></g></g></svg>