<?xml version="1.0" encoding="UTF-8" standalone="no"?>
<svg
   xmlns:dc="http://purl.org/dc/elements/1.1/"
   xmlns:cc="http://creativecommons.org/ns#"
   xmlns:rdf="http://www.w3.org/1999/02/22-rdf-syntax-ns#"
   xmlns:svg="http://www.w3.org/2000/svg"
   xmlns="http://www.w3.org/2000/svg"
   xmlns:sodipodi="http://sodipodi.sourceforge.net/DTD/sodipodi-0.dtd"
   xmlns:inkscape="http://www.inkscape.org/namespaces/inkscape"
   width="800"
   height="800"
   viewBox="0 0 211.66666 211.66667"
   version="1.1"
   id="svg16"
   inkscape:version="1.0.2 (e86c870879, 2021-01-15)"
   sodipodi:docname="seibu_railway.svg">
  <defs
     id="defs10">
    <clipPath
       clipPathUnits="userSpaceOnUse"
       id="clipPath18">
      <path
         d="m 0,595.276 841.89,0 L 841.89,0 0,0 0,595.276 z"
         id="path20"
         inkscape:connector-curvature="0" />
    </clipPath>
    <clipPath
       clipPathUnits="userSpaceOnUse"
       id="clipPath30">
      <path
         d="m 0,595.276 841.89,0 L 841.89,0 0,0 0,595.276 z"
         id="path32"
         inkscape:connector-curvature="0" />
    </clipPath>
    <clipPath
       clipPathUnits="userSpaceOnUse"
       id="clipPath42">
      <path
         d="m 0,595.276 841.89,0 L 841.89,0 0,0 0,595.276 z"
         id="path44"
         inkscape:connector-curvature="0" />
    </clipPath>
    <clipPath
       clipPathUnits="userSpaceOnUse"
       id="clipPath52">
      <path
         d="m 0,595.276 841.89,0 L 841.89,0 0,0 0,595.276 z"
         id="path54"
         inkscape:connector-curvature="0" />
    </clipPath>
    <clipPath
       clipPathUnits="userSpaceOnUse"
       id="clipPath66">
      <path
         d="m 0,595.276 841.89,0 L 841.89,0 0,0 0,595.276 z"
         id="path68"
         inkscape:connector-curvature="0" />
    </clipPath>
    <clipPath
       clipPathUnits="userSpaceOnUse"
       id="clipPath138">
      <path
         d="m 0,595.276 841.89,0 L 841.89,0 0,0 0,595.276 z"
         id="path140"
         inkscape:connector-curvature="0" />
    </clipPath>
  </defs>
  <sodipodi:namedview
     id="base"
     pagecolor="#ffffff"
     bordercolor="#666666"
     borderopacity="1.0"
     inkscape:pageopacity="0.0"
     inkscape:pageshadow="2"
     inkscape:zoom="0.98994949"
     inkscape:cx="422.00961"
     inkscape:cy="368.14194"
     inkscape:document-units="px"
     inkscape:current-layer="surface379488"
     inkscape:document-rotation="0"
     showgrid="true"
     showguides="true"
     inkscape:guide-bbox="true"
     inkscape:snap-page="false"
     units="px"
     showborder="true"
     inkscape:showpageshadow="true"
     inkscape:pagecheckerboard="false"
     inkscape:snap-grids="true"
     inkscape:snap-to-guides="true"
     inkscape:lockguides="false"
     inkscape:window-width="2560"
     inkscape:window-height="1387"
     inkscape:window-x="-8"
     inkscape:window-y="-8"
     inkscape:window-maximized="1">
    <inkscape:grid
       type="xygrid"
       id="grid18"
       originx="0"
       originy="0"
       enabled="true"
       spacingx="5.2916666"
       spacingy="5.2916666"
       empspacing="2"
       color="#3f3fff"
       opacity="0.05098039"
       empcolor="#3f3fff"
       empopacity="0.2" />
    <sodipodi:guide
       position="10.583333,105.83333"
       orientation="1,0"
       id="guide185"
       inkscape:locked="false" />
    <sodipodi:guide
       position="105.83333,201.08333"
       orientation="0,-1"
       id="guide187"
       inkscape:locked="false" />
    <sodipodi:guide
       position="201.08333,105.83333"
       orientation="1,0"
       id="guide189"
       inkscape:locked="false" />
    <sodipodi:guide
       position="105.83333,10.583336"
       orientation="0,-1"
       id="guide191"
       inkscape:locked="false" />
    <sodipodi:guide
       position="107.17508,106.0952"
       orientation="0,-1"
       id="guide193"
       inkscape:locked="false" />
  </sodipodi:namedview>
  <metadata
     id="metadata13">
    <rdf:RDF>
      <cc:Work
         rdf:about="">
        <dc:format>image/svg+xml</dc:format>
        <dc:type
           rdf:resource="http://purl.org/dc/dcmitype/StillImage" />
        <dc:title />
      </cc:Work>
    </rdf:RDF>
  </metadata>
  <g
     inkscape:label="Layer 1"
     inkscape:groupmode="layer"
     id="layer1">
    <g
       id="surface379488"
       transform="matrix(2.5352148,0,0,2.5352148,-1386.8811,-1632.8547)">
      <g
         id="g10"
         inkscape:label="youran2011_all"
         transform="matrix(0.55751808,0,0,-0.55751808,483.07156,752.56208)">
        <g
           id="g14">
          <g
             id="g16"
             clip-path="url(#clipPath18)" />
        </g>
        <g
           id="g26">
          <g
             id="g28"
             clip-path="url(#clipPath30)" />
        </g>
        <g
           id="g38">
          <g
             id="g40"
             clip-path="url(#clipPath42)" />
        </g>
        <g
           id="g48">
          <g
             id="g50"
             clip-path="url(#clipPath52)" />
        </g>
        <g
           clip-path="url(#clipPath66)"
           id="g64">
          <g
             transform="translate(143.56696,134.12329)"
             id="g70">
            <path
               inkscape:connector-curvature="0"
               id="path72"
               style="fill:#2b78c6;fill-opacity:1;fill-rule:nonzero;stroke:none"
               d="m 0,0 c -1.487,0 -2.918,-0.255 -4.248,-0.725 -2.241,-0.788 -4.199,-2.18 -5.677,-3.984 -1.816,-2.215 -2.906,-5.042 -2.906,-8.124 0,-3.077 1.09,-5.907 2.906,-8.122 0.464,-0.081 0.94,-0.128 1.426,-0.128 1.555,0 3.008,0.435 4.251,1.183 -2.398,1.445 -4.002,4.072 -4.002,7.067 0,2.996 1.604,5.623 4.002,7.072 1.241,0.748 2.695,1.18 4.248,1.18 0.487,0 0.963,-0.045 1.426,-0.128 3.872,-0.677 6.824,-4.059 6.824,-8.124 0,-4.061 -2.952,-7.443 -6.824,-8.122 -1.477,-1.801 -3.435,-3.196 -5.674,-3.984 1.33,-0.47 2.761,-0.724 4.248,-0.724 7.076,0 12.832,5.755 12.832,12.83 C 12.832,-5.756 7.076,0 0,0" />
          </g>
          <g
             transform="translate(144.99276,129.4143)"
             id="g74">
            <path
               inkscape:connector-curvature="0"
               id="path76"
               style="fill:#59caf5;fill-opacity:1;fill-rule:nonzero;stroke:none"
               d="m 0,0 c -0.463,0.083 -0.938,0.128 -1.426,0.128 -1.553,0 -3.007,-0.432 -4.248,-1.18 2.395,-1.449 4.001,-4.076 4.001,-7.072 0.001,-2.995 -1.606,-5.622 -4.001,-7.067 -1.243,-0.748 -2.696,-1.183 -4.251,-1.183 -0.486,0 -0.962,0.047 -1.426,0.128 -3.872,0.679 -6.824,4.061 -6.824,8.122 0,4.065 2.952,7.447 6.824,8.124 1.478,1.804 3.436,3.196 5.677,3.984 -1.332,0.47 -2.761,0.725 -4.251,0.725 -7.075,0 -12.83,-5.756 -12.83,-12.833 0,-7.075 5.755,-12.832 12.83,-12.83 1.49,0 2.919,0.254 4.251,0.724 2.239,0.788 4.197,2.183 5.674,3.984 1.817,2.215 2.908,5.042 2.908,8.122 C 2.908,-5.042 1.817,-2.215 0,0" />
          </g>
          <g
             transform="translate(150.39796,141.34309)"
             id="g78">
            <path
               inkscape:connector-curvature="0"
               id="path80"
               style="fill:#4dbe4b;fill-opacity:1;fill-rule:nonzero;stroke:none"
               d="m 0,0 c -0.453,1.223 -3.802,1.098 -7.473,-0.272 -1.39,-0.519 -2.627,-1.141 -3.604,-1.783 -0.976,0.642 -2.212,1.26 -3.601,1.783 -3.673,1.369 -7.019,1.495 -7.475,0.272 -0.455,-1.219 2.154,-3.319 5.827,-4.69 2.002,-0.748 4.123,-1.125 5.254,-1.125 1.131,0 3.388,0.431 5.247,1.126 C -2.151,-3.319 0.457,-1.217 0,0" />
          </g>
          <path
             inkscape:connector-curvature="0"
             id="path82"
             style="fill:#2b78c6;fill-opacity:1;fill-rule:nonzero;stroke:none"
             d="m 200.18916,131.2804 h -10.979 v -2.502 h 10.979 z" />
          <g
             transform="translate(204.52396,124.5247)"
             id="g84">
            <path
               inkscape:connector-curvature="0"
               id="path86"
               style="fill:#2b78c6;fill-opacity:1;fill-rule:nonzero;stroke:none"
               d="M 0,0 H 3.848 V 2.502 H -0.03 V 6.756 H -2.604 V 2.502 H -16.616 V 0 h 6.16 v -9.459 c -0.745,-0.066 -1.482,-0.124 -2.189,-0.173 v 7.334 h -2.575 v -7.501 c -0.523,-0.027 -0.996,-0.049 -1.396,-0.063 v -2.73 c 3.795,0.086 10.803,0.701 13.748,1.658 v 2.487 C -4.023,-8.735 -5.845,-8.99 -7.829,-9.204 v 3.956 h 3.842 v 2.66 H -7.829 V 0 h 5.258 c 0.269,-9.017 2.277,-12.021 6.645,-13.1 v 2.694 C 1.472,-9.439 0.2,-7.367 0,0" />
          </g>
          <path
             inkscape:connector-curvature="0"
             id="path88"
             style="fill:#2b78c6;fill-opacity:1;fill-rule:nonzero;stroke:none"
             d="m 175.38216,126.5904 h -2.642 v 2.188 h 2.642 z m 4.81,-2.505 c 0.932,0 1.274,-0.356 1.274,-1.166 v -3.143 h -2.652 c -0.681,0 -0.858,0.04 -0.858,0.782 v 3.527 z m -13.221,-9.723 v 1.917 c 3.331,0.842 5.77,3.124 5.77,6.141 v 1.665 h 2.641 v -4.28 c 0,-1.701 0.672,-2.53 2.27,-2.53 h 3.814 v -2.913 z m 1.277,9.723 h 1.904 v -1.685 c 0,-2.174 -1.807,-3.179 -3.181,-3.616 v 4.135 c 0,0.81 0.343,1.166 1.277,1.166 m -3.956,4.693 h 5.86 v -2.188 h -2.269 c -2.815,0 -3.591,-1.14 -3.591,-3.308 v -11.426 h 19.854 v 11.426 c 0,2.168 -0.912,3.308 -3.59,3.308 h -2.6 v 2.188 h 6.19 v 2.502 h -19.854 z" />
          <path
             inkscape:connector-curvature="0"
             id="path90"
             style="fill:#2b78c6;fill-opacity:1;fill-rule:nonzero;stroke:none"
             d="m 208.34416,131.2804 h -2.101 v -3.234 h 2.101 z" />
          <g
             transform="translate(214.40976,119.1321)"
             id="g92">
            <path
               inkscape:connector-curvature="0"
               id="path94"
               style="fill:#2b78c6;fill-opacity:1;fill-rule:nonzero;stroke:none"
               d="m 0,0 h -1.874 l 0.478,-3.309 h 1.874 z" />
          </g>
          <g
             transform="translate(228.59137,120.30009)"
             id="g96">
            <path
               inkscape:connector-curvature="0"
               id="path98"
               style="fill:#2b78c6;fill-opacity:1;fill-rule:nonzero;stroke:none"
               d="m 0,0 h 4.061 v 2.414 h -4.309 c 0.017,0.282 0.025,0.562 0.025,0.838 v 2.23 H 3.7 v 2.414 h -3.923 v 3.34 h -2.412 v -3.34 h -1.264 c 0.074,0.58 0.113,1.208 0.113,1.88 v 0.976 H -6.218 V 9.755 c 0,-2.7 -0.235,-3.302 -1.072,-3.815 V 3.334 c 1.243,0.216 2.144,0.958 2.722,2.148 h 1.933 v -2.36 c 0,-0.239 -0.007,-0.473 -0.016,-0.708 H -6.916 V 0 h 3.97 C -3.57,-3.03 -5.075,-5.336 -6.895,-5.967 v -2.696 c 2.584,0.638 4.425,2.994 5.511,5.782 1.035,-2.747 2.942,-5.132 5.563,-5.782 v 2.696 C 2.27,-5.257 0.545,-2.851 0,0" />
          </g>
          <g
             transform="translate(218.57186,115.82349)"
             id="g100">
            <path
               inkscape:connector-curvature="0"
               id="path102"
               style="fill:#2b78c6;fill-opacity:1;fill-rule:nonzero;stroke:none"
               d="M 0,0 H 1.911 L 2.39,3.309 H 0.478 Z" />
          </g>
          <g
             transform="translate(214.68906,126.75809)"
             id="g104">
            <path
               inkscape:connector-curvature="0"
               id="path106"
               style="fill:#2b78c6;fill-opacity:1;fill-rule:nonzero;stroke:none"
               d="M 0,0 C 0.646,0.497 1.176,1.089 1.506,1.726 1.726,2.153 1.859,2.4 2.276,2.4 2.693,2.4 2.826,2.153 3.049,1.726 3.322,1.193 3.921,0.53 4.719,0 Z M 4.892,3.401 C 4.18,4.761 3.611,4.816 2.276,4.816 0.942,4.816 0.374,4.761 -0.338,3.401 -0.821,2.478 -1.561,1.912 -2.438,1.557 v -2.788 c 0.464,0.133 0.919,0.316 1.35,0.54 v -1.68 h 1.992 v -1.673 h -3.106 v -2.414 h 3.106 v -5.747 c -1.048,-0.038 -2.097,-0.057 -3.106,-0.057 v -2.639 c 3.023,0 6.16,0.309 8.55,0.705 v 2.394 C 5.385,-11.92 4.319,-12.013 3.213,-12.087 v 5.629 h 3.008 v 2.414 H 3.213 v 1.673 h 1.992 v 2.078 c 0.369,-0.196 0.77,-0.363 1.191,-0.474 V 1.836 C 5.755,2.094 5.305,2.611 4.892,3.401" />
          </g>
          <g
             transform="translate(253.60797,123.5716)"
             id="g108">
            <path
               inkscape:connector-curvature="0"
               id="path110"
               style="fill:#2b78c6;fill-opacity:1;fill-rule:nonzero;stroke:none"
               d="M 0,0 V -0.315 H -7.863 V 0 c 0,0.812 0.377,1.021 1.309,1.021 h 5.247 C -0.375,1.021 0,0.812 0,0 M -7.863,-4.676 H 0 v -1.396 h -7.863 z m 0,2.851 H 0 v -1.341 h -7.863 z m 8.341,8.064 1.074,1.726 h -2.958 l -1,-1.726 h -3.338 l -1.002,1.726 h -2.957 l 1.074,-1.726 h -2.613 V 4.103 h 5.631 l -0.66,-1.191 h -0.647 c -2.814,0 -3.433,-1.029 -3.433,-3.196 v -7.665 h 12.84 v 7.665 c 0,2.167 -0.756,3.196 -3.432,3.196 h -2.591 l 0.659,1.191 h 6.283 v 2.136 z" />
          </g>
          <g
             transform="translate(241.28277,129.8206)"
             id="g112">
            <path
               inkscape:connector-curvature="0"
               id="path114"
               style="fill:#2b78c6;fill-opacity:1;fill-rule:nonzero;stroke:none"
               d="M 0,0 -4.648,1.46 V -1.117 L 0,-2.571 Z" />
          </g>
          <g
             transform="translate(241.29546,117.9036)"
             id="g116">
            <path
               inkscape:connector-curvature="0"
               id="path118"
               style="fill:#2b78c6;fill-opacity:1;fill-rule:nonzero;stroke:none"
               d="M 0,0 V 4.211 6.716 H -4.661 V 4.211 h 2.17 v -4.892 c -0.165,-1.154 -0.697,-2.477 -2.17,-2.857 v -2.729 c 1.627,0.41 2.828,1.283 3.588,2.639 0.822,-1.35 2.557,-2.419 6.121,-2.419 h 10.673 v 2.461 H 5.376 C 1.163,-3.586 0,-2.291 0,0" />
          </g>
        </g>
        <g
           id="g134">
          <g
             id="g136"
             clip-path="url(#clipPath138)" />
        </g>
      </g>
    </g>
  </g>
</svg>
