<svg xmlns="http://www.w3.org/2000/svg" xmlns:svg="http://www.w3.org/2000/svg" xmlns:xlink="http://www.w3.org/1999/xlink" id="svg16" width="800" height="800" version="1.1" viewBox="0 0 211.667 211.667"><defs id="defs10"><path id="s" d="m 0,0 c -0.28,0 -5.989,0 -5.989,0 -3.332,0 -5.859,-1.246 -5.779,-5.46 0.036,-2.064 1.465,-3.716 3.783,-4.22 0.856,-0.189 1.73,-0.386 2.797,-0.579 1.916,-0.331 1.979,-0.749 2.012,-1.305 -0.014,-1.158 -0.891,-1.599 -1.863,-1.601 0,0 -5.83,0.002 -6.401,0.002 -0.574,0 -1.011,-0.449 -1.069,-0.953 l -0.163,-1.568 c -0.036,-0.613 0.218,-1.055 1.029,-1.055 l 6.414,0 c 4.191,0 5.391,1.561 5.818,4.387 0.436,2.872 -0.485,4.853 -4.407,5.675 l -3.154,0.668 c -0.7,0.188 -0.967,0.436 -0.98,1.018 0,0.725 0.357,1.414 1.735,1.414 0,0 5.212,-0.004 5.781,-0.004 0.98,0 1.222,0.413 1.306,1.007 l 0.163,1.519 C 1.068,-0.447 0.811,0 0,0"/><path id="h" d="m 0,0 c -2.724,0 -3.643,-0.758 -5.392,-3.279 l -0.836,-1.19 1.096,10.199 c 0.067,0.536 -0.21,1.12 -1.021,1.12 l -1.731,0 C -8.61,6.836 -8.871,6.199 -8.908,5.952 l -2.336,-21.822 c -0.046,-0.355 0.198,-1.02 0.934,-1.057 l 0.008,-0.001 1.818,0 c 0.505,0.007 0.971,0.383 1.029,0.935 l 0.524,5.079 3.524,4.566 c 0.609,0.794 1.143,1.54 1.632,2.04 0.379,0.391 0.693,0.732 1.229,0.732 l 0.344,0 C 0.391,-3.583 0.56,-3.939 0.548,-4.418 L 0.546,-4.423 C 0.55,-4.579 0.488,-5.081 0.389,-5.867 L -0.664,-15.87 c -0.043,-0.355 0.196,-1.02 0.936,-1.057 l 0.007,-0.001 1.82,0 c 0.505,0.007 0.97,0.383 1.028,0.935 l -10e-4,0 1.086,10.33 c 0.064,0.558 0.126,1.265 0.13,1.561 0,0.002 0,0.008 0,0.008 C 4.342,-1.676 3.158,0 0,0"/><path id="k" d="M 0,0 C -1.092,0.93 -2.56,1.076 -4.326,1.042 -5.975,1.012 -6.716,0.775 -7.535,0.222 -8.356,-0.329 -8.973,-1.1 -9.628,-2.044 l -0.946,-1.371 1.092,10.187 c 0.07,0.536 -0.381,1.12 -1.021,1.12 l -1.73,0 C -12.956,7.878 -13.22,7.241 -13.259,6.994 l -2.334,-21.822 c -0.044,-0.355 0.197,-1.02 0.937,-1.057 l 0.005,-10e-4 1.82,0 c 0.505,0.007 0.972,0.383 1.031,0.935 l 0.556,5.204 10e-4,0.018 3.464,4.439 c 0.645,0.832 1.353,1.762 1.859,2.167 0.648,0.502 1.055,0.585 1.586,0.589 l 1.084,0 c 0.902,-0.005 0.66,-0.742 0.556,-1.619 -0.075,-0.629 -0.2,-0.873 -0.51,-1.158 -0.278,-0.246 -0.792,-0.494 -1.57,-0.742 L -6.983,-6.73 c -0.399,-0.115 -0.749,-0.408 -0.845,-0.999 -0.056,-0.35 -0.303,-1.546 0.157,-2.151 l 3.611,-5.457 c 0.237,-0.381 0.625,-0.549 1.044,-0.549 0,0 1.465,10e-4 1.971,10e-4 0.543,0 0.902,0.421 0.902,0.91 0,0.227 -0.089,0.406 -0.136,0.484 l -3.68,5.274 c 1.044,0.294 2.45,0.637 3.552,1.612 1.396,1.234 1.491,2.64 1.562,3.868 C 1.224,-2.575 1.447,-1.226 0,0"/><path id="e" d="M 0,0 C 0.033,0.613 0.003,2.253 1.252,3.44 1.894,4.047 2.769,4.391 3.91,4.391 l 2.133,0 C 6.529,4.391 6.822,4.182 6.822,3.8 6.822,2.866 6.709,2.421 6.164,2.1 5.675,1.813 5.065,1.541 4.096,1.245 L 0,0 Z M 9.372,6.906 C 7.969,8.08 6.081,7.968 3.559,7.968 c -4.109,0 -6.89,-2.938 -7.279,-7.125 0,0 -0.249,-2.082 -0.401,-4.246 -0.195,-2.786 1.602,-5.558 5.959,-5.558 l 5.596,0 c 1.121,0 1.37,0.565 1.432,0.969 l 0.126,1.312 c 0.017,0.826 -0.314,1.233 -1.317,1.233 0,0 -3.801,0 -4.935,0 -0.967,-0.002 -1.81,0.143 -2.315,0.43 -0.647,0.435 -0.767,0.826 -0.767,1.495 l 5.927,1.661 c 2.695,0.716 4.657,1.717 4.968,4.61 0.158,1.351 0.267,2.955 -1.181,4.157"/><path id="-" d="m 0,0 -5.733,0 c -0.57,0 -1.056,-0.335 -1.149,-0.941 l -0.193,-1.792 c -0.03,-0.508 0.186,-1.128 1.008,-1.128 l 5.867,0 c 0.556,0 0.994,0.404 1.038,1.006 l 0.183,1.768 C 1.08,-0.595 0.787,0 0,0"/><path id="n" d="m 0,0 c -2.722,0 -3.643,-0.758 -5.392,-3.279 l -0.836,-1.19 0.341,3.176 c 0.068,0.533 -0.21,1.119 -1.019,1.119 l -1.732,0 c -0.726,-0.011 -0.988,-0.65 -1.025,-0.899 l -1.579,-14.797 c -0.046,-0.355 0.195,-1.02 0.936,-1.057 l 0.004,-0.001 1.819,0 c 0.507,0.007 0.972,0.383 1.031,0.935 l 0.522,5.079 3.521,4.566 c 0.612,0.794 1.146,1.54 1.635,2.04 0.379,0.391 0.695,0.732 1.229,0.732 l 0.346,0 C 0.392,-3.583 0.562,-3.939 0.55,-4.418 L 0.547,-4.423 C 0.551,-4.579 0.486,-5.081 0.392,-5.867 L -0.663,-15.87 c -0.043,-0.355 0.198,-1.02 0.937,-1.057 l 0.004,-0.001 1.819,0 c 0.508,0.007 0.973,0.383 1.031,0.935 l 1.085,10.33 c 0.062,0.558 0.129,1.265 0.131,1.561 0,0.002 0,0.008 0,0.008 C 4.344,-1.676 3.158,0 0,0"/><g id="i"><path id="path20553" d="m 0,0 c 0,0 -4.965,0 -4.968,0 -0.66,0 -0.95,-0.254 -1.049,-0.908 l -0.138,-1.226 c -0.051,-0.539 0.325,-1.015 0.883,-1.086 l 2.18,-0.37 -1.247,-12.091 c -0.043,-0.355 0.198,-1.02 0.934,-1.057 l 0.006,-0.001 1.821,0 c 0.507,0.007 0.971,0.383 1.03,0.935 l -0.001,0 1.537,14.745 C 1.025,-0.683 0.8,0 0,0"/><path id="path20555" d="m 0,0 -2.453,-0.001 c -0.643,0 -1.073,-0.42 -1.15,-0.938 l -0.259,-2.529 c -0.029,-0.385 0.242,-1.061 1.002,-1.061 l 2.488,-0.002 c 0,0.002 0.002,0.002 0.002,0.002 0.556,0 0.995,0.402 1.033,1.008 l 0.256,2.434 C 0.978,-0.595 0.637,0 0,0" transform="translate(1.156,7.105)"/></g></defs><metadata id="metadata13"/><g id="layer1"><g id="surface379488" transform="matrix(2.5352148,0,0,2.5352148,-1386.8811,-1632.8547)"><g id="g20626" transform="matrix(0.08171016,0,0,0.08171016,551.22126,660.76774)"><path id="path20560" fill="#ef59a1" d="m 582.59312,0 c -72.5958,0 -132.3848,59.78873 -132.3848,132.38476 v 43.75 22.85742 72.72851 c 0,43.23737 -34.1124,77.35157 -77.3496,77.35156 -43.2372,0 -77.3496,-34.1142 -77.3496,-77.35156 v -13.45117 -30.29882 -7.44336 a 43.754375,43.754375 0 0 0 -43.75,-43.75 h -130.8437 a 43.754375,43.754375 0 1 0 0,87.5 h 87.0937 v 7.44336 c 0,90.5257 74.3238,164.85156 164.8496,164.85156 90.5258,2e-5 164.8496,-74.32585 164.8496,-164.85156 v -72.72852 -43.75 -22.85742 c 0,-25.30695 19.5775,-44.884755 44.8848,-44.884755 25.3072,-1e-5 44.8848,19.577795 44.8848,44.884755 v 43.75 2.65039 a 43.754375,43.754375 0 0 0 43.75,43.75 h 125.6562 a 43.754375,43.754375 0 1 0 0,-87.5 h -81.9062 v -2.65039 C 714.97792,59.788735 655.18882,-5e-6 582.59312,5e-6 Z"/><g id="g20592" fill="#bf1e23"><path id="path20562" d="m 295.50948,264.27726 v -36.3066 -7.4433 c -0.002,-24.16146 -19.58854,-43.74758 -43.75,-43.75 h -43.7502 v 87.5 z"/><path id="path20564" d="m 627.47832,135.03526 v 41.0995 2.6504 c 0,24.16146 19.5885,43.74758 43.75,43.75 h 43.75 v -87.5 z"/><g id="g20590" transform="matrix(5.407,0,0,-5.407,68.536,522.821)"><use id="use20566" width="100%" height="100%" x="0" y="0" xlink:href="#s"/><use id="use20568" width="100%" height="100%" x="0" y="0" transform="translate(14.633,0.2)" xlink:href="#h"/><use id="use20570" width="100%" height="100%" x="0" y="0" transform="translate(27.73)" xlink:href="#i"/><use id="use20572" width="100%" height="100%" x="0" y="0" transform="translate(43.3,0.2)" xlink:href="#n"/><use id="use20574" width="100%" height="100%" x="0" y="0" transform="translate(57.616,-5.37)" xlink:href="#-"/><use id="use20576" width="100%" height="100%" x="0" y="0" transform="translate(77.321,-0.853)" xlink:href="#k"/><use id="use20578" width="100%" height="100%" x="0" y="0" transform="translate(84.257,-7.778)" xlink:href="#e"/><use id="use20580" width="100%" height="100%" x="0" y="0" transform="translate(103.102)" xlink:href="#i"/><use id="use20582" width="100%" height="100%" x="0" y="0" transform="translate(113.95,-5.379)" xlink:href="#-"/><use id="use20584" width="100%" height="100%" x="0" y="0" transform="translate(129.429)" xlink:href="#s"/><use id="use20586" width="100%" height="100%" x="0" y="0" transform="translate(136.479,-7.778)" xlink:href="#e"/><use id="use20588" width="100%" height="100%" x="0" y="0" transform="translate(155.321)" xlink:href="#i"/></g></g></g></g></g></svg>