<svg xmlns="http://www.w3.org/2000/svg" xmlns:svg="http://www.w3.org/2000/svg" id="svg16" width="800" height="800" version="1.1" viewBox="0 0 211.667 211.667"><metadata id="metadata13"/><g id="layer1"><g id="surface379488" transform="matrix(2.5352148,0,0,2.5352148,-1386.8811,-1632.8547)"><g id="g20737" transform="matrix(0.05800726,0,0,0.05800726,551.22131,648.87025)"><g id="g20713"><path id="path20687" fill="#404848" d="m 19.972,1208.886 h 6.131 c 0.037,9.269 0.461,17.757 1.225,25.448 7.92,-2.34 16.551,-4.236 25.873,-5.69 l 0.161,5.761 c -11.98,1.453 -22.348,3.828 -31.104,7.142 -11.003,4.165 -16.534,9.517 -16.534,15.967 0,4.536 2.091,7.693 6.327,9.499 3.915,1.613 9.852,2.411 17.808,2.411 8.331,0 17.404,-0.673 27.187,-2.02 v 5.778 c -9.676,0.974 -18.609,1.47 -26.671,1.47 -20.274,0 -30.375,-5.688 -30.375,-17.137 0,-8.594 7.354,-15.737 22.134,-21.496 -0.779,-5.815 -1.508,-14.852 -2.162,-27.133"/><path id="path20689" fill="#404848" d="m 101.494,1223.771 -0.498,-5.051 4.909,-0.158 c 8.844,-0.213 15.259,-0.444 19.264,-0.675 -0.779,-2.285 -1.914,-5.529 -3.418,-9.711 l 5.687,-0.851 c 0.443,1.561 1.613,4.998 3.438,10.315 3.97,-0.106 10.349,-0.425 19.175,-0.939 l 4.272,-0.23 0.3,4.997 c -2.586,0.143 -8.754,0.355 -18.484,0.673 l -3.667,0.106 c 0.709,1.56 1.56,3.528 2.482,5.955 0.709,1.594 1.38,3.224 2.126,4.837 5.831,-0.301 11.766,-0.584 17.737,-0.938 l 4.202,-0.32 0.212,5.193 c -7.621,0.266 -14.318,0.478 -20.061,0.584 3.97,8.223 7.39,14.283 10.296,18.253 l -4.626,3.101 c -7.833,-4.058 -15.984,-6.114 -24.492,-6.114 -9.497,0 -14.247,2.8 -14.247,8.381 0,6.807 7.46,10.225 22.399,10.225 5.352,0 12.104,-0.673 20.22,-2.02 v 5.778 c -9.02,0.921 -15.399,1.383 -19.191,1.383 -19.158,0 -28.745,-5.212 -28.745,-15.579 0,-4.252 2.091,-7.549 6.273,-9.906 3.543,-1.949 8.08,-2.906 13.645,-2.906 8.294,0 15.206,1.559 20.718,4.643 -3.298,-5.6 -5.919,-10.561 -7.851,-14.886 -2.747,0.106 -7.055,0.248 -12.901,0.479 l -9.959,0.406 c -6.432,0.249 -10.9,0.407 -13.397,0.515 l -0.248,-5.086 c 2.337,-0.071 6.415,-0.124 12.192,-0.178 11.802,-0.46 19.192,-0.761 22.205,-0.922 -1.506,-3.294 -3.012,-6.804 -4.518,-10.543 -2.553,0.035 -6.737,0.266 -12.476,0.585 -5.991,0.267 -10.297,0.461 -12.973,0.604"/><path id="path20691" fill="#404848" d="m 232.423,1224.905 c -3.154,10.846 -6.591,20.062 -10.403,27.716 -3.614,-8.435 -6.556,-16.125 -8.841,-23.109 5.565,-3.242 11.978,-4.765 19.244,-4.607 m -25.625,2.855 c -8.063,6.538 -12.085,14.69 -12.085,24.456 0,5.918 1.346,10.756 4.005,14.513 2.552,3.634 5.832,5.423 9.783,5.423 4.679,0 9.764,-4.146 15.222,-12.475 5.246,-7.941 9.978,-19.248 14.23,-34.009 11.094,3.279 16.623,10.616 16.623,22.012 0,7.708 -2.73,13.36 -8.205,16.994 -3.988,2.676 -10.936,4.077 -20.824,4.183 l 2.003,5.529 c 21.833,-0.549 32.767,-9.215 32.767,-25.963 0,-14.158 -7.017,-23.409 -21.035,-27.697 1.01,-4.235 1.7,-7.338 2.108,-9.305 l -5.882,-1.08 c -0.248,2.409 -0.852,5.617 -1.737,9.64 -1.347,-0.106 -2.338,-0.142 -3.014,-0.142 -6.485,0 -12.865,1.737 -19.103,5.158 -0.992,-2.959 -2.286,-7.071 -3.844,-12.3 l -5.354,1.826 c 1.382,4.57 2.853,8.983 4.342,13.237 z m 1.471,39.005 c -2.463,0 -4.431,-1.347 -5.919,-4.042 -1.683,-3.03 -2.499,-6.752 -2.499,-11.164 0,-7.036 2.942,-13.273 8.79,-18.715 3.12,8.046 6.451,16.252 9.959,24.616 -4.27,6.22 -7.744,9.305 -10.331,9.305 z"/><path id="path20693" fill="#404848" d="m 300.477,1223.771 -0.514,-5.051 4.944,-0.158 c 8.825,-0.213 15.241,-0.444 19.248,-0.675 -0.799,-2.285 -1.95,-5.529 -3.421,-9.711 l 5.689,-0.851 c 0.459,1.561 1.594,4.998 3.437,10.315 3.952,-0.106 10.348,-0.425 19.157,-0.939 l 4.288,-0.23 0.32,4.997 c -2.605,0.143 -8.772,0.355 -18.483,0.673 l -3.688,0.106 c 0.709,1.56 1.542,3.528 2.482,5.955 0.692,1.594 1.381,3.224 2.11,4.837 5.865,-0.301 11.782,-0.584 17.774,-0.938 l 4.182,-0.32 0.248,5.193 c -7.673,0.266 -14.354,0.478 -20.097,0.584 3.968,8.223 7.409,14.283 10.279,18.253 l -4.608,3.101 c -7.815,-4.058 -16.003,-6.114 -24.474,-6.114 -9.516,0 -14.247,2.8 -14.247,8.381 0,6.807 7.442,10.225 22.382,10.225 5.353,0 12.087,-0.673 20.204,-2.02 v 5.778 c -9.003,0.921 -15.383,1.383 -19.176,1.383 -19.174,0 -28.745,-5.212 -28.745,-15.579 0,-4.252 2.074,-7.549 6.274,-9.906 3.508,-1.949 8.081,-2.906 13.646,-2.906 8.294,0 15.205,1.559 20.715,4.643 -3.276,-5.6 -5.917,-10.561 -7.885,-14.886 -2.711,0.106 -7.035,0.248 -12.867,0.479 l -9.976,0.406 c -6.398,0.249 -10.899,0.407 -13.379,0.515 l -0.268,-5.086 c 2.34,-0.071 6.399,-0.124 12.229,-0.178 11.784,-0.46 19.158,-0.761 22.168,-0.922 -1.523,-3.294 -3.011,-6.804 -4.499,-10.543 -2.571,0.035 -6.737,0.266 -12.479,0.585 -5.968,0.267 -10.312,0.461 -12.97,0.604"/><path id="path20695" fill="#404848" d="m 420.244,1208.886 h 6.129 c 0.036,9.269 0.462,17.757 1.241,25.448 7.922,-2.34 16.535,-4.236 25.874,-5.69 l 0.161,5.761 c -11.98,1.453 -22.329,3.828 -31.103,7.142 -11.041,4.165 -16.551,9.517 -16.551,15.967 0,4.536 2.126,7.693 6.361,9.499 3.882,1.613 9.818,2.411 17.828,2.411 8.276,0 17.315,-0.673 27.168,-2.02 v 5.778 c -9.711,0.974 -18.591,1.47 -26.688,1.47 -20.273,0 -30.393,-5.688 -30.393,-17.137 0,-8.594 7.392,-15.737 22.171,-21.496 -0.782,-5.815 -1.527,-14.852 -2.198,-27.133"/><path id="path20697" fill="#404848" d="m 528.774,1210.444 5.493,-1.736 c 2.322,7.302 4.057,13.098 5.37,17.403 4.873,-1.223 10.261,-2.483 16.179,-3.758 -1.238,-2.958 -3.011,-6.733 -5.315,-11.341 l 5.103,-1.4 0.849,1.861 c 2.235,4.537 3.812,7.832 4.678,9.959 4.469,-0.602 7.729,-0.886 9.713,-0.886 4.645,0 8.579,1.33 11.733,3.934 4.183,3.474 6.292,8.153 6.292,14.019 0,6.292 -2.412,11.306 -7.213,14.993 -3.685,2.853 -9.446,4.271 -17.332,4.271 -1.665,0 -3.901,-0.072 -6.682,-0.143 l -1.188,-6.061 c 4.112,0.249 7.021,0.389 8.706,0.389 12.064,0 18.093,-4.447 18.093,-13.379 0,-4.128 -1.311,-7.319 -3.935,-9.587 -2.409,-2.127 -5.6,-3.207 -9.64,-3.207 -1.63,0 -3.865,0.159 -6.503,0.495 2.567,6.434 4.429,11.786 5.618,16.092 l -5.867,1.826 c -1.755,-7.142 -3.492,-12.866 -5.21,-17.155 -5.283,1.17 -10.827,2.588 -16.553,4.182 5.175,18.538 8.843,33.316 11.042,44.358 l -6.026,1.79 c -2.444,-15.205 -5.869,-30.091 -10.225,-44.623 -2.854,0.813 -7.425,2.269 -13.717,4.253 l -2.96,0.993 -1.843,-5.424 c 4.821,-1.577 10.421,-3.278 16.942,-5.104 -1.102,-3.758 -2.98,-9.411 -5.602,-17.014"/><path id="path20699" fill="#404848" d="m 626.137,1224.304 10.155,-0.194 12.14,-0.09 8.47,-0.178 v 9.145 c -2.639,-1.561 -5.812,-2.34 -9.355,-2.34 -4.042,0 -7.533,1.276 -10.473,3.757 -2.994,2.517 -4.486,5.777 -4.486,9.711 0,3.013 0.96,5.708 2.803,8.047 2.517,3.295 6.236,4.925 11.022,4.925 9.04,0 13.947,-3.829 14.833,-11.554 0.477,1.453 0.727,2.907 0.727,4.343 0,7.211 -2.693,12.617 -8.046,16.18 -4.538,3.048 -12.088,4.642 -22.615,4.784 l 2.268,5.582 c 22.4,-0.549 33.602,-8.914 33.602,-25.022 0,-5.423 -1.649,-10.403 -4.927,-14.903 v -12.726 c 3.014,-0.07 7.426,-0.143 13.312,-0.247 5.916,-0.071 9.956,-0.09 12.138,-0.09 v -5.44 c -2.872,0.124 -6.965,0.248 -12.302,0.425 -6.237,0.106 -10.632,0.213 -13.148,0.32 v -10.617 h -5.812 v 10.704 c -5.814,0.124 -14.816,0.195 -27.029,0.195 -1.254,0 -4.199,-0.035 -8.909,-0.123 v 5.406 h 5.632 m 31.759,18.677 c 0,2.181 -0.886,4.183 -2.676,6.044 -2.232,2.286 -4.945,3.42 -8.098,3.42 -2.695,0 -4.928,-0.78 -6.701,-2.339 -1.79,-1.525 -2.657,-3.544 -2.657,-6.096 0,-3.048 1.241,-5.354 3.827,-6.965 1.914,-1.224 4.183,-1.862 6.771,-1.862 6.342,10e-4 9.534,2.606 9.534,7.798 z"/><path id="path20701" fill="#404848" d="m 731.428,1215.886 1.858,-5.335 c 12.246,0.71 24.03,2.445 35.339,5.175 l -2.413,5.37 c -9.745,-2.464 -21.299,-4.2 -34.784,-5.21 m -2.485,6.396 5.443,0.319 c -0.924,13.823 -1.722,23.073 -2.342,27.716 8.456,-10.527 18.342,-15.79 29.613,-15.79 5.83,0 10.566,1.702 14.231,5.121 4.074,3.722 6.112,8.33 6.112,13.806 0,11.962 -7.814,18.997 -23.354,21.124 -4.06,0.514 -11.926,0.78 -23.571,0.833 l -1.789,-5.671 c 4.076,0.143 7.586,0.249 10.528,0.249 7.884,0 13.803,-0.426 17.774,-1.258 9.854,-2.073 14.76,-7.107 14.76,-15.046 0,-4.802 -1.822,-8.523 -5.492,-11.165 -2.569,-1.859 -5.777,-2.764 -9.712,-2.764 -11.197,0 -20.824,5.989 -28.939,18.006 l -6.184,-0.585 c 1.611,-9.73 2.586,-21.356 2.922,-34.895 z"/><path id="path20703" fill="#404848" d="m 889.947,1214.112 -4.678,1.597 c -2.18,-4.698 -4.238,-8.331 -6.113,-10.9 l 4.586,-1.843 c 3.156,5.034 5.175,8.754 6.205,11.146 m -63.938,9.553 -0.25,-4.945 c 3.862,-0.125 8.01,-0.229 12.298,-0.336 4.645,-0.105 8.594,-0.266 11.875,-0.406 -0.428,-1.312 -1.101,-3.119 -2.02,-5.549 -0.641,-1.842 -1.154,-3.26 -1.492,-4.27 l 5.62,-0.834 c 0.513,1.561 1.027,3.244 1.646,5.034 0.817,2.162 1.385,3.899 1.773,5.211 l 3.281,-0.195 c 4.908,-0.231 9.762,-0.408 14.654,-0.584 -1.473,-2.908 -3.225,-6.185 -5.283,-9.89 l 4.502,-1.489 1.17,2.074 c 2.374,3.987 4.024,7.071 4.946,9.305 l -2.747,1.328 v 3.617 c -1.595,0.051 -4.504,0.105 -8.632,0.158 -2.109,0.054 -5.529,0.177 -10.222,0.354 0.565,1.56 2.088,5.139 4.533,10.703 2.498,-0.177 6.274,-0.371 11.417,-0.583 1.024,-0.053 4.587,-0.266 10.664,-0.585 l 0.161,5.034 c -2.39,0.088 -5.281,0.212 -8.701,0.301 -3.279,0.124 -7.089,0.264 -11.377,0.442 2.411,4.997 5.779,11.093 10.156,18.235 l -4.292,2.924 c -8.682,-3.862 -16.657,-5.847 -23.939,-5.847 -9.889,0 -14.871,2.764 -14.871,8.293 0,6.698 7.178,10.03 21.604,10.03 6.843,0 14,-0.638 21.391,-1.895 v 5.759 c -7.744,0.921 -14.513,1.382 -20.31,1.382 -18.821,0 -28.23,-5.105 -28.23,-15.331 0,-4.34 2.094,-7.673 6.201,-9.941 3.69,-2.02 8.312,-3.013 13.913,-3.013 5.547,0 12.282,1.274 20.149,3.88 -2.128,-3.791 -4.59,-8.524 -7.444,-14.229 l -4.697,0.178 -8.381,0.408 -8.471,0.336 -9.676,0.336 -5.051,0.249 -0.142,-5.281 c 2.215,-0.053 6.201,-0.071 11.857,-0.071 l 9.818,-0.266 c 5.066,-0.106 9.319,-0.248 12.723,-0.407 -0.268,-0.621 -0.565,-1.224 -0.851,-1.862 -1.042,-2.339 -2.286,-5.281 -3.651,-8.842 -3.931,0.194 -8.576,0.407 -13.999,0.585 -4.253,0.141 -8.133,0.317 -11.623,0.495 z"/><path id="path20705" fill="#404848" d="m 928.494,1224.976 -0.443,-5.174 c 1.686,0 2.979,0.035 3.793,0.035 l 6.858,-0.107 c 4.04,0 7.122,-0.051 9.304,-0.193 1.54,-3.066 3.137,-6.77 4.678,-11.147 l 6.024,0.354 c -1.203,2.942 -2.799,6.486 -4.747,10.527 6.112,-0.142 14.372,-0.46 24.775,-0.921 l 4.942,-0.141 0.162,5.262 c -2.68,0.054 -7.516,0.195 -14.569,0.443 l -11.908,0.319 -6.098,0.247 c -2.408,3.9 -5.208,8.188 -8.453,12.796 4.572,-3.724 9.375,-5.619 14.389,-5.619 6.647,0 10.652,3.35 12.07,9.96 8.471,-2.375 15.237,-3.987 20.254,-4.838 v 5.209 c -7.549,1.613 -14.125,3.189 -19.67,4.768 0.16,3.687 0.213,7.886 0.213,12.636 0,1.046 0,2.232 -0.053,3.579 h -5.371 c 0.09,-2.711 0.107,-4.572 0.107,-5.6 0,-1.489 -0.053,-4.501 -0.16,-9.038 -12.846,4.519 -19.279,9.322 -19.279,14.389 0,5.192 5.775,7.798 17.364,7.798 6.63,0 14.462,-0.637 23.537,-1.931 v 5.759 c -8.63,0.922 -16.497,1.382 -23.713,1.382 -15.241,0 -22.841,-4.146 -22.841,-12.477 0,-7.193 8.13,-13.857 24.436,-19.919 -0.605,-4.571 -2.979,-6.839 -7.051,-6.839 -8.473,0 -17.565,6.201 -27.309,18.626 l -4.522,-4.202 c 8.116,-7.956 14.815,-16.763 20.099,-26.369 -1.773,0 -4.607,0.07 -8.526,0.266 -3.118,0.107 -5.899,0.16 -8.292,0.16"/><path id="path20707" fill="#404848" d="m 1042.307,1270.593 -2.111,-6.026 c 13.148,-0.106 22.421,-0.85 27.716,-2.232 12.886,-3.368 19.353,-10.262 19.353,-20.717 0,-7.46 -3.154,-12.743 -9.41,-15.79 -2.782,-1.417 -6.877,-2.127 -12.299,-2.127 -7.603,0 -19.899,2.163 -37.003,6.397 l -1.259,-6.291 c 6.202,-1.063 10.987,-1.896 14.34,-2.518 11.374,-2.019 19.936,-3.011 25.677,-3.011 5.635,0 10.44,1.063 14.408,3.189 7.408,4.076 11.146,10.704 11.146,19.849 0,13.432 -7.765,22.275 -23.285,26.529 -5.637,1.506 -14.746,2.427 -27.273,2.748"/><path id="path20709" fill="#404848" d="m 1173.323,1225.119 c 0.229,2.48 0.442,5.6 0.706,9.286 0.142,2.712 0.303,5.139 0.465,7.266 0.318,5.139 0.616,9.287 0.745,12.477 -5.035,-1.932 -9.27,-2.89 -12.815,-2.89 -4.34,0 -7.778,1.01 -10.295,3.031 -2.905,2.268 -4.396,5.388 -4.396,9.357 0,8.082 5.388,12.156 16.11,12.156 11.181,0 16.887,-4.5 17.028,-13.431 4.058,2.232 8.187,4.979 12.319,8.256 l 2.852,-5.351 c -4.642,-3.049 -9.784,-6.026 -15.313,-8.86 -0.211,-4.414 -0.531,-10.138 -0.956,-17.173 -0.229,-3.562 -0.5,-7.958 -0.834,-13.238 3.687,0.85 8.173,2.16 13.508,3.952 l 0.543,-5.653 c -9.214,-2.765 -18.568,-4.431 -28.102,-5.069 v 5.069 c 2.446,0.142 5.281,0.407 8.435,0.815 m -31.934,-0.532 c -3.896,14.691 -9.039,27.751 -15.54,39.201 l 5.405,3.01 c 6.555,-13.131 11.8,-27.291 15.699,-42.495 5.583,-0.425 10.082,-0.816 13.503,-1.206 l -0.372,-5.528 c -3.312,0.46 -7.282,0.886 -11.854,1.329 0.92,-3.899 1.737,-7.584 2.339,-11.04 l -5.758,-0.425 c -0.41,2.799 -1.118,6.734 -2.128,11.802 -3.97,0.177 -8.932,0.284 -14.869,0.337 l 0.142,5.618 c 2.745,-0.107 7.194,-0.319 13.433,-0.603 z m 33.954,37.995 c -0.104,1.878 -0.53,3.331 -1.239,4.36 -1.667,2.393 -4.874,3.615 -9.659,3.615 -7.516,0 -11.27,-2.411 -11.27,-7.212 0,-4.768 2.852,-7.142 8.507,-7.142 3.044,0 7.71,1.24 13.839,3.686 0.035,-10e-4 0,0.92 -0.178,2.693 z"/><path id="path20711" fill="#404848" d="m 1277.669,1222.956 4.624,-2.092 c 3.229,4.573 5.955,8.719 8.102,12.476 l -4.84,2.004 c -2.497,-4.626 -5.117,-8.737 -7.886,-12.388 m -10.613,4.004 4.536,-2.339 c 2.549,3.722 5.226,8.046 7.941,12.901 l -4.612,2.268 c -2.282,-4.358 -4.906,-8.646 -7.865,-12.83 z m 1.681,-18.074 5.334,4.11 c -7.955,7.408 -17.88,15.419 -29.701,24.031 -3.633,2.375 -5.401,3.846 -5.401,4.342 0,0.515 0.563,1.115 1.664,1.861 14.137,9.143 26.119,18.678 35.973,28.601 l -4.926,4.361 c -9.8,-10.386 -20.024,-19.14 -30.783,-26.282 -5.722,-3.846 -8.61,-6.646 -8.61,-8.454 0,-1.914 2.889,-4.855 8.807,-8.878 10.295,-7.212 19.526,-15.08 27.643,-23.692 z"/></g><g id="g20729"><path id="path20715" fill="#404848" d="m 324.184,1037.459 c 0,-38.999 -10.16,-57.188 -42.965,-57.188 -32.805,0 -42.996,18.189 -42.996,57.188 0,38.934 10.191,57.137 42.996,57.137 32.805,0 42.965,-18.203 42.965,-57.137 m 50.713,0 c 0,59.155 -33.147,75.737 -93.678,75.737 -60.562,0 -93.695,-16.583 -93.695,-75.737 0,-59.17 33.133,-75.752 93.695,-75.752 60.531,0 93.678,16.582 93.678,75.752 z"/><path id="path20717" fill="#404848" d="m 89.699,1093.4 c 18.813,-2.687 31.511,-7.701 31.511,-18.484 0,-11.928 -26.497,-16.418 -60.578,-25.756 -30.299,-8.259 -60.631,-20.466 -60.631,-46.54 0,-26.772 28.94,-40.929 83.701,-40.929 23.907,0 48.307,3.211 70.902,9.192 0,3.408 0,14.108 0,19.466 -20.94,-5.98 -45.257,-8.897 -66.297,-8.897 -31.249,0 -40.751,6.325 -40.751,16.223 0,12.454 32.706,17.728 64.38,26.756 31.805,9.079 57.269,21.386 57.269,46.292 0,38.932 -69.41,42.473 -90.762,42.473 -26.071,0 -52.123,-3.198 -73.951,-8.916 0,-3.442 0,-14.125 0,-19.451 28.66,8.194 62.988,11.785 85.207,8.571"/><path id="path20719" fill="#404848" d="m 1005.154,1093.4 c 18.777,-2.687 31.492,-7.701 31.492,-18.484 0,-11.928 -26.542,-16.418 -60.578,-25.756 -30.331,-8.259 -60.661,-20.466 -60.661,-46.54 0,-26.772 28.952,-40.929 83.716,-40.929 23.889,0 48.321,3.211 70.885,9.192 0,3.408 0,14.108 0,19.466 -20.907,-5.98 -45.226,-8.897 -66.298,-8.897 -31.281,0 -40.75,6.325 -40.75,16.223 0,12.454 32.705,17.728 64.363,26.756 31.821,9.079 57.284,21.386 57.284,46.292 0,38.932 -69.409,42.473 -90.762,42.473 -26.069,0 -52.108,-3.198 -73.932,-8.916 0,-3.442 0,-14.125 0,-19.451 28.644,8.194 62.985,11.785 85.241,8.571"/><path id="path20721" fill="#404848" d="m 558.028,1052.206 c 0,51.715 20.235,58.072 70.625,58.072 h 95.316 v -20.645 h -82.831 c -30.987,0 -33.738,-8.881 -33.738,-30.742 v -11.403 h 106.557 v -21.385 H 607.4 v -9.682 c 0,-21.878 2.751,-30.775 33.738,-30.775 h 78.996 V 965 h -91.481 c -50.39,0 -70.625,6.375 -70.625,58.072 v 29.134"/><polyline id="polyline20723" fill="#404848" points="437.92 1110.278 487.388 1110.278 487.388 986.057 547.557 986.057 547.557 965 377.766 965 377.766 986.057 437.92 986.057 437.92 1110.278"/><polyline id="polyline20725" fill="#404848" points="795.823 1110.278 845.292 1110.278 845.292 986.057 905.463 986.057 905.463 965 735.653 965 735.653 986.057 795.823 986.057 795.823 1110.278"/><path id="path20727" fill="#404848" d="m 1245.767,965 v 95.809 c 0,23.04 -12.849,33.739 -40.393,33.739 -27.952,0 -40.41,-10.404 -40.41,-33.739 V 965 h -49.632 v 84.256 c 0,48.274 17.962,63.941 90.254,63.941 71.807,0 89.796,-15.667 89.796,-63.941 V 965 h -49.615"/></g><g id="g20735"><path id="path20731" fill="#ee7b35" d="M 789.442,259.604 C 683.155,227.659 582.363,192.072 594.54,129.364 609.182,54.043 801.482,73.708 912.665,122.688 l 1.28,-1.349 C 902.073,97.726 887.501,84.333 856.906,70.74 785.36,38.964 707.778,16.4 612.721,4.998 473.142,-11.734 367.492,13.566 347.323,80.625 c -25.806,85.812 96.168,170.477 219.592,213.789 133.507,46.785 274.98,51.881 366.291,100.284 49.419,26.208 70.77,81.599 31.913,150.138 l 2.123,0.343 c 41.422,-32.456 62.639,-67.365 61.39,-115.801 -1.821,-70.202 -63.007,-116.816 -239.19,-169.774"/><path id="path20733" fill="#2561a7" d="m 938.301,442.899 c -0.979,35.625 -76.91,94.348 -167.175,136.544 -127.977,59.776 -253.324,61.933 -279.804,5.098 -26.478,-56.774 55.929,-151.223 184.005,-210.858 28.403,-13.224 56.671,-23.58 83.756,-31.136 -19.327,-4.015 -39.196,-8.062 -59.265,-12.379 -51.812,15.516 -106.629,38.554 -161.172,69.082 -194.395,108.92 -311.071,270.124 -260.675,360.119 50.426,90.061 248.803,74.749 443.266,-34.105 19.733,-11.061 38.624,-22.628 56.667,-34.606 119.987,-79.903 190.283,-187.58 162.083,-247.824 l -1.686,0.065"/></g></g></g></g></svg>