<?xml version="1.0" encoding="UTF-8" standalone="no"?>
<svg
   xmlns:dc="http://purl.org/dc/elements/1.1/"
   xmlns:cc="http://creativecommons.org/ns#"
   xmlns:rdf="http://www.w3.org/1999/02/22-rdf-syntax-ns#"
   xmlns:svg="http://www.w3.org/2000/svg"
   xmlns="http://www.w3.org/2000/svg"
   xmlns:sodipodi="http://sodipodi.sourceforge.net/DTD/sodipodi-0.dtd"
   xmlns:inkscape="http://www.inkscape.org/namespaces/inkscape"
   width="800"
   height="800"
   viewBox="0 0 211.66666 211.66667"
   version="1.1"
   id="svg16"
   inkscape:version="1.0.2 (e86c870879, 2021-01-15)"
   sodipodi:docname="tobu_railway.svg">
  <defs
     id="defs10">
    <linearGradient
       x1="0"
       y1="0"
       x2="1"
       y2="0"
       gradientUnits="userSpaceOnUse"
       gradientTransform="matrix(10.975082,30.246384,30.246384,-10.975082,113.9292,102.07617)"
       id="linearGradient54">
      <stop
         style="stop-opacity:1;stop-color:#ffffff"
         offset="0"
         id="stop20820" />
      <stop
         style="stop-opacity:1;stop-color:#005bac"
         offset="1"
         id="stop20822" />
    </linearGradient>
    <linearGradient
       x1="0"
       y1="0"
       x2="1"
       y2="0"
       gradientUnits="userSpaceOnUse"
       gradientTransform="matrix(0,-30.063477,-30.063477,0,122.24268,172.63867)"
       id="linearGradient74">
      <stop
         style="stop-opacity:1;stop-color:#ffffff"
         offset="0"
         id="stop20825" />
      <stop
         style="stop-opacity:1;stop-color:#005bac"
         offset="1"
         id="stop20827" />
    </linearGradient>
    <linearGradient
       x1="0"
       y1="0"
       x2="1"
       y2="0"
       gradientUnits="userSpaceOnUse"
       gradientTransform="matrix(35.675781,0,0,-35.675781,73.007324,131.65625)"
       id="linearGradient94">
      <stop
         style="stop-opacity:1;stop-color:#ffffff"
         offset="0"
         id="stop20830" />
      <stop
         style="stop-opacity:1;stop-color:#005bac"
         offset="1"
         id="stop20832" />
    </linearGradient>
    <linearGradient
       x1="0"
       y1="0"
       x2="1"
       y2="0"
       gradientUnits="userSpaceOnUse"
       gradientTransform="matrix(-42.926758,0,0,42.926758,170.2251,143.08789)"
       id="linearGradient114">
      <stop
         style="stop-opacity:1;stop-color:#ffffff"
         offset="0"
         id="stop20835" />
      <stop
         style="stop-opacity:1;stop-color:#005bac"
         offset="1"
         id="stop20837" />
    </linearGradient>
  </defs>
  <sodipodi:namedview
     id="base"
     pagecolor="#ffffff"
     bordercolor="#666666"
     borderopacity="1.0"
     inkscape:pageopacity="0.0"
     inkscape:pageshadow="2"
     inkscape:zoom="0.98994949"
     inkscape:cx="422.00961"
     inkscape:cy="383.29423"
     inkscape:document-units="px"
     inkscape:current-layer="surface379488"
     inkscape:document-rotation="0"
     showgrid="true"
     showguides="true"
     inkscape:guide-bbox="true"
     inkscape:snap-page="false"
     units="px"
     showborder="true"
     inkscape:showpageshadow="true"
     inkscape:pagecheckerboard="false"
     inkscape:snap-grids="true"
     inkscape:snap-to-guides="true"
     inkscape:lockguides="false"
     inkscape:window-width="2560"
     inkscape:window-height="1387"
     inkscape:window-x="-8"
     inkscape:window-y="-8"
     inkscape:window-maximized="1">
    <inkscape:grid
       type="xygrid"
       id="grid18"
       originx="0"
       originy="0"
       enabled="true"
       spacingx="5.2916666"
       spacingy="5.2916666"
       empspacing="2"
       color="#3f3fff"
       opacity="0.05098039"
       empcolor="#3f3fff"
       empopacity="0.2" />
    <sodipodi:guide
       position="10.583333,105.83333"
       orientation="1,0"
       id="guide185"
       inkscape:locked="false" />
    <sodipodi:guide
       position="105.83333,201.08333"
       orientation="0,-1"
       id="guide187"
       inkscape:locked="false" />
    <sodipodi:guide
       position="201.08333,105.83333"
       orientation="1,0"
       id="guide189"
       inkscape:locked="false" />
    <sodipodi:guide
       position="105.83333,10.583336"
       orientation="0,-1"
       id="guide191"
       inkscape:locked="false" />
    <sodipodi:guide
       position="107.17508,106.0952"
       orientation="0,-1"
       id="guide193"
       inkscape:locked="false" />
  </sodipodi:namedview>
  <metadata
     id="metadata13">
    <rdf:RDF>
      <cc:Work
         rdf:about="">
        <dc:format>image/svg+xml</dc:format>
        <dc:type
           rdf:resource="http://purl.org/dc/dcmitype/StillImage" />
        <dc:title />
      </cc:Work>
    </rdf:RDF>
  </metadata>
  <g
     inkscape:label="Layer 1"
     inkscape:groupmode="layer"
     id="layer1">
    <g
       id="surface379488"
       transform="matrix(2.5352148,0,0,2.5352148,-1386.8811,-1632.8547)">
      <g
         transform="matrix(0.64024315,0,0,-0.64024315,504.47888,770.04419)"
         id="g20860">
        <g
           fill="#005bac"
           id="g20850">
          <path
             d="m 0,0 -0.791,-2.177 h -5.695 l -4.639,-12.753 h -3.771 l 4.642,12.753 h -5.698 L -15.158,0 Z"
             transform="translate(125.96629,138.4463)"
             id="path20842" />
          <path
             d="m 0,0 c -1.324,-3.643 -1.075,-5.451 0.725,-5.451 1.277,0 3.101,0.933 4.825,5.668 C 6.824,3.718 6.989,5.834 4.941,5.834 3.09,5.834 1.57,4.312 0.009,0.023 Z m -4.05,0.154 c 1.79,4.93 5.821,7.695 9.768,7.695 3.325,0 6.008,-1.951 4.011,-7.436 -1.697,-4.664 -5.384,-7.924 -9.816,-7.924 -4.418,0 -5.573,3.241 -3.971,7.645 z"
             transform="translate(135.59419,130.8008)"
             id="path20844" />
          <path
             d="m 0,0 c 0.57,0 1.347,-0.005 2.021,0.295 0.757,0.327 1.344,1 1.693,1.955 C 3.994,3.028 3.925,3.596 3.502,3.882 3.1,4.151 2.459,4.165 1.616,4.165 H 0.651 L -0.863,0 Z m -2.301,-6.625 c 0.785,0 1.528,0 2.176,0.306 0.85,0.366 1.513,1.101 1.892,2.142 0.324,0.894 0.266,1.57 -0.275,1.915 -0.462,0.303 -1.159,0.323 -2.199,0.323 H -1.57 L -3.273,-6.625 Z M 2.844,6.214 c 1.72,0 2.964,-0.082 3.92,-0.611 C 7.629,5.119 8.055,4.186 7.551,2.8 6.821,0.798 4.724,-0.38 2.885,-0.834 3.421,-0.925 4.333,-1.104 5.003,-1.666 5.666,-2.233 5.979,-3.132 5.488,-4.482 4.941,-5.984 3.476,-7.528 1.242,-8.209 0.069,-8.602 -1.301,-8.716 -3.322,-8.716 h -4.386 l 5.435,14.93 z"
             transform="translate(159.5952,132.23241)"
             id="path20846" />
          <path
             d="m 0,0 -2.945,-8.097 c -0.707,-1.949 -0.974,-2.793 -0.768,-3.551 0.215,-0.897 1.13,-1.191 1.871,-1.191 0.733,0 2.114,0.289 3.113,1.599 0.479,0.609 0.829,1.301 1.507,3.166 L 5.719,0 H 8.273 L 5.249,-8.301 c -0.417,-1.151 -2.112,-6.855 -8.664,-6.855 -1.518,0 -3.905,0.468 -4.24,2.875 -0.125,0.923 0.098,1.879 0.819,3.856 L -3.769,0 Z"
             transform="translate(182.0981,138.4463)"
             id="path20848" />
        </g>
        <path
           d="m 123.721,132.287 -10.942,-30.061 h 2.363 l 10.952,30.061 z"
           fill="url(#linearGradient54)"
           id="path20852"
           style="fill:url(#linearGradient54)" />
        <path
           d="m 126.511,172.639 -10.966,-30.064 h 2.429 l 10.967,30.064 z"
           fill="url(#linearGradient74)"
           id="path20854"
           style="fill:url(#linearGradient74)" />
        <path
           d="m 73.735,132.673 -0.728,-2.034 h 34.949 l 0.727,2.034 z"
           fill="url(#linearGradient94)"
           id="path20856"
           style="fill:url(#linearGradient94)" />
        <path
           d="m 128.022,144.099 -0.723,-2.022 h 42.214 l 0.712,2.022 z"
           fill="url(#linearGradient114)"
           id="path20858"
           style="fill:url(#linearGradient114)" />
      </g>
    </g>
  </g>
</svg>
