<svg xmlns="http://www.w3.org/2000/svg" xmlns:svg="http://www.w3.org/2000/svg" id="svg16" width="800" height="800" version="1.1" viewBox="0 0 211.667 211.667"><metadata id="metadata13"/><g id="layer1"><g id="surface379488" transform="matrix(2.5352148,0,0,2.5352148,-1386.8811,-1632.8547)"><g id="g21222" transform="matrix(0.06927258,0,0,0.06927258,554.16147,644.91534)"><g id="g21146" fill="#e73917"><path id="path21100" d="m 500.033,201.218 c -144.02,0 -260.8,94.987 -260.8,212.153 0,117.146 116.78,212.132 260.8,212.132 144.038,0 260.818,-94.987 260.818,-212.132 10e-4,-117.165 -116.78,-212.153 -260.818,-212.153 m 2.164,418.437 c 0,0 -10.745,-207.721 -220.854,-315.982 0,0 201.549,101.645 433.087,-2.226 0.001,-10e-4 -184.367,81.772 -212.233,318.208"/><path id="path21102" d="M 503.856,647.622 C 199.408,646.934 178.768,415.678 178.768,415.678 l -4.088,0.122 c 0,0 4.29,257.987 331.26,265.028"/><path id="path21104" d="M 504.342,701.145 C 137.144,692.018 112.03,416.507 112.03,416.507 l -4.067,0.142 c 0,0 19.548,310.155 398.443,317.703"/><path id="path21106" d="M 502.258,755.417 C 77.67,743.417 44.484,416.507 44.484,416.507 l -4.067,0.142 c 0,0 10.441,357.688 463.926,371.976"/><path id="path21108" d="m 497.827,755.417 c 424.589,-12 457.755,-338.91 457.755,-338.91 l 4.088,0.142 c 0,0 -10.463,357.688 -463.947,371.976"/><path id="path21110" d="m 496.835,701.145 c 367.16,-9.127 392.313,-284.638 392.313,-284.638 l 4.067,0.142 c 0,0 -19.548,310.155 -398.443,317.703"/><path id="path21112" d="M 498.373,647.622 C 802.821,646.934 823.462,415.678 823.462,415.678 l 4.087,0.122 c 0,0 -4.27,257.987 -331.26,265.028"/><path id="path21114" d="m 107.174,252.9 8.964,-16.633 c 0.385,-0.708 0.102,-1.66 -0.626,-2.044 l -4.088,-2.206 c -0.345,-0.182 -0.77,-0.222 -1.153,-0.121 -0.385,0.121 -0.709,0.384 -0.891,0.729 L 87.403,273.42 c -0.384,0.729 -0.142,1.66 0.606,2.064 l 4.108,2.186 c 0.344,0.202 0.769,0.243 1.133,0.121 0.385,-0.121 0.709,-0.364 0.891,-0.708 l 8.944,-16.654 44.924,24.243 c 0.364,0.182 0.749,0.243 1.153,0.122 0.364,-0.122 0.708,-0.385 0.891,-0.729 l 2.65,-4.897 c 0.385,-0.749 0.122,-1.679 -0.627,-2.064 z"/><path id="path21116" d="m 176.198,199.66 c -11.696,-10.28 -29.443,-13.942 -42.657,1.113 -5.383,6.111 -7.973,13.154 -7.508,20.357 0.547,8.074 4.716,15.926 11.817,22.159 11.717,10.279 29.465,13.881 42.719,-1.195 5.343,-6.07 7.912,-13.072 7.447,-20.316 -0.526,-8.033 -4.735,-15.905 -11.818,-22.118 m 3.724,23.514 c 0.344,4.958 -1.376,9.612 -5.1,13.841 -9.997,11.372 -23.109,7.022 -31.305,-0.182 -5.586,-4.917 -9.005,-11.13 -9.41,-17.039 -0.303,-4.998 1.438,-9.672 5.181,-13.962 9.956,-11.291 23.049,-6.921 31.244,0.263 5.585,4.918 9.026,11.13 9.39,17.079"/><path id="path21118" d="m 240.104,185.374 -40.735,-9.592 6.01,-33.228 c 0.102,-0.627 -0.202,-1.214 -0.708,-1.558 -0.546,-0.303 -1.234,-0.283 -1.72,0.082 l -5.949,4.613 c -0.304,0.223 -0.506,0.546 -0.587,0.931 l -7.549,41.727 -16.674,-21.653 c -0.485,-0.688 -1.457,-0.81 -2.104,-0.283 l -4.411,3.379 c -0.323,0.263 -0.526,0.627 -0.587,1.011 -0.04,0.405 0.061,0.81 0.283,1.133 l 34.927,45.288 c 0.506,0.668 1.457,0.789 2.125,0.283 l 4.411,-3.399 c 0.324,-0.243 0.526,-0.607 0.567,-0.992 0.061,-0.405 -0.041,-0.81 -0.283,-1.153 l -11.575,-14.995 2.266,-12.688 35.899,8.438 c 0.445,0.101 0.89,0 1.254,-0.284 l 5.707,-4.391 c 0.466,-0.364 0.688,-0.971 0.566,-1.518 -0.122,-0.585 -0.567,-1.009 -1.133,-1.151"/><path id="path21120" d="m 251.435,154.413 3.582,-40.167 c 0.061,-0.546 -0.202,-1.093 -0.668,-1.397 -0.485,-0.304 -1.093,-0.323 -1.558,-0.04 l -5.788,3.237 c -0.445,0.264 -0.748,0.709 -0.769,1.215 l -2.327,32.377 -28.917,-14.813 c -0.465,-0.223 -0.991,-0.223 -1.437,0.041 l -5.768,3.238 c -0.485,0.283 -0.789,0.809 -0.769,1.356 0.021,0.566 0.323,1.093 0.85,1.335 l 36.102,17.828 11.291,20.114 c 0.202,0.344 0.506,0.607 0.91,0.708 0.385,0.122 0.81,0.061 1.154,-0.121 l 4.856,-2.752 c 0.729,-0.404 0.971,-1.315 0.566,-2.043 z"/><path id="path21122" d="m 306.072,92.349 c -0.304,-0.769 -1.194,-1.133 -1.963,-0.83 l -5.161,2.104 c -0.384,0.142 -0.667,0.445 -0.809,0.81 -0.162,0.384 -0.162,0.79 -0.021,1.174 l 13.315,32.782 c 2.267,5.464 2.671,10.058 1.214,13.578 -1.416,3.339 -4.472,5.93 -9.41,7.933 -4.856,1.963 -8.842,2.267 -12.161,0.83 -3.501,-1.518 -6.415,-5.059 -8.601,-10.563 L 269.14,107.365 c -0.304,-0.789 -1.193,-1.153 -1.983,-0.85 l -5.14,2.104 c -0.364,0.142 -0.688,0.445 -0.83,0.81 -0.161,0.364 -0.161,0.789 -0.02,1.153 l 13.801,33.916 c 5.463,13.518 17.14,18.192 31.163,12.486 7.184,-2.894 12,-7.184 14.327,-12.708 2.226,-5.301 2.023,-11.534 -0.607,-17.989 z"/><path id="path21124" d="m 411.177,96.194 -5.464,1.012 c -0.769,0.142 -1.295,0.85 -1.233,1.619 0.688,8.479 -3.339,17.909 -13.821,19.852 -14.874,2.772 -22.503,-8.742 -24.485,-19.467 -1.396,-7.326 -0.223,-14.327 3.136,-19.224 2.813,-4.128 7.083,-6.738 12.668,-7.771 8.135,-1.538 15.38,2.186 18.496,9.43 0.263,0.667 0.971,1.032 1.658,0.89 l 5.484,-1.012 c 0.404,-0.081 0.789,-0.324 1.012,-0.729 0.202,-0.344 0.263,-0.81 0.142,-1.214 -4.148,-13.093 -17.523,-16.918 -28.209,-14.915 -7.992,1.478 -14.367,5.444 -18.455,11.414 -4.573,6.637 -6.111,15.439 -4.391,24.708 2.873,15.319 14.61,29.12 34.36,25.437 14.003,-2.61 22.017,-13.599 20.884,-28.654 -0.021,-0.425 -0.223,-0.83 -0.567,-1.093 -0.345,-0.263 -0.77,-0.364 -1.215,-0.283"/><path id="path21126" d="m 442.198,52.87 c -8.095,0.647 -14.873,3.864 -19.567,9.369 -5.262,6.111 -7.73,14.691 -7.002,24.102 1.193,15.541 11.373,30.515 31.406,28.977 8.054,-0.627 14.792,-3.864 19.507,-9.349 5.262,-6.111 7.751,-14.671 7.022,-24.081 C 472.33,66.326 462.191,51.332 442.198,52.87 m 22.786,29.665 c 0.566,7.406 -1.315,14.266 -5.181,18.779 -3.238,3.784 -7.729,5.909 -13.376,6.354 -15.076,1.153 -21.409,-11.13 -22.239,-21.997 -0.587,-7.406 1.315,-14.246 5.181,-18.759 3.217,-3.805 7.771,-5.93 13.437,-6.374 15.035,-1.153 21.348,11.13 22.178,21.997"/><path id="path21128" d="m 527.128,94.899 -0.061,-1.882 c -0.162,-4.532 -1.194,-10.36 -6.819,-13.153 5.221,-2.51 8.459,-7.649 8.601,-14.327 0.101,-4.594 -1.234,-8.378 -4.027,-11.272 -3.278,-3.46 -8.601,-5.463 -14.874,-5.585 l -26.751,-0.627 c -0.829,0 -1.538,0.647 -1.558,1.477 l -1.315,57.187 c -0.021,0.404 0.142,0.789 0.404,1.093 0.304,0.283 0.668,0.445 1.072,0.465 l 5.565,0.122 c 0.829,0.02 1.518,-0.627 1.537,-1.457 l 0.547,-23.899 19.628,0.466 c 8.601,-0.142 9.471,5.949 9.835,15.298 l 0.041,1.174 c 0.08,2.61 0.182,6.192 1.518,8.458 0.263,0.445 0.729,0.749 1.274,0.749 l 6.132,0.142 c 0.587,0 1.113,-0.324 1.396,-0.87 0.263,-0.506 0.182,-1.133 -0.202,-1.619 -1.72,-2.126 -1.862,-8.277 -1.943,-11.94 m -37.031,-39.014 19.264,0.445 c 3.825,0.081 6.679,1.113 8.52,3.035 1.64,1.7 2.429,4.088 2.348,7.103 -0.142,6.577 -5.97,9.471 -11.312,9.369 l -19.265,-0.465 z"/><path id="path21130" d="m 567.701,53.274 -25.74,-3.056 c -0.425,-0.04 -0.811,0.061 -1.133,0.344 -0.304,0.243 -0.506,0.587 -0.566,0.992 l -6.658,56.822 c -0.081,0.83 0.486,1.578 1.336,1.68 l 5.545,0.627 c 0.384,0.041 0.789,-0.061 1.111,-0.303 0.305,-0.243 0.506,-0.607 0.548,-1.012 l 2.671,-22.867 18.758,2.226 c 5.809,0.688 10.847,-0.526 14.591,-3.44 3.46,-2.751 5.605,-6.92 6.232,-12.101 1.275,-10.927 -5.1,-18.576 -16.695,-19.912 m -19.609,5.403 17.505,2.063 c 4.27,0.486 11.291,2.651 10.26,11.454 -0.364,2.995 -1.498,5.322 -3.42,6.82 -2.186,1.72 -5.363,2.408 -9.208,1.963 l -17.503,-2.064 z"/><path id="path21132" d="m 622.236,61.651 c -7.912,-1.781 -15.378,-0.647 -21.489,3.197 -6.82,4.311 -11.697,11.757 -13.781,20.944 -3.42,15.218 1.902,32.52 21.53,36.951 7.892,1.761 15.299,0.668 21.39,-3.217 6.819,-4.271 11.696,-11.737 13.781,-20.965 3.439,-15.176 -1.882,-32.478 -21.431,-36.91 m 13.053,35.029 c -1.64,7.244 -5.443,13.234 -10.463,16.432 -4.209,2.65 -9.146,3.379 -14.63,2.145 -14.771,-3.318 -17.221,-16.917 -14.834,-27.541 1.641,-7.264 5.445,-13.254 10.464,-16.431 4.229,-2.651 9.166,-3.38 14.711,-2.125 14.711,3.298 17.14,16.897 14.752,27.52"/><path id="path21134" d="m 689.622,131.243 0.485,-1.801 c 1.275,-4.371 2.085,-10.219 -2.367,-14.631 5.747,-0.729 10.401,-4.634 12.607,-10.947 3.379,-9.552 -1.498,-17.929 -12.709,-21.895 l -25.255,-8.884 c -0.384,-0.122 -0.789,-0.101 -1.153,0.061 -0.344,0.182 -0.627,0.486 -0.769,0.87 l -19.001,53.949 c -0.263,0.789 0.142,1.659 0.931,1.922 l 5.241,1.841 c 0.405,0.142 0.81,0.122 1.153,-0.061 0.364,-0.162 0.646,-0.486 0.77,-0.85 l 7.951,-22.522 18.476,6.496 c 8.217,2.55 7.144,8.62 4.614,17.605 -0.021,0.02 -0.324,1.133 -0.324,1.133 -0.748,2.51 -1.76,5.95 -1.193,8.519 0.121,0.506 0.485,0.932 0.972,1.093 l 5.787,2.044 c 0.566,0.202 1.194,0.061 1.599,-0.364 0.405,-0.425 0.526,-1.052 0.324,-1.618 -0.972,-2.55 0.789,-8.439 1.861,-11.96 m -23.109,-48.566 18.172,6.415 c 6.86,2.368 9.349,6.9 7.184,12.992 -0.829,2.368 -2.388,4.168 -4.553,5.201 -2.57,1.234 -5.909,1.295 -9.086,0.162 l -18.173,-6.395 z"/><path id="path21136" d="m 742.862,106.757 -5.564,-2.752 c -0.566,-0.263 -1.214,-0.182 -1.68,0.202 l -46.462,40.816 c -0.384,0.343 -0.587,0.829 -0.525,1.335 0.101,0.506 0.404,0.931 0.85,1.174 l 5.362,2.651 c 0.547,0.263 1.215,0.162 1.68,-0.263 l 13.417,-12.121 22.016,10.887 -1.437,18.051 c -0.041,0.647 0.283,1.193 0.83,1.497 l 5.362,2.63 c 0.465,0.223 0.991,0.203 1.416,-0.02 0.426,-0.283 0.729,-0.708 0.77,-1.214 l 4.796,-61.395 c 0.06,-0.628 -0.264,-1.194 -0.831,-1.478 m -7.952,8.459 -2.327,25.214 -16.614,-8.196 z"/><path id="path21138" d="m 796.508,147.31 c 0.708,0.465 1.659,0.263 2.104,-0.425 l 2.59,-3.865 c 0.203,-0.324 0.284,-0.749 0.203,-1.133 -0.081,-0.405 -0.304,-0.749 -0.647,-0.971 l -38.611,-25.579 c -0.687,-0.464 -1.617,-0.283 -2.084,0.406 l -2.589,3.864 c -0.204,0.344 -0.285,0.749 -0.204,1.154 0.081,0.384 0.305,0.729 0.647,0.971 l 15.704,10.421 -28.209,42.516 c -0.223,0.324 -0.283,0.749 -0.223,1.133 0.081,0.404 0.324,0.749 0.668,0.971 l 4.614,3.076 c 0.708,0.445 1.639,0.263 2.125,-0.425 l 28.188,-42.536 z"/><path id="path21140" d="m 820.284,154.979 -4.329,-3.48 c -0.325,-0.284 -0.708,-0.385 -1.114,-0.344 -0.403,0.021 -0.768,0.223 -1.032,0.546 l -35.918,44.458 c -0.547,0.647 -0.445,1.62 0.223,2.145 l 4.311,3.501 c 0.303,0.243 0.729,0.364 1.112,0.324 0.385,-0.041 0.77,-0.243 1.012,-0.546 l 35.938,-44.478 c 0.526,-0.648 0.425,-1.6 -0.203,-2.126"/><path id="path21142" d="m 852.42,183.31 c -5.565,-5.909 -12.324,-9.146 -19.589,-9.369 -8.054,-0.243 -16.25,3.197 -23.129,9.673 -11.353,10.705 -16.614,28.027 -2.854,42.657 5.563,5.889 12.282,9.086 19.527,9.309 8.054,0.243 16.29,-3.198 23.17,-9.693 11.313,-10.685 16.615,-28.008 2.875,-42.577 m -8.783,36.323 c -5.402,5.099 -11.919,7.932 -17.889,7.77 -4.958,-0.142 -9.45,-2.287 -13.294,-6.395 -10.381,-11.028 -4.816,-23.676 3.115,-31.123 5.425,-5.12 11.919,-7.953 17.868,-7.771 4.999,0.142 9.491,2.307 13.417,6.456 10.321,10.969 4.715,23.596 -3.217,31.063"/><path id="path21144" d="m 904.203,260.267 -2.712,-4.877 c -0.404,-0.729 -1.315,-0.971 -2.063,-0.587 l -38.246,21.389 23.676,-49.234 c 0.202,-0.465 0.182,-0.971 -0.061,-1.417 l -3.036,-5.423 c -0.404,-0.728 -1.335,-0.991 -2.044,-0.586 l -49.901,27.905 c -0.384,0.182 -0.627,0.505 -0.748,0.911 -0.102,0.364 -0.041,0.789 0.142,1.132 l 2.731,4.857 c 0.385,0.729 1.315,0.992 2.064,0.587 l 38.225,-21.369 -23.635,49.254 c -0.223,0.445 -0.223,0.951 0.041,1.376 l 3.015,5.444 c 0.425,0.708 1.336,0.992 2.044,0.566 l 49.922,-27.885 c 0.364,-0.182 0.627,-0.506 0.729,-0.891 0.12,-0.404 0.059,-0.809 -0.143,-1.152"/></g><g id="g21174" fill="#231815"><path id="path21148" d="m 245.525,933.075 v 8.405 h -41.678 c 7.943,12.445 20.725,19.113 44.558,23.717 l -5.182,8.969 c -17.04,-3.557 -30.867,-9.878 -40.193,-19.688 -3.8,-3.892 -6.321,-7.702 -8.393,-12.537 -2.314,5.41 -5.873,11.524 -11.515,16.233 -14.161,11.986 -30.511,15.07 -37.303,16.349 l -3.801,-9.326 c 6.218,-0.816 21.302,-2.889 34.311,-13.597 2.994,-2.417 5.642,-5.745 8.06,-10.12 h -40.192 v -8.405 h 43.531 c 0.807,-2.302 1.496,-5.077 1.957,-9.913 H 141.79 v -8.382 h 48.241 V 904.636 H 149.85 v -8.048 h 40.182 v -8.865 H 145.36 v -8.405 h 26.711 c -1.394,-3.361 -2.533,-5.409 -5.308,-10.028 L 176.33,867 c 2.879,4.49 4.71,8.624 5.987,12.318 h 26.239 c 2.084,-3.694 3.695,-6.907 5.538,-12.318 l 10.362,1.588 c -1.728,4.157 -2.764,6.114 -5.526,10.73 h 26.02 v 8.405 h -45.593 v 8.865 h 40.758 v 8.048 h -40.758 v 10.144 h 48.587 v 8.382 h -48.933 c -0.229,2.878 -0.575,5.781 -1.496,9.913 z"/><path id="path21150" d="m 288.461,873.816 c 0,0.115 -1.279,50.658 -1.279,60.214 0,13.714 0.576,27.634 23.603,27.634 28.68,0 33.056,-21.186 36.383,-37.42 l 10.247,2.648 c -2.637,13.942 -8.508,44.557 -46.054,44.557 -10.581,0 -24.052,-2.416 -30.384,-13.92 -4.375,-8.07 -4.375,-19.93 -4.375,-33.734 0,-7.943 0.575,-42.944 0.46,-50.083 z"/><path id="path21152" d="m 390.204,878.397 c -0.69,5.066 -2.188,15.082 -2.188,29.13 0,11.169 0.806,27.517 4.03,38.109 1.842,5.987 4.835,11.86 11.398,11.86 9.095,0 15.876,-15.774 20.033,-26.943 l 8.635,5.526 c -4.721,12.55 -9.786,20.954 -15.658,26.713 -2.188,2.072 -7.023,5.757 -14.046,5.757 -9.684,0 -15.095,-6.219 -19.229,-16.926 -3.914,-10.133 -5.756,-28.208 -5.756,-42.716 0,-11.857 0.921,-23.834 1.601,-31.66 z m 74.631,78.925 c 0.115,-2.647 0.241,-5.284 0.241,-8.979 0,-38.927 -11.41,-51.225 -21.542,-62.047 l 9.211,-5.076 c 3.685,3.452 11.744,10.822 17.271,25.444 6.563,17.396 6.563,39.261 6.563,42.253 0,2.994 -0.115,5.078 -0.219,7.255 z"/><path id="path21154" d="m 536.16,873.367 v 86.063 h -24.788 v 8.636 h -8.762 v -94.698 h 33.55 z m -8.636,8.865 h -16.152 v 28.495 h 16.152 z m 0.439,37.131 H 511.81 v 31.201 h 16.153 z m 50.267,-51.58 v 10.707 h 24.408 v 8.75 H 578.23 v 14.692 h 27.979 v 8.863 h -11.975 v 13.357 h 11.054 v 8.75 h -11.054 v 31.522 c 0,2.442 0,9.81 -9.557,9.81 h -16.383 l -1.957,-9.44 15.691,0.115 c 1.957,0 2.879,-0.345 2.879,-2.419 v -29.588 h -42.945 v -8.75 h 42.945 v -13.357 h -43.752 v -8.863 h 27.863 V 887.24 h -24.052 v -8.75 h 24.052 v -10.707 z m -17.729,93.097 c -3.454,-5.643 -7.255,-11.191 -15.418,-19.47 l 7.013,-5.515 c 7.483,6.666 12.537,13.7 16.119,19.111 z"/><path id="path21156" d="m 647.704,972.715 h -9.673 v -57.831 c -4.247,6.665 -7.483,10.12 -9.671,12.422 l -4.721,-10.822 c 11.975,-13.585 20.147,-31.535 23.719,-48.689 l 9.786,1.829 c -1.036,4.503 -2.878,13.367 -9.44,27.645 z m 83.944,-76.414 0.575,8.865 -39.376,2.879 c 2.878,20.021 7.254,34.885 16.337,48.702 3.109,4.835 5.526,5.743 7.83,5.743 4.029,0 6.908,-13.458 7.828,-18.19 l 8.98,4.501 c -1.957,9.788 -4.595,16.591 -7.713,20.968 -0.346,0.46 -2.994,4.248 -7.818,4.248 -7.828,0 -13.022,-5.527 -17.513,-12.193 -10.926,-16.015 -15.415,-34.77 -18.074,-52.985 l -25.906,1.854 -0.909,-9.224 25.663,-1.829 c -1.025,-10.95 -2.062,-21.99 -2.521,-33.032 h 10.005 c 0.115,5.171 0.46,14.382 2.649,32.353 z m -13.021,-3.915 c -5.297,-6.113 -11.975,-12.422 -19.573,-17.615 l 5.871,-6.793 c 5.998,3.685 14.402,10.006 20.493,17.04 z"/><path id="path21158" d="m 856.189,952.106 c -20.035,-15.772 -34.312,-28.552 -50.325,-44.545 -7.014,-6.908 -9.211,-7.713 -11.963,-7.713 -4.156,0 -6.793,2.521 -9.108,4.938 -2.061,2.188 -4.133,4.731 -22.682,27.413 l -7.932,-9.222 c 3.799,-3.672 5.181,-5.182 17.154,-18.537 10.363,-11.502 14.853,-15.071 22.453,-15.071 6.32,0 10.579,2.867 17.729,9.545 21.3,19.803 27.058,24.985 52.042,43.533 z"/><path id="path21160" d="m 270.223,1058.882 v -7.529 h 7.081 v 7.529 h 37.188 v 6.551 h -37.188 v 5.954 h 31.144 v 32.535 h -25.813 c 8.923,9.718 23.096,16.811 32.894,20.058 l -4.099,6.804 c -12.965,-5.504 -24.858,-13.298 -34.126,-23.867 v 25.617 h -7.081 v -25.536 c -7.876,9.97 -21,18.455 -33.941,23.891 l -4.202,-6.84 c 12.596,-4.64 24.488,-11.19 32.802,-20.126 h -25.457 v -32.535 h 30.799 v -5.954 h -37.107 v -6.551 h 37.106 z m -23.971,25.882 h 23.971 v -7.345 h -23.971 z m 0,13.218 h 23.971 v -7.518 h -23.971 z m 55.46,-20.563 h -24.408 v 7.345 h 24.408 z m 0,13.034 h -24.408 v 7.529 h 24.408 z"/><path id="path21162" d="m 395.615,1057.731 v 5.781 c -1.923,2.267 -4.282,4.812 -9.798,9.013 h 20.816 v 32.538 h -68.32 v -6.299 h 61.057 v -7.344 h -61.057 v -5.781 h 61.057 v -7.081 h -60.7 v -2.371 c -0.714,0.357 -1.047,0.529 -4.202,1.669 l -3.512,-6.124 c 12.699,-4.03 24.248,-12.779 29.578,-20.564 l 8.048,1.486 c -1.394,2.107 -2.279,3.167 -3.926,5.077 z m -37.095,6.046 c -4.905,4.374 -10.316,7.61 -12.331,8.748 h 28.956 c 3.5,-2.279 7.427,-5.606 10.155,-8.748 z m -27.207,62.206 c 3.856,-3.327 8.14,-7.967 11.375,-16.626 l 6.654,2.614 c -2.198,6.39 -6.136,13.481 -12.859,19.25 z m 30.281,-16.717 v 14.438 c 0,1.312 0.253,2.349 2.705,2.349 h 17.236 c 2.89,0 4.018,0 4.985,-10.143 l 6.908,2.37 c -1.578,12.412 -4.191,14.427 -10.236,14.427 h -21.875 c -3.144,0 -6.908,0 -6.908,-5.687 v -17.754 z m 45.396,22.22 c -2.889,-6.563 -8.484,-14.611 -12.687,-19.25 l 5.768,-3.5 c 4.468,4.283 10.247,11.997 13.471,18.722 z m -30.969,-10.845 c -3.686,-4.122 -7.266,-7.266 -11.203,-10.237 l 4.731,-4.465 c 5.066,3.765 8.048,6.124 11.456,9.798 z"/><path id="path21164" d="m 429.534,1087.829 c 14,-8.038 22.843,-20.472 27.656,-34.104 l 8.738,1.383 c -1.302,3.327 -2.625,6.563 -5.596,11.64 h 38.581 c -2.717,16.361 -9.096,32.018 -20.551,43.922 -12.965,13.554 -30.2,17.49 -40.77,19.413 l -3.42,-7.253 c 19.608,-2.982 44.627,-10.501 54.942,-48.736 h -33.516 c -9.44,12.769 -16.349,17.074 -20.989,19.78 z m 59.582,-23.352 c -1.749,-5.342 -2.452,-7.528 -4.72,-12.342 l 5.768,-1.485 c 2.096,4.017 3.857,8.303 5.077,12.252 z m 11.987,-0.7 c -0.703,-2.017 -2.361,-7.014 -4.986,-12.252 l 5.781,-1.484 c 2.095,3.937 3.937,7.783 5.329,11.974 z"/><path id="path21166" d="m 533.938,1082.82 c 0,4.64 -0.783,16.543 -3.673,27.39 -2.279,8.75 -7.357,16.442 -13.909,22.566 l -5.778,-5.86 c 3.236,-3.051 10.063,-9.626 12.422,-20.563 1.578,-7.427 2.718,-17.145 2.718,-22.396 v -24.672 h 8.221 v 23.535 z m 23.442,38.408 c 16.014,-4.029 24.144,-15.486 27.828,-35.334 l 7.345,2.97 c -2.36,12.157 -6.654,21.092 -12.686,27.735 -10.41,11.64 -23.8,13.205 -30.535,13.909 v -73.755 h 8.048 z"/><rect id="rect21168" width="77.694" height="8.404" x="608.038" y="1087.275"/><path id="path21170" d="m 701.528,1120.617 c 35.864,-5.249 48.023,-23.717 51.615,-52.133 h -59.49 v -7.438 h 59.397 c -0.08,-0.529 -0.173,-1.15 -0.173,-1.669 0,-5.169 4.376,-9.003 9.279,-9.003 4.894,0 8.925,4.018 8.925,9.003 0,4.813 -3.858,9.453 -9.627,9.188 -3.5,28.161 -14.702,51.695 -56.438,59.743 z m 60.447,-65.787 c -2.534,0 -4.629,2.096 -4.629,4.629 0,2.624 2.095,4.628 4.629,4.628 2.532,0 4.639,-2.004 4.639,-4.628 -10e-4,-2.534 -2.107,-4.629 -4.639,-4.629"/><line id="line21172" x1="136.528" x2="862.74" y1="1011.424" y2="1011.424" fill="none" stroke="#231815" stroke-width="3.395"/></g></g></g></g></svg>