<svg xmlns="http://www.w3.org/2000/svg" xmlns:svg="http://www.w3.org/2000/svg" id="svg16" width="800" height="800" version="1.1" viewBox="0 0 211.667 211.667"><metadata id="metadata13"/><g id="layer1"><g id="surface379488" transform="matrix(2.5352148,0,0,2.5352148,-1386.8811,-1632.8547)"><g style="overflow:visible" id="g21014" transform="matrix(0.42755283,0,0,0.42755283,551.22131,667.23823)"><polygon id="polygon20941" fill="#fff" points="88.204 86.255 88.204 .174"/><path id="path20943" fill="#149dd3" d="m 86.338,81.961 c -0.005,2.491 -2.023,4.497 -4.485,4.492 L 4.481,86.314 C 2.001,86.311 -0.004,84.297 0,81.807 L 0.138,4.47 C 0.143,1.995 2.156,-0.005 4.636,0 l 77.372,0.139 c 2.462,0.004 4.474,2.011 4.47,4.486 z"/><path id="path20945" fill="#fff" d="M 43.216,58.674 C 50.34,58.688 53.277,56.31 53.284,52.717 53.291,48.48 49.065,43.3 46.005,40.085 c 5.773,-5.185 13.26,-9.018 16.206,-6.056 3.403,3.405 0.05,13.492 -8.001,24.63 l 10.609,3.045 C 73.814,45.692 75.725,29.932 69.522,25.667 64.677,22.357 52.461,28.995 43.255,37.422 34.074,28.96 21.892,22.281 17.03,25.572 c -6.225,4.243 -4.353,20.01 4.585,36.054 L 32.235,58.62 C 24.212,47.451 20.901,37.353 24.316,33.961 c 2.95,-2.951 10.424,0.908 16.189,6.113 -3.083,3.204 -7.329,8.368 -7.336,12.606 -0.006,3.594 2.929,5.981 10.047,5.994 z m 0.011,-5.826 c -2.359,-0.005 -4.344,-0.605 -4.341,-2.614 0.003,-1.866 1.587,-4.683 4.359,-7.736 2.762,3.064 4.329,5.886 4.327,7.752 -0.004,2.008 -1.992,2.602 -4.345,2.598 z"/><path id="path20947" fill="#0e3051" d="m 175.609,81.961 c -0.005,2.491 -2.023,4.497 -4.484,4.492 L 93.753,86.314 C 91.273,86.31 89.267,84.296 89.272,81.806 L 89.41,4.47 C 89.414,1.995 91.427,-0.005 93.906,0 l 77.372,0.139 c 2.463,0.004 4.475,2.011 4.47,4.486 z"/><path id="path20949" fill="#fff" d="m 103.831,30.31 v -0.845 l -5.631,-0.01 0.003,-1.297 5.63,0.01 0.002,-0.937 1.843,0.003 -0.002,0.937 5.634,0.01 -0.002,1.298 -5.634,-0.01 v 0.845 l 4.226,0.017 c 0.277,0.001 0.468,0.188 0.467,0.474 l -0.007,4.596 c -0.002,0.277 -0.191,0.476 -0.469,0.475 l -1.814,-0.003 c 0.779,0.966 2.191,2.069 3.228,2.339 l -0.003,1.447 c -2.396,-0.452 -4.725,-2.17 -5.639,-3.94 l -0.007,4.119 -1.843,-0.004 0.008,-4.118 c -0.916,1.767 -3.233,3.477 -5.638,3.919 l 0.003,-1.447 c 1.034,-0.266 2.447,-1.354 3.223,-2.321 L 99.616,35.866 C 99.34,35.865 99.143,35.668 99.143,35.397 l 0.009,-4.612 c 0,-0.276 0.198,-0.472 0.474,-0.472 z m 4.777,4.319 10e-4,-0.995 -2.943,-0.006 -0.002,0.996 z m -4.782,-2.162 0.002,-0.906 -2.937,-0.005 -0.002,0.906 z m -0.005,2.153 0.003,-0.995 -2.937,-0.006 -0.002,0.997 z m 4.791,-2.143 0.002,-0.906 -2.943,-0.006 -0.002,0.906 z"/><path id="path20951" fill="#fff" d="m 146.063,33.361 c 2.402,0.448 5.418,1.093 7.511,1.654 l 0.003,-1.705 c -1.67,-0.541 -4.986,-1.408 -7.521,-1.935 l 0.013,-3.675 -2.258,-0.004 -0.021,11.819 2.263,0.004 z"/><path id="path20953" fill="#fff" d="m 155.726,38.424 c -0.001,0.381 0.298,0.71 0.707,0.71 l 9.858,0.018 c 0.408,0 0.712,-0.327 0.712,-0.708 l 0.019,-9.506 c 0,-0.382 -0.303,-0.709 -0.711,-0.709 l -9.857,-0.018 c -0.409,-10e-4 -0.711,0.324 -0.712,0.707 z m 2.096,-1.009 0.014,-7.501 7.095,0.013 -0.014,7.5 z"/><polygon id="polygon20955" fill="#fff" points="113.687 28.184 113.685 29.598 126.802 29.622 126.804 28.208 121.168 28.198 121.17 27.262 119.33 27.258 119.328 28.188"/><path id="path20957" fill="#fff" d="m 115.98,36.199 c -0.433,0.867 -1.434,1.761 -2.306,2.016 l -0.004,1.447 c 2.327,-0.289 3.97,-2.026 4.423,-3.458 z"/><path id="path20959" fill="#fff" d="m 124.489,36.214 -2.108,-0.003 c 0.439,1.434 2.084,3.177 4.402,3.473 l 0.004,-1.445 c -0.851,-0.24 -1.865,-1.137 -2.298,-2.025 z"/><path id="path20961" fill="#fff" d="m 125.095,35.304 c 0.272,10e-4 0.475,-0.186 0.475,-0.472 l 0.008,-3.698 c 0,-0.264 -0.202,-0.471 -0.475,-0.471 l -9.74,-0.018 c -0.283,0 -0.471,0.189 -0.471,0.47 l -0.008,3.695 c 0,0.274 0.187,0.466 0.471,0.466 l 3.961,0.018 -0.006,3.027 -1.337,-0.002 -0.003,1.5 1.448,0.002 c 0.973,0.002 1.732,0.004 1.734,-1.479 l 0.005,-3.039 z m -8.342,-1.365 -0.001,-1.946 6.96,0.012 -0.005,1.946 z"/><path id="path20963" fill="#fff" d="m 136.688,34.879 c 1.363,0.739 2.555,1.406 3.452,1.902 l 0.004,-2.189 c -0.685,-0.385 -1.526,-0.826 -2.47,-1.324 0.909,-1.714 1.508,-3.619 1.785,-5.594 l -2.384,-0.01 c -0.248,1.689 -0.713,3.232 -1.372,4.591 -1.965,-0.975 -4.126,-1.989 -5.916,-2.711 l -0.002,1.747 c 1.569,0.655 3.337,1.646 5.026,2.539 -1.273,1.993 -3.472,3.62 -5.774,4.17 l -0.002,1.557 c 3.25,-0.333 5.813,-2.078 7.653,-4.678 z"/><polygon id="polygon20965" fill="#fff" points="98.183 47.619 104.731 47.619 104.731 49.206 102.35 49.206 102.35 56.75 100.564 56.75 100.564 49.206 98.183 49.206"/><path id="path20967" fill="#fff" d="m 108.396,53.402 c 0,0.691 -0.039,1.279 -0.387,1.622 -0.196,0.2 -0.446,0.299 -0.783,0.299 -0.336,0 -0.579,-0.099 -0.77,-0.299 -0.35,-0.343 -0.384,-0.931 -0.384,-1.622 0,-0.692 0.034,-1.269 0.384,-1.616 0.19,-0.193 0.434,-0.298 0.77,-0.298 0.337,0 0.587,0.104 0.783,0.298 0.348,0.348 0.387,0.924 0.387,1.616 z m 1.662,0 c 0,-1.204 -0.151,-1.96 -0.754,-2.588 -0.412,-0.439 -1.092,-0.818 -2.077,-0.818 -0.989,0 -1.653,0.379 -2.067,0.818 -0.603,0.628 -0.752,1.384 -0.752,2.588 0,1.22 0.149,1.975 0.752,2.602 0.414,0.44 1.078,0.825 2.067,0.825 0.985,0 1.665,-0.385 2.077,-0.825 0.602,-0.627 0.754,-1.382 0.754,-2.602 z"/><polygon id="polygon20969" fill="#fff" points="113.902 53.965 113.202 54.758 113.202 56.75 111.533 56.75 111.533 47.619 113.202 47.619 113.202 52.8 115.411 50.07 117.424 50.07 115.042 52.759 117.604 56.75 115.541 56.75"/><path id="path20971" fill="#fff" d="m 121.187,57.824 c -0.145,0.371 -0.297,0.658 -0.508,0.862 -0.379,0.386 -0.881,0.511 -1.432,0.511 h -0.649 v -1.498 h 0.387 c 0.474,0 0.665,-0.113 0.826,-0.606 l 0.28,-0.818 -2.279,-6.204 h 1.76 l 1.384,4.125 1.335,-4.125 h 1.756 z"/><path id="path20973" fill="#fff" d="m 128.604,53.402 c 0,0.691 -0.031,1.279 -0.383,1.622 -0.191,0.2 -0.45,0.299 -0.782,0.299 -0.337,0 -0.579,-0.099 -0.767,-0.299 -0.344,-0.343 -0.391,-0.931 -0.391,-1.622 0,-0.692 0.047,-1.269 0.391,-1.616 0.188,-0.193 0.43,-0.298 0.767,-0.298 0.332,0 0.591,0.104 0.782,0.298 0.352,0.348 0.383,0.924 0.383,1.616 z m 1.669,0 c 0,-1.204 -0.152,-1.96 -0.757,-2.588 -0.412,-0.439 -1.092,-0.818 -2.077,-0.818 -0.985,0 -1.653,0.379 -2.061,0.818 -0.606,0.628 -0.762,1.384 -0.762,2.588 0,1.22 0.155,1.975 0.762,2.602 0.407,0.44 1.075,0.825 2.061,0.825 0.986,0 1.665,-0.385 2.077,-0.825 0.605,-0.627 0.757,-1.382 0.757,-2.602 z"/><polygon id="polygon20975" fill="#fff" points="140.715 56.75 140.715 51.22 139.084 54.891 137.919 54.891 136.269 51.22 136.269 56.75 134.485 56.75 134.485 47.619 136.245 47.619 138.498 52.558 140.738 47.619 142.503 47.619 142.503 56.75"/><path id="path20977" fill="#fff" d="m 148.282,52.788 h -2.53 c 0.008,-0.297 0.042,-0.473 0.152,-0.717 0.179,-0.402 0.547,-0.691 1.11,-0.691 0.563,0 0.931,0.289 1.118,0.691 0.102,0.244 0.139,0.42 0.15,0.717 z m 1.645,1.14 v -0.745 c 0,-1.832 -1.051,-3.187 -2.912,-3.187 -1.732,0 -2.908,1.229 -2.908,3.406 0,2.701 1.517,3.427 3.093,3.427 1.199,0 1.853,-0.373 2.532,-1.06 l -1.012,-0.984 c -0.423,0.428 -0.786,0.633 -1.509,0.633 -0.939,0 -1.459,-0.633 -1.459,-1.49 z"/><path id="path20979" fill="#fff" d="m 153.502,56.75 c -1.365,0 -1.943,-0.966 -1.943,-1.914 v -3.307 h -0.703 v -1.267 h 0.703 V 48.29 h 1.667 v 1.972 h 1.18 v 1.267 h -1.18 v 3.207 c 0,0.382 0.182,0.604 0.577,0.604 h 0.603 v 1.409 h -0.904 z"/><path id="path20981" fill="#fff" d="m 159.487,51.894 c -0.257,-0.259 -0.472,-0.405 -0.887,-0.405 -0.512,0 -1.071,0.385 -1.071,1.237 v 4.024 h -1.67 v -6.68 h 1.627 v 0.642 c 0.32,-0.384 0.967,-0.716 1.689,-0.716 0.642,0 1.106,0.164 1.564,0.617 z"/><path id="path20983" fill="#fff" d="m 164.998,53.402 c 0,0.691 -0.035,1.279 -0.384,1.622 -0.187,0.2 -0.445,0.299 -0.78,0.299 -0.337,0 -0.572,-0.099 -0.779,-0.299 -0.34,-0.343 -0.371,-0.931 -0.371,-1.622 0,-0.692 0.031,-1.269 0.371,-1.616 0.207,-0.193 0.442,-0.298 0.779,-0.298 0.335,0 0.594,0.104 0.78,0.298 0.349,0.348 0.384,0.924 0.384,1.616 z m 1.662,0 c 0,-1.204 -0.145,-1.96 -0.751,-2.588 -0.403,-0.439 -1.091,-0.818 -2.075,-0.818 -0.991,0 -1.65,0.379 -2.062,0.818 -0.606,0.628 -0.759,1.384 -0.759,2.588 0,1.22 0.152,1.975 0.759,2.602 0.411,0.44 1.07,0.825 2.062,0.825 0.984,0 1.672,-0.385 2.075,-0.825 0.607,-0.627 0.751,-1.382 0.751,-2.602 z"/></g></g></g></svg>